<?xml version="1.0" encoding="UTF-8"?>
<svg version="1.1" xmlns="http://www.w3.org/2000/svg" width="90" height="90">
<path d="M0 0 C0.66 0.33 1.32 0.66 2 1 C2 4.63 2 8.26 2 12 C3.753125 12.226875 5.50625 12.45375 7.3125 12.6875 C8.79169922 12.87892578 8.79169922 12.87892578 10.30078125 13.07421875 C13.04368768 13.26981182 13.04368768 13.26981182 14.85546875 11.51953125 C15.23316406 11.01808594 15.61085937 10.51664063 16 10 C15.67 11.32 15.34 12.64 15 14 C15.5053125 14.33773438 16.010625 14.67546875 16.53125 15.0234375 C17.50578125 15.69246094 17.50578125 15.69246094 18.5 16.375 C19.1496875 16.81585937 19.799375 17.25671875 20.46875 17.7109375 C20.9740625 18.13632812 21.479375 18.56171875 22 19 C22 19.66 22 20.32 22 21 C22.556875 21.185625 23.11375 21.37125 23.6875 21.5625 C26.15409221 23.09578705 26.90267808 24.22076946 28.4375 26.625 C29.62915893 28.50199607 29.62915893 28.50199607 31 30 C33.71471005 30.58768383 33.71471005 30.58768383 36 30 C35.49855469 30.37769531 34.99710937 30.75539063 34.48046875 31.14453125 C32.73018818 32.95631232 32.73018818 32.95631232 32.92578125 35.69921875 C33.05339844 36.68535156 33.18101563 37.67148437 33.3125 38.6875 C33.539375 40.440625 33.76625 42.19375 34 44 C37.96 44 41.92 44 46 44 C45.505 44.99 45.505 44.99 45 46 C41.37 46 37.74 46 34 46 C33.773125 47.753125 33.54625 49.50625 33.3125 51.3125 C33.18488281 52.29863281 33.05726562 53.28476562 32.92578125 54.30078125 C32.73018818 57.04368768 32.73018818 57.04368768 34.48046875 58.85546875 C34.98191406 59.23316406 35.48335938 59.61085937 36 60 C34.35 59.67 32.7 59.34 31 59 C30.61328125 59.62648437 30.2265625 60.25296875 29.828125 60.8984375 C29.30734375 61.71570312 28.7865625 62.53296875 28.25 63.375 C27.73953125 64.18710938 27.2290625 64.99921875 26.703125 65.8359375 C24.90402594 68.12194869 23.56103543 68.7625249 21 70 C20.505 71.485 20.505 71.485 20 73 C17.9375 74.1875 17.9375 74.1875 16 75 C16 76.65 16 78.3 16 80 C15.62230469 79.49855469 15.24460938 78.99710937 14.85546875 78.48046875 C13.04368768 76.73018818 13.04368768 76.73018818 10.30078125 76.92578125 C9.31464844 77.05339844 8.32851563 77.18101563 7.3125 77.3125 C5.559375 77.539375 3.80625 77.76625 2 78 C2 81.63 2 85.26 2 89 C1.01 89.495 1.01 89.495 0 90 C0 86.04 0 82.08 0 78 C-1.753125 77.773125 -3.50625 77.54625 -5.3125 77.3125 C-6.29863281 77.18488281 -7.28476562 77.05726562 -8.30078125 76.92578125 C-11.04368768 76.73018818 -11.04368768 76.73018818 -12.85546875 78.48046875 C-13.23316406 78.98191406 -13.61085938 79.48335938 -14 80 C-13.773125 79.236875 -13.54625 78.47375 -13.3125 77.6875 C-13.209375 76.800625 -13.10625 75.91375 -13 75 C-14.33378575 73.1645201 -14.33378575 73.1645201 -16 72 C-14.68 72 -13.36 72 -12 72 C-12.59167969 71.6596875 -13.18335937 71.319375 -13.79296875 70.96875 C-19.56168864 67.43035085 -22.94710602 64.04442325 -26 58 C-26 60.15634036 -25.5534764 61.92446352 -25 64 C-25.66 64 -26.32 64 -27 64 C-27.66 62.68 -28.32 61.36 -29 60 C-30.65 60 -32.3 60 -34 60 C-33.49855469 59.62230469 -32.99710938 59.24460938 -32.48046875 58.85546875 C-30.73018818 57.04368768 -30.73018818 57.04368768 -30.92578125 54.30078125 C-31.11720703 52.82158203 -31.11720703 52.82158203 -31.3125 51.3125 C-31.539375 49.559375 -31.76625 47.80625 -32 46 C-35.63 46 -39.26 46 -43 46 C-43.33 45.34 -43.66 44.68 -44 44 C-40.04 44 -36.08 44 -32 44 C-31.6596875 41.3703125 -31.6596875 41.3703125 -31.3125 38.6875 C-31.18488281 37.70136719 -31.05726562 36.71523438 -30.92578125 35.69921875 C-30.73018818 32.95631232 -30.73018818 32.95631232 -32.48046875 31.14453125 C-32.98191406 30.76683594 -33.48335937 30.38914062 -34 30 C-32.68 30.33 -31.36 30.66 -30 31 C-29.3503125 29.7934375 -29.3503125 29.7934375 -28.6875 28.5625 C-27 26 -27 26 -24 25 C-24.66 27.31 -25.32 29.62 -26 32 C-25.64808594 31.40832031 -25.29617187 30.81664063 -24.93359375 30.20703125 C-21.53347856 24.76507144 -18.45608967 21.3827756 -13 18 C-13.66 17.34 -14.32 16.68 -15 16 C-14.34 16 -13.68 16 -13 16 C-13.33 14.02 -13.66 12.04 -14 10 C-13.60167969 10.50144531 -13.20335938 11.00289062 -12.79296875 11.51953125 C-11.09649679 13.22742807 -11.09649679 13.22742807 -8.73828125 13.07421875 C-7.93777344 12.94660156 -7.13726562 12.81898437 -6.3125 12.6875 C-5.10013672 12.50767578 -5.10013672 12.50767578 -3.86328125 12.32421875 C-3.24839844 12.21722656 -2.63351563 12.11023437 -2 12 C-2 12.66 -2 13.32 -2 14 C-3.65 14.66 -5.3 15.32 -7 16 C-5.02 15.34 -3.04 14.68 -1 14 C-0.67 9.38 -0.34 4.76 0 0 Z M2 14 C5.00617269 17.00617269 7.82381598 16.59585316 12 17 C12 16.34 12 15.68 12 15 C8.7 14.67 5.4 14.34 2 14 Z M13 17 C15.7819368 20.27286682 19.27954067 21.96427697 23 24 C21.52440331 19.57320993 19.09942632 19.08567304 15 17 C14.34 17 13.68 17 13 17 Z M2 18 C2.06014821 21.06455109 2.14722403 24.12432931 2.25 27.1875 C2.26417969 28.05181641 2.27835938 28.91613281 2.29296875 29.80664062 C2.4955292 35.09346835 2.95146849 38.2025992 7 42 C9.29308963 43.14654482 10.79909656 43.19729117 13.3515625 43.31640625 C14.20234375 43.35830078 15.053125 43.40019531 15.9296875 43.44335938 C16.81914063 43.48267578 17.70859375 43.52199219 18.625 43.5625 C19.5221875 43.60568359 20.419375 43.64886719 21.34375 43.69335938 C23.56231239 43.79956715 25.78113565 43.90029959 28 44 C27.34 41.36 26.68 38.72 26 36 C20.555 37.485 20.555 37.485 15 39 C18.3 37.35 21.6 35.7 25 34 C22.13561391 28.03252897 18.73317691 24.38778636 13 21 C12.34 21 11.68 21 11 21 C9.68 23.97 8.36 26.94 7 30 C7.309375 29.0925 7.61875 28.185 7.9375 27.25 C8.71824855 24.86182795 9.39061584 22.43753666 10 20 C7.36 19.34 4.72 18.68 2 18 Z M-8 20 C-7.01 23.63 -6.02 27.26 -5 31 C-6.65 27.7 -8.3 24.4 -10 21 C-15.96747103 23.86438609 -19.61221364 27.26682309 -23 33 C-23 33.66 -23 34.32 -23 35 C-20.36 36.32 -17.72 37.64 -15 39 C-17.97 38.01 -20.94 37.02 -24 36 C-24.66 38.64 -25.32 41.28 -26 44 C-22.93544891 43.93985179 -19.87567069 43.85277597 -16.8125 43.75 C-15.51602539 43.72873047 -15.51602539 43.72873047 -14.19335938 43.70703125 C-8.90653165 43.5044708 -5.7974008 43.04853151 -2 39 C-0.85345518 36.70691037 -0.80270883 35.20090344 -0.68359375 32.6484375 C-0.64169922 31.79765625 -0.59980469 30.946875 -0.55664062 30.0703125 C-0.51732422 29.18085938 -0.47800781 28.29140625 -0.4375 27.375 C-0.39431641 26.4778125 -0.35113281 25.580625 -0.30664062 24.65625 C-0.20043139 22.43765717 -0.09838806 20.2189512 0 18 C-2.63576683 18 -5.48513411 19.26840265 -8 20 Z M23 24 C24.49836105 27.11198065 26.19933758 30.0534615 28 33 C28.33 32.01 28.66 31.02 29 30 C27.26916093 26.77867705 27.26916093 26.77867705 25 24 C24.34 24 23.68 24 23 24 Z M-28 34 C-29.60355101 37.50776784 -30.22036864 40.14354879 -30 44 C-27.70424397 41.70424397 -27.67660401 40.99157475 -27.375 37.875 C-27.25125 36.59625 -27.1275 35.3175 -27 34 C-27.33 34 -27.66 34 -28 34 Z M29 34 C29.66 37.3 30.32 40.6 31 44 C31.33 44 31.66 44 32 44 C31.88637738 42.5199159 31.75877092 41.04089926 31.625 39.5625 C31.55539063 38.73878906 31.48578125 37.91507813 31.4140625 37.06640625 C31.27742188 36.38449219 31.14078125 35.70257813 31 35 C30.34 34.67 29.68 34.34 29 34 Z M-30 46 C-29.88637738 47.4800841 -29.75877092 48.95910074 -29.625 50.4375 C-29.55539063 51.26121094 -29.48578125 52.08492187 -29.4140625 52.93359375 C-29.27742188 53.61550781 -29.14078125 54.29742187 -29 55 C-28.34 55.33 -27.68 55.66 -27 56 C-27.11362262 54.5199159 -27.24122908 53.04089926 -27.375 51.5625 C-27.44460937 50.73878906 -27.51421875 49.91507813 -27.5859375 49.06640625 C-27.72257812 48.38449219 -27.85921875 47.70257813 -28 47 C-28.66 46.67 -29.32 46.34 -30 46 Z M-26 46 C-25.34 48.64 -24.68 51.28 -24 54 C-20.37 53.01 -16.74 52.02 -13 51 C-17.95 53.475 -17.95 53.475 -23 56 C-20.07064199 62.10282919 -16.61463303 65.27962423 -11 69 C-8.9754262 67.06745228 -7.57894208 65.36841312 -6 63 C-6.66 65.31 -7.32 67.62 -8 70 C-5.36 70.66 -2.72 71.32 0 72 C-0.06014821 68.93544891 -0.14722403 65.87567069 -0.25 62.8125 C-0.26417969 61.94818359 -0.27835938 61.08386719 -0.29296875 60.19335938 C-0.4955292 54.90653165 -0.95146849 51.7974008 -5 48 C-7.29308963 46.85345518 -8.79909656 46.80270883 -11.3515625 46.68359375 C-12.62773437 46.62075195 -12.62773437 46.62075195 -13.9296875 46.55664062 C-14.81914062 46.51732422 -15.70859375 46.47800781 -16.625 46.4375 C-17.5221875 46.39431641 -18.419375 46.35113281 -19.34375 46.30664062 C-21.56231239 46.20043285 -23.78113565 46.09970041 -26 46 Z M31 46 C29.22240124 50.96920684 29.22240124 50.96920684 30 56 C32.09350689 52.5980513 32.17942163 49.94727588 32 46 C31.67 46 31.34 46 31 46 Z M15.4375 46.25 C14.34308594 46.29640625 13.24867187 46.3428125 12.12109375 46.390625 C8.4183538 47.11356296 6.69493243 48.40740678 4 51 C2.85345518 53.29308963 2.80270883 54.79909656 2.68359375 57.3515625 C2.64169922 58.20234375 2.59980469 59.053125 2.55664062 59.9296875 C2.51732422 60.81914063 2.47800781 61.70859375 2.4375 62.625 C2.39431641 63.5221875 2.35113281 64.419375 2.30664062 65.34375 C2.20043285 67.56231239 2.09970041 69.78113565 2 72 C4.64 71.34 7.28 70.68 10 70 C9.01 66.37 8.02 62.74 7 59 C8.65 62.3 10.3 65.6 12 69 C17.96747103 66.13561391 21.61221364 62.73317691 25 57 C25 56.34 25 55.68 25 55 C22.36 53.68 19.72 52.36 17 51 C19.97 51.99 22.94 52.98 26 54 C26.66 51.36 27.32 48.72 28 46 C23.80381758 45.97468367 19.62847535 46.03228699 15.4375 46.25 Z M28 57 C25.03 61.95 25.03 61.95 22 67 C25.34726719 65.88424427 25.62079748 65.48655378 27.25 62.5625 C27.8275 61.386875 28.405 60.21125 29 59 C28.67 58.34 28.34 57.68 28 57 Z M13 72 C15.99931165 73.38891928 15.99931165 73.38891928 18.6875 71.6875 C19.450625 71.130625 20.21375 70.57375 21 70 C21 69.34 21 68.68 21 68 C17.71841516 68 15.62118892 70.17656423 13 72 Z M-10 73 C-9.67 73.66 -9.34 74.32 -9 75 C-6.87423218 75.46651207 -6.87423218 75.46651207 -4.4375 75.625 C-3.61121094 75.69976562 -2.78492188 75.77453125 -1.93359375 75.8515625 C-1.29550781 75.90054688 -0.65742187 75.94953125 0 76 C-3.00617269 72.99382731 -5.82381598 73.40414684 -10 73 Z M2 75 C2 75.33 2 75.66 2 76 C6.79308342 76.46522293 6.79308342 76.46522293 10.9375 74.5 C11.288125 74.005 11.63875 73.51 12 73 C8.38970831 73 5.44193324 73.96092582 2 75 Z " fill="#E1E1E1" transform="translate(44,0)"/>
<path d="M0 0 C4.11979807 1.37326602 7.04297546 4.08595092 9 8 C5.08158173 6.69386058 2.67359191 5.16870152 0 2 C0 1.34 0 0.68 0 0 Z " fill="#E1E1E1" transform="translate(19,64)"/>
<path d="M0 0 C0 0.66 0 1.32 0 2 C-3.46153846 5 -3.46153846 5 -6 5 C-4.87312259 1.61936778 -3.78825335 0 0 0 Z " fill="#E1E1E1" transform="translate(29,17)"/>
<path d="M0 0 C0.66 0.33 1.32 0.66 2 1 C1.67 1.66 1.34 2.32 1 3 C0.34 3 -0.32 3 -1 3 C-0.67 2.01 -0.34 1.02 0 0 Z " fill="#E1E1E1" transform="translate(21,22)"/>
</svg>
