<?xml version="1.0" encoding="UTF-8"?>
<svg version="1.1" xmlns="http://www.w3.org/2000/svg" width="256" height="256">
<path d="M0 0 C1.32 0 2.64 0 4 0 C4 1.32 4 2.64 4 4 C5.32 4 6.64 4 8 4 C8.020625 4.763125 8.04125 5.52625 8.0625 6.3125 C8.371875 7.199375 8.68125 8.08625 9 9 C11.31979381 10.03101947 13.65429915 11.02936517 16 12 C17.9375 14.6875 17.9375 14.6875 19 17 C20.65 16.67 22.3 16.34 24 16 C24 17.32 24 18.64 24 20 C25.32 20 26.64 20 28 20 C28 21.32 28 22.64 28 24 C27.34 24 26.68 24 26 24 C26.99 28.455 26.99 28.455 28 33 C28.86625 31.7934375 28.86625 31.7934375 29.75 30.5625 C31.98126893 28.02133261 32.74456771 27.34879632 36 27 C36 26.01 36 25.02 36 24 C39.62420124 23.1631665 43.24948637 22.33112766 46.875 21.5 C47.90753906 21.26152344 48.94007813 21.02304687 50.00390625 20.77734375 C50.99003906 20.55175781 51.97617188 20.32617188 52.9921875 20.09375 C53.90339355 19.88427734 54.81459961 19.67480469 55.75341797 19.45898438 C58 19 58 19 60 19 C60 18.01 60 17.02 60 16 C67.92 15.505 67.92 15.505 76 15 C76 14.01 76 13.02 76 12 C80.95 11.67 85.9 11.34 91 11 C89.36768634 15.08078416 87.7416683 18.17484317 85.375 21.8125 C84.74335938 22.78832031 84.11171875 23.76414062 83.4609375 24.76953125 C82.97882813 25.50558594 82.49671875 26.24164063 82 27 C89.05651252 27.14975239 89.05651252 27.14975239 96 26 C96 25.34 96 24.68 96 24 C97.65 24 99.3 24 101 24 C100.45661721 28.93572704 98.81637911 32.79923179 96.5 37.125 C93.67153419 42.33931111 93.67153419 42.33931111 92 48 C91.34 48 90.68 48 90 48 C89.79503906 48.62648437 89.59007812 49.25296875 89.37890625 49.8984375 C89.10949219 50.71570313 88.84007812 51.53296875 88.5625 52.375 C88.29566406 53.18710938 88.02882812 53.99921875 87.75390625 54.8359375 C87 57 87 57 86 59 C96.89 59.495 96.89 59.495 108 60 C108 61.32 108 62.64 108 64 C109.32 64 110.64 64 112 64 C112.33 62.68 112.66 61.36 113 60 C113 62.64 113 65.28 113 68 C111.8553125 68.4021875 111.8553125 68.4021875 110.6875 68.8125 C108.12619116 69.94424112 106.80307062 70.91223401 105 73 C105.33 73.33 105.66 73.66 106 74 C107.65 72.35 109.3 70.7 111 69 C114.82502165 70.55834215 117.14783821 73.07215896 120 76 C119.28714844 76.70125 118.57429687 77.4025 117.83984375 78.125 C111.54380963 84.32217184 111.54380963 84.32217184 105.625 90.875 C100.46603093 96.93393665 94.66073493 102.41587652 89 108 C90.14482927 111.43448781 91.65607055 112.39591343 94.40869141 114.59423828 C96.96873439 116.85577978 98.79647961 119.622228 100.6875 122.4375 C104.73897758 128.30588949 109.01370454 133.93248347 113.50854492 139.46850586 C115.52437878 141.9797534 116.97197819 143.91593457 118 147 C116.23050388 147.50471197 114.45934777 148.00360685 112.6875 148.5 C111.20830078 148.91765625 111.20830078 148.91765625 109.69921875 149.34375 C107 150 107 150 104 150 C104 150.66 104 151.32 104 152 C103.071875 151.9484375 102.14375 151.896875 101.1875 151.84375 C95.95994166 151.84375 91.04437743 153.24568572 86 154.5 C79.88464391 156.02061946 74.32260487 157.35125583 68 157 C68 157.99 68 158.98 68 160 C66.97712891 159.70802734 66.97712891 159.70802734 65.93359375 159.41015625 C62.29603923 158.90157672 59.62338803 159.56757621 56.0625 160.4375 C51.57497065 161.5264217 47.6230867 162.17645369 43 162 C43.78512046 160.87620013 44.60525491 159.77686146 45.4375 158.6875 C45.88996094 158.07261719 46.34242188 157.45773438 46.80859375 156.82421875 C54.13294013 150.72712471 65.95723168 150.28418578 75.02880859 148.54956055 C76.97895142 148.17442398 78.92702191 147.78856367 80.875 147.40234375 C82.02742187 147.18054443 83.17984375 146.95874512 84.3671875 146.73022461 C85.23601562 146.48925049 86.10484375 146.24827637 87 146 C87.33 145.34 87.66 144.68 88 144 C89.94946289 143.58935547 89.94946289 143.58935547 92.47265625 143.3671875 C93.37177734 143.28339844 94.27089844 143.19960937 95.19726562 143.11328125 C96.14279297 143.03464844 97.08832031 142.95601562 98.0625 142.875 C99.01189453 142.78863281 99.96128906 142.70226562 100.93945312 142.61328125 C103.29235092 142.40045632 105.64568595 142.19642969 108 142 C107.01 140.02 106.02 138.04 105 136 C104.54625 136.495 104.0925 136.99 103.625 137.5 C102 139 102 139 100 139 C100 138.01 100 137.02 100 136 C87.00759981 134.68025915 74.04588183 133.60530343 61 133 C61.66 133.33 62.32 133.66 63 134 C61.43178837 137.84924674 58.94935623 140.12257929 56 143 C54.37365981 144.60280794 52.74866944 146.20698661 51.125 147.8125 C50.32320312 148.60269531 49.52140625 149.39289063 48.6953125 150.20703125 C46.60895 152.36898659 44.63821511 154.55074923 42.6796875 156.82421875 C38.35770393 161.80756305 33.66734312 166.38375541 28.9609375 171 C24.974205 174.94055413 21.18372813 178.97487419 17.54296875 183.23828125 C16 185 16 185 14.32421875 186.6015625 C12.81719084 187.93788353 12.81719084 187.93788353 12.625 190.0625 C12.41875 190.701875 12.2125 191.34125 12 192 C9.5625 193.125 9.5625 193.125 7 194 C4.84377536 195.76589761 4.84377536 195.76589761 4.6875 197.9375 C4 200 4 200 1.80078125 201.2734375 C-2.06176324 203.65453187 -4.88360513 206.89226032 -7.89453125 210.23632812 C-10.20396124 212.67261412 -11.44488488 213.93518573 -14.84375 214.33203125 C-15.5553125 214.22246094 -16.266875 214.11289063 -17 214 C-17.64894237 211.93847611 -18.2940264 209.87573742 -18.9375 207.8125 C-19.29714844 206.66394531 -19.65679687 205.51539063 -20.02734375 204.33203125 C-20.83756036 201.55646994 -21.49134307 198.84312452 -22 196 C-22.66 196 -23.32 196 -24 196 C-24.38671875 194.87722656 -24.7734375 193.75445312 -25.171875 192.59765625 C-27.83557354 184.92119769 -30.52397288 177.35372849 -34 170 C-37 163.45922747 -37 163.45922747 -37 160 C-37.99 160 -38.98 160 -40 160 C-40.05663818 159.41984131 -40.11327637 158.83968262 -40.17163086 158.24194336 C-41.52883321 148.36147297 -45.63853811 139.63751087 -49.5625 130.5625 C-50.61177354 128.11098259 -51.65783211 125.65814122 -52.70115662 123.2040863 C-53.34701035 121.68757353 -53.99678286 120.17272193 -54.65101624 118.6598053 C-56.92052191 113.36851912 -56.92052191 113.36851912 -57.46617126 110.83848572 C-57.64233475 110.23178543 -57.81849823 109.62508514 -58 109 C-58.66 108.67 -59.32 108.34 -60 108 C-60.4921875 106.25 -60.4921875 106.25 -60.875 104 C-61.74638248 99.60795122 -63.25220231 95.86861785 -65.1953125 91.84765625 C-66 90 -66 90 -66 88 C-66.66 88 -67.32 88 -68 88 C-68.37125 86.2984375 -68.37125 86.2984375 -68.75 84.5625 C-69.7610121 80.44518986 -71.3492135 76.78720574 -73.1953125 72.98046875 C-74 71 -74 71 -74 68 C-74.66 68 -75.32 68 -76 68 C-76.99 64.04 -77.98 60.08 -79 56 C-78.01 56.66 -77.02 57.32 -76 58 C-76 58.66 -76 59.32 -76 60 C-74.68 60 -73.36 60 -72 60 C-72 62.64 -72 65.28 -72 68 C-70.68 68 -69.36 68 -68 68 C-67.979375 68.9075 -67.95875 69.815 -67.9375 70.75 C-67.10215828 76.72023642 -63.59893581 82.27593105 -60 87 C-57.88956296 87.92386091 -57.88956296 87.92386091 -56 88 C-55.67 90.31 -55.34 92.62 -55 95 C-53.515 95.495 -53.515 95.495 -52 96 C-51.87625 97.051875 -51.7525 98.10375 -51.625 99.1875 C-51.08859218 102.45958771 -50.36119965 105.00536076 -49 108 C-47.35 108 -45.7 108 -44 108 C-44.2784375 109.175625 -44.2784375 109.175625 -44.5625 110.375 C-45.25962266 112.97089775 -45.25962266 112.97089775 -44 115 C-41.97536745 115.65213292 -41.97536745 115.65213292 -40 116 C-39.505 119.465 -39.505 119.465 -39 123 C-38.01 123.33 -37.02 123.66 -36 124 C-35.3046875 126.03125 -35.3046875 126.03125 -34.875 128.5 C-34.52112584 131.53930366 -34.52112584 131.53930366 -33 134 C-32.67 125.42 -32.34 116.84 -32 108 C-31.01 108 -30.02 108 -29 108 C-28.67 104.04 -28.34 100.08 -28 96 C-26.68 96 -25.36 96 -24 96 C-24 95.01 -24 94.02 -24 93 C-26.64 93 -29.28 93 -32 93 C-32 93.99 -32 94.98 -32 96 C-33.32 96 -34.64 96 -36 96 C-36.268125 95.21625 -36.53625 94.4325 -36.8125 93.625 C-37.84814432 90.71885077 -37.84814432 90.71885077 -41 89 C-43.32387947 88.60612212 -45.65793749 88.26513915 -48 88 C-48.268125 87.21625 -48.53625 86.4325 -48.8125 85.625 C-49.84814432 82.71885077 -49.84814432 82.71885077 -53 81 C-55.32387947 80.60612212 -57.65793749 80.26513915 -60 80 C-60 78.68 -60 77.36 -60 76 C-61.32 76 -62.64 76 -64 76 C-64 74.68 -64 73.36 -64 72 C-62.02 72 -60.04 72 -58 72 C-57.34 70.68 -56.68 69.36 -56 68 C-54.68 68 -53.36 68 -52 68 C-52 66.68 -52 65.36 -52 64 C-49.36 64 -46.72 64 -44 64 C-44 62.68 -44 61.36 -44 60 C-42.68 60 -41.36 60 -40 60 C-40 58.68 -40 57.36 -40 56 C-37.36 56 -34.72 56 -32 56 C-32 54.68 -32 53.36 -32 52 C-26.06 51.505 -26.06 51.505 -20 51 C-20 50.01 -20 49.02 -20 48 C-18.68 48 -17.36 48 -16 48 C-16 42.72 -16 37.44 -16 32 C-14.68 32 -13.36 32 -12 32 C-11.71125 30.948125 -11.4225 29.89625 -11.125 28.8125 C-10.22774807 25.77181289 -9.23576581 22.91287656 -8 20 C-9.32 20 -10.64 20 -12 20 C-12 18.68 -12 17.36 -12 16 C-13.32 16 -14.64 16 -16 16 C-16 14.68 -16 13.36 -16 12 C-12.04 12 -8.08 12 -4 12 C-4 9.36 -4 6.72 -4 4 C-3.01 4 -2.02 4 -1 4 C-0.67 2.68 -0.34 1.36 0 0 Z M-8 18 C-8 18.66 -8 19.32 -8 20 C-6.68 19.67 -5.36 19.34 -4 19 C-5.32 18.67 -6.64 18.34 -8 18 Z M2 24 C1.96261719 24.61488281 1.92523438 25.22976562 1.88671875 25.86328125 C1.78810547 27.07564453 1.78810547 27.07564453 1.6875 28.3125 C1.62949219 29.11300781 1.57148437 29.91351563 1.51171875 30.73828125 C0.91793306 33.36272334 0.04219706 34.30820672 -2 36 C-0.02 36 1.96 36 4 36 C4 32.37 4 28.74 4 25 C3.34 24.67 2.68 24.34 2 24 Z M79 30 C77.41974354 32.44001285 75.88787296 34.89361202 74.375 37.375 C62.0887748 57.23498583 62.0887748 57.23498583 52 63 C53.32 63.33 54.64 63.66 56 64 C56 65.32 56 66.64 56 68 C57.32 68 58.64 68 60 68 C60.1546875 69.1446875 60.1546875 69.1446875 60.3125 70.3125 C61.05539884 73.21655911 61.56993983 74.28995766 64 76 C65.32 76 66.64 76 68 76 C68 77.32 68 78.64 68 80 C67.34 80 66.68 80 66 80 C66.33 81.32 66.66 82.64 67 84 C70.96 84 74.92 84 79 84 C79.33 82.68 79.66 81.36 80 80 C81.98 79.505 81.98 79.505 84 79 C84 78.01 84 77.02 84 76 C85.32 76 86.64 76 88 76 C88 74.68 88 73.36 88 72 C89.32 72 90.64 72 92 72 C92 70.68 92 69.36 92 68 C93.175625 68.0928125 93.175625 68.0928125 94.375 68.1875 C95.24125 68.125625 96.1075 68.06375 97 68 C97.66 67.01 98.32 66.02 99 65 C95.37 65 91.74 65 88 65 C88 65.99 88 66.98 88 68 C86.68 68 85.36 68 84 68 C83.67 66.68 83.34 65.36 83 64 C80.69 64 78.38 64 76 64 C76 61.36 76 58.72 76 56 C77.32 56 78.64 56 80 56 C80 53.36 80 50.72 80 48 C81.32 48 82.64 48 84 48 C84 45.36 84 42.72 84 40 C85.32 40 86.64 40 88 40 C88 37.36 88 34.72 88 32 C86.68 32.33 85.36 32.66 84 33 C84 33.99 84 34.98 84 36 C82.68 36 81.36 36 80 36 C80 34.02 80 32.04 80 30 C79.67 30 79.34 30 79 30 Z M26 34 C27 36 27 36 27 36 Z M50 34 C49.34 34.66 48.68 35.32 48 36 C49.32 36 50.64 36 52 36 C52 35.34 52 34.68 52 34 C51.34 34 50.68 34 50 34 Z M40 35 C39.87625 35.53625 39.7525 36.0725 39.625 36.625 C38.87769025 39.46477704 37.94615939 42.22065679 37 45 C36.67 45.99 36.34 46.98 36 48 C37.32 47.34 38.64 46.68 40 46 C40 45.34 40 44.68 40 44 C42.64 44 45.28 44 48 44 C48 41.36 48 38.72 48 36 C45.36 35.67 42.72 35.34 40 35 Z M-25 61 C-26.0064275 62.66279327 -27.00585407 64.32983484 -28 66 C-28.66 66.66 -29.32 67.32 -30 68 C-29.34 68 -28.68 68 -28 68 C-28 69.32 -28 70.64 -28 72 C-28.66 72 -29.32 72 -30 72 C-29.67 74.97 -29.34 77.94 -29 81 C-28.67 81 -28.34 81 -28 81 C-28 79.35 -28 77.7 -28 76 C-27.34 76 -26.68 76 -26 76 C-23.97441119 72.65060119 -23.78261013 70.13037449 -23.875 66.25 C-23.89304687 65.26515625 -23.91109375 64.2803125 -23.9296875 63.265625 C-23.95289063 62.51796875 -23.97609375 61.7703125 -24 61 C-24.33 61 -24.66 61 -25 61 Z M-38 71 C-36.02 71 -34.04 71 -32 71 C-32 70.34 -32 69.68 -32 69 C-35.18490007 68.7226499 -35.18490007 68.7226499 -38 71 Z M16 70 C15.34 71.65 14.68 73.3 14 75 C14.99 75.495 14.99 75.495 16 76 C16 74.68 16 73.36 16 72 C17.32 71.67 18.64 71.34 20 71 C18.68 70.67 17.36 70.34 16 70 Z M99 78 C98.67 78.66 98.34 79.32 98 80 C98.66 80 99.32 80 100 80 C99.67 79.34 99.34 78.68 99 78 Z M40.25 81.5 C37.46373189 82.11917069 34.84507877 82.06466088 32 82 C32 82.66 32 83.32 32 84 C33.32 84 34.64 84 36 84 C36 86.64 36 89.28 36 92 C37.423125 91.9690625 37.423125 91.9690625 38.875 91.9375 C42 92 42 92 44 93 C45.67654729 92.72057545 47.34608154 92.39171753 49 92 C48.34 90.68 47.68 89.36 47 88 C46.01 88 45.02 88 44 88 C44 85.69 44 83.38 44 81 C42.01717007 80.90842629 42.01717007 80.90842629 40.25 81.5 Z M95 82 C89.81580806 86.32893185 85.27293882 90.76564995 81 96 C84.81615332 95.44507838 86.46394893 93.8312837 89.0625 91.0625 C91.33937714 88.65451669 93.22254228 86.85163848 96 85 C95.67 84.01 95.34 83.02 95 82 Z M69 88 C69.66 89.32 70.32 90.64 71 92 C71.33 90.68 71.66 89.36 72 88 C71.01 88 70.02 88 69 88 Z M35 92 C34.34 93.32 33.68 94.64 33 96 C33.99 95.67 34.98 95.34 36 95 C35.67 94.01 35.34 93.02 35 92 Z M72 92 C72.57634139 96.75481646 74.55068521 99.97048212 77 104 C77.99 104 78.98 104 80 104 C80.4273141 99.84976805 80.4273141 99.84976805 78.625 96.3125 C78.08875 95.879375 77.5525 95.44625 77 95 C76.34 94.01 75.68 93.02 75 92 C74.01 92 73.02 92 72 92 Z M-3 96 C-4.0260734 97.31337396 -5.02727325 98.64664105 -6 100 C-5.01 100 -4.02 100 -3 100 C-2.67 98.68 -2.34 97.36 -2 96 C-2.33 96 -2.66 96 -3 96 Z M-9 101 C-11.64 101.66 -14.28 102.32 -17 103 C-16.33484375 103.36738281 -15.6696875 103.73476562 -14.984375 104.11328125 C-13 106 -13 106 -12.828125 108.91796875 C-12.96734375 109.99691406 -13.1065625 111.07585937 -13.25 112.1875 C-13.37890625 113.27417969 -13.5078125 114.36085938 -13.640625 115.48046875 C-13.75921875 116.31191406 -13.8778125 117.14335937 -14 118 C-13.34 117.34 -12.68 116.68 -12 116 C-12 114.68 -12 113.36 -12 112 C-10.68 111.34 -9.36 110.68 -8 110 C-8 109.34 -8 108.68 -8 108 C-6.68 108 -5.36 108 -4 108 C-4 106.68 -4 105.36 -4 104 C-5.32 104 -6.64 104 -8 104 C-8.33 103.01 -8.66 102.02 -9 101 Z M15 108 C14.52820313 108.99580078 14.52820313 108.99580078 14.046875 110.01171875 C13.61890625 110.89472656 13.1909375 111.77773437 12.75 112.6875 C12.12351562 113.99267578 12.12351562 113.99267578 11.484375 115.32421875 C8.73518093 120.2800028 5.37097059 123.70732353 0.9375 127.1875 C-3.19799183 130.50926972 -7.24187221 133.89439485 -11.1875 137.4375 C-12.10917969 138.26121094 -13.03085938 139.08492187 -13.98046875 139.93359375 C-16.23298289 141.75682658 -16.23298289 141.75682658 -16 144 C-16.66 144.185625 -17.32 144.37125 -18 144.5625 C-21.67197679 146.32198888 -24.24951032 148.69983645 -27.23046875 151.44140625 C-29 153 -29 153 -31 154 C-31 152.02 -31 150.04 -31 148 C-31.99 148 -32.98 148 -34 148 C-33.34 152.95 -32.68 157.9 -32 163 C-30.68 162.34 -29.36 161.68 -28 161 C-28 159.35 -28 157.7 -28 156 C-24.04 156 -20.08 156 -16 156 C-16 158.64 -16 161.28 -16 164 C-14.68 164 -13.36 164 -12 164 C-12 162.68 -12 161.36 -12 160 C-10.4221875 160.1546875 -10.4221875 160.1546875 -8.8125 160.3125 C-4.87994065 160.3434592 -4.87994065 160.3434592 -2.0625 157.6875 C0.30440939 155.16796326 0.30440939 155.16796326 0 152 C1.98 151.505 1.98 151.505 4 151 C4 150.01 4 149.02 4 148 C5.32 148 6.64 148 8 148 C8 146.68 8 145.36 8 144 C9.32 144 10.64 144 12 144 C12 142.68 12 141.36 12 140 C13.32 140 14.64 140 16 140 C16 138.68 16 137.36 16 136 C17.32 136 18.64 136 20 136 C20 134.68 20 133.36 20 132 C21.32 132 22.64 132 24 132 C24 130.68 24 129.36 24 128 C25.32 128 26.64 128 28 128 C28 126.68 28 125.36 28 124 C29.98 124.33 31.96 124.66 34 125 C34 124.34 34 123.68 34 123 C34.66 123 35.32 123 36 123 C36 122.01 36 121.02 36 120 C37.32 120 38.64 120 40 120 C40 121.32 40 122.64 40 124 C54.09181861 125.75523112 54.09181861 125.75523112 68 124 C68 124.66 68 125.32 68 126 C71.06203674 126.33768172 74.12469458 126.66936893 77.1875 127 C78.05181641 127.09539062 78.91613281 127.19078125 79.80664062 127.2890625 C83.88792925 127.72690189 87.88788502 128.13621913 92 128 C91.52697604 123.03324843 90.20706202 119.84847443 87 116 C85.68 116 84.36 116 83 116 C83 116.66 83 117.32 83 118 C79.37 118 75.74 118 72 118 C72 118.66 72 119.32 72 120 C70.68 120 69.36 120 68 120 C68 119.34 68 118.68 68 118 C54.8 116.68 41.6 115.36 28 114 C28 114.66 28 115.32 28 116 C26.68 116 25.36 116 24 116 C24 114.68 24 113.36 24 112 C22.68 112 21.36 112 20 112 C20 110.68 20 109.36 20 108 C18.35 108 16.7 108 15 108 Z M79 108 C79.66 109.32 80.32 110.64 81 112 C82.32 111.67 83.64 111.34 85 111 C84.34 110.01 83.68 109.02 83 108 C81.68 108 80.36 108 79 108 Z M-15 118 C-14 120 -14 120 -14 120 Z M96 122 C97 124 97 124 97 124 Z M42.3125 132.0625 C40.96478516 133.29806641 40.96478516 133.29806641 39.58984375 134.55859375 C36.91253404 137.08245283 34.31481256 139.66724353 31.73828125 142.29296875 C28.62827864 145.3470612 25.31257728 148.16925215 22 151 C23.485 151.99 23.485 151.99 25 153 C26.54166642 151.62514468 26.54166642 151.62514468 28 150 C28 149.34 28 148.68 28 148 C29.32 147.34 30.64 146.68 32 146 C32 145.34 32 144.68 32 144 C33.32 143.34 34.64 142.68 36 142 C36 141.34 36 140.68 36 140 C36.5775 139.731875 37.155 139.46375 37.75 139.1875 C40.07363365 137.9611378 42.03824646 136.75156566 44 135 C44 134.01 44 133.02 44 132 C44.639375 131.896875 45.27875 131.79375 45.9375 131.6875 C46.618125 131.460625 47.29875 131.23375 48 131 C48.33 130.01 48.66 129.02 49 128 C45.8627093 128 44.58010983 129.98241074 42.3125 132.0625 Z M99 128 C100 130 100 130 100 130 Z M-37 141 C-36 143 -36 143 -36 143 Z M11 162 C10.67 162.66 10.34 163.32 10 164 C10.66 164 11.32 164 12 164 C11.67 163.34 11.34 162.68 11 162 Z M-26 164 C-24.68938409 168.23429756 -23.05643741 172.07407404 -21 176 C-20.34 175.67 -19.68 175.34 -19 175 C-20.98 171.37 -22.96 167.74 -25 164 C-25.33 164 -25.66 164 -26 164 Z M7 166 C6.34 166.66 5.68 167.32 5 168 C5.99 168 6.98 168 8 168 C7.67 167.34 7.34 166.68 7 166 Z M-15 172 C-15 175.3 -15 178.6 -15 182 C-15.66 182 -16.32 182 -17 182 C-17 181.34 -17 180.68 -17 180 C-17.99 180.495 -17.99 180.495 -19 181 C-17.68 184.63 -16.36 188.26 -15 192 C-14.401875 191.21625 -13.80375 190.4325 -13.1875 189.625 C-11 187 -11 187 -8 185 C-8.33 183.68 -8.66 182.36 -9 181 C-10.65 182.32 -12.3 183.64 -14 185 C-14 180.71 -14 176.42 -14 172 C-14.33 172 -14.66 172 -15 172 Z M-1 173 C-1.99 174.485 -1.99 174.485 -3 176 C-2.01 176 -1.02 176 0 176 C-0.33 175.01 -0.66 174.02 -1 173 Z M-5 177 C-5.99 178.485 -5.99 178.485 -7 180 C-6.01 180 -5.02 180 -4 180 C-4.33 179.01 -4.66 178.02 -5 177 Z " fill="#FEFEFE" transform="translate(96,20)"/>
<path d="M0 0 C1.32 0.66 2.64 1.32 4 2 C4 3.32 4 4.64 4 6 C3.01 6 2.02 6 1 6 C0.90468994 6.63897217 0.80937988 7.27794434 0.71118164 7.9362793 C-0.26145529 12.12633108 -1.81668333 16.01767321 -3.37890625 20.01953125 C-3.71043198 20.87810226 -4.0419577 21.73667328 -4.38352966 22.6212616 C-5.43940909 25.35315393 -6.50087111 28.08283749 -7.5625 30.8125 C-8.2809687 32.6684767 -8.99907185 34.52459496 -9.71679688 36.38085938 C-11.47363287 40.92222411 -13.23547754 45.46161658 -15 50 C-11.24120545 51.07828618 -8.7335098 50.75896533 -4.87890625 49.96875 C-3.10483398 49.61876953 -3.10483398 49.61876953 -1.29492188 49.26171875 C1.18960943 48.75467154 3.67398514 48.24686131 6.15820312 47.73828125 C7.93420898 47.38830078 7.93420898 47.38830078 9.74609375 47.03125 C10.82560303 46.81017578 11.9051123 46.58910156 13.01733398 46.36132812 C15.99339839 46.00079974 18.12270477 46.22996799 21 47 C21.495 49.97 21.495 49.97 22 53 C13.23491356 55.25962608 4.4294666 57.28564928 -4.41235352 59.21704102 C-6.59146357 59.69383732 -8.76936257 60.1759271 -10.94726562 60.65820312 C-12.3410759 60.96386073 -13.73495362 61.269211 -15.12890625 61.57421875 C-16.37744385 61.84838623 -17.62598145 62.12255371 -18.91235352 62.4050293 C-22 63 -22 63 -25 63 C-23.2799942 52.92039613 -18.37179781 43.39228787 -14.234375 34.09375 C-13.14384358 31.36051934 -12.45400908 28.89701032 -12 26 C-11.34 26 -10.68 26 -10 26 C-9.75507813 25.22398437 -9.51015625 24.44796875 -9.2578125 23.6484375 C-7.62318249 18.90699517 -5.75214941 14.27475879 -3.875 9.625 C-3.50246094 8.69816406 -3.12992188 7.77132812 -2.74609375 6.81640625 C-1.83229861 4.54363371 -0.91689293 2.27152417 0 0 Z " fill="#FCFCFC" transform="translate(40,146)"/>
<path d="M0 0 C-1.34950291 3.04860081 -2.81392509 5.01123919 -5.2734375 7.25 C-6.25473633 8.15395508 -6.25473633 8.15395508 -7.25585938 9.07617188 C-7.95517578 9.71103516 -8.65449219 10.34589844 -9.375 11 C-14.52021937 15.73840957 -19.5932903 20.51453865 -24.5 25.5 C-28.82340444 29.88286757 -33.27386254 34.05228518 -38 38 C-38.99 37.34 -39.98 36.68 -41 36 C-40.75989495 32.75858184 -39.89753271 31.90752952 -37.4375 29.6875 C-36.90511719 29.275 -36.37273437 28.8625 -35.82421875 28.4375 C-33.00525615 26.21613333 -30.38938939 23.76865043 -27.734375 21.35546875 C-26 20 -26 20 -24 20 C-24 18.68 -24 17.36 -24 16 C-22.68 16 -21.36 16 -20 16 C-20 14.68 -20 13.36 -20 12 C-18.27473958 11.31640625 -16.54947917 10.6328125 -14.82421875 9.94921875 C-12.81056259 8.90142764 -11.52061292 7.67033481 -10 6 C-11.258125 6.268125 -12.51625 6.53625 -13.8125 6.8125 C-18.81372343 7.81837194 -23.83344697 8.60698916 -28.875 9.375 C-36.83221098 10.5903412 -44.7112311 12.07948147 -52.58935547 13.72998047 C-53.38486816 13.8951416 -54.18038086 14.06030273 -55 14.23046875 C-55.70125 14.37895264 -56.4025 14.52743652 -57.125 14.68041992 C-59 15 -59 15 -62 15 C-62 14.34 -62 13.68 -62 13 C-34.63959391 6 -34.63959391 6 -28 6 C-28 5.34 -28 4.68 -28 4 C-27.39003174 3.91435791 -26.78006348 3.82871582 -26.15161133 3.74047852 C-23.37169549 3.34930936 -20.59209736 2.95592556 -17.8125 2.5625 C-16.85279297 2.42779297 -15.89308594 2.29308594 -14.90429688 2.15429688 C-13.97294922 2.02216797 -13.04160156 1.89003906 -12.08203125 1.75390625 C-11.22843018 1.63345947 -10.3748291 1.5130127 -9.49536133 1.38891602 C-7.75907173 1.11830557 -6.02943451 0.80278926 -4.30737305 0.45288086 C-2 0 -2 0 0 0 Z " fill="#FCFCFC" transform="translate(256,56)"/>
<path d="M0 0 C0.66 0 1.32 0 2 0 C0.54546465 5.42613895 -0.93355445 10.82986705 -2.625 16.1875 C-3.93261521 20.46634557 -4.58783492 24.54861714 -5 29 C-5.66 29 -6.32 29 -7 29 C-7.33 30.65 -7.66 32.3 -8 34 C-15.06608191 34.13794954 -21.97360585 33.74805717 -29 33 C-29 31.68 -29 30.36 -29 29 C-27.68 29 -26.36 29 -25 29 C-25 27.68 -25 26.36 -25 25 C-23.36769988 23.94483457 -21.69303263 22.95468229 -20 22 C-18.27779585 20.26165018 -16.61314962 18.46499878 -15 16.625 C-11.76882611 12.95963711 -8.45449823 9.45449823 -5 6 C-4.08579983 4.91099153 -3.18544095 3.80985265 -2.3125 2.6875 C-1.549375 1.800625 -0.78625 0.91375 0 0 Z M-10.0234375 14.79296875 C-17.29192454 21.0242649 -17.29192454 21.0242649 -21 29 C-17.7 29.33 -14.4 29.66 -11 30 C-9.24252386 25.49646738 -8.80705592 21.82360189 -9 17 C-8.34 17 -7.68 17 -7 17 C-6.67 15.68 -6.34 14.36 -6 13 C-8.20110558 12.77893428 -8.20110558 12.77893428 -10.0234375 14.79296875 Z " fill="#FCFCFC" transform="translate(169,183)"/>
<path d="M0 0 C-0.99 6.93 -1.98 13.86 -3 21 C-3.66 21 -4.32 21 -5 21 C-6.32 27.6 -7.64 34.2 -9 41 C-10.485 41.495 -10.485 41.495 -12 42 C-12.33 39.03 -12.66 36.06 -13 33 C-13.66 33 -14.32 33 -15 33 C-15.48173829 30.33377553 -15.96044625 27.66706329 -16.4375 25 C-16.57220703 24.25621094 -16.70691406 23.51242188 -16.84570312 22.74609375 C-17.71983371 17.84243436 -18.42093462 12.94735474 -19 8 C-17.37750059 7.16180842 -15.75191503 6.3295884 -14.125 5.5 C-12.76761719 4.80390625 -12.76761719 4.80390625 -11.3828125 4.09375 C-9 3 -9 3 -7 3 C-7 2.34 -7 1.68 -7 1 C-4.50935112 0.31292445 -2.62113708 0 0 0 Z M-11.625 7 C-13.8125 8 -13.8125 8 -16 9 C-15.38885413 12.14869113 -14.75878556 15.29329435 -14.125 18.4375 C-13.95097656 19.33533203 -13.77695313 20.23316406 -13.59765625 21.15820312 C-13.33662109 22.43920898 -13.33662109 22.43920898 -13.0703125 23.74609375 C-12.91320801 24.53685303 -12.75610352 25.3276123 -12.59423828 26.14233398 C-12.39813965 26.75536377 -12.20204102 27.36839355 -12 28 C-11.34 28.33 -10.68 28.66 -10 29 C-9.16114623 25.56382292 -8.32987081 22.12585663 -7.5 18.6875 C-7.26152344 17.71103516 -7.02304688 16.73457031 -6.77734375 15.72851562 C-6.43896484 14.32182617 -6.43896484 14.32182617 -6.09375 12.88671875 C-5.88427734 12.02264404 -5.67480469 11.15856934 -5.45898438 10.26831055 C-4.90083653 7.89564564 -4.90083653 7.89564564 -5 5 C-7.60526888 5 -9.26036729 5.91902505 -11.625 7 Z " fill="#FCFCFC" transform="translate(19,107)"/>
<path d="M0 0 C5.29284165 -0.34707158 5.29284165 -0.34707158 8 0 C10 1.8125 10 1.8125 11 4 C11 4.99 11 5.98 11 7 C15.40914783 8.10228696 19.48382401 8.07654536 24 8 C24 8.99 24 9.98 24 11 C25.32 11.66 26.64 12.32 28 13 C23.89552934 14.36815689 20.9415832 13.29015608 16.7890625 12.375 C13.85910996 11.9810568 11.84372931 12.26875532 9 13 C7.33333333 13.33333333 5.66666667 13.66666667 4 14 C4 14.66 4 15.32 4 16 C2.68 16 1.36 16 0 16 C0 14.68 0 13.36 0 12 C-1.32 12 -2.64 12 -4 12 C-4 9.36 -4 6.72 -4 4 C-2.68 4 -1.36 4 0 4 C0 2.68 0 1.36 0 0 Z " fill="#FEFEFE" transform="translate(40,52)"/>
<path d="M0 0 C1.32 0 2.64 0 4 0 C4 0.66 4 1.32 4 2 C4.78375 2.226875 5.5675 2.45375 6.375 2.6875 C9 4 9 4 10.25 6.5 C10.4975 7.325 10.745 8.15 11 9 C11.33 9.66 11.66 10.32 12 11 C14.02463255 11.65213292 14.02463255 11.65213292 16 12 C16 13.32 16 14.64 16 16 C17.32 16 18.64 16 20 16 C20.66 17.98 21.32 19.96 22 22 C18.7 21.34 15.4 20.68 12 20 C11.67 18.68 11.34 17.36 11 16 C10.01 15.896875 9.02 15.79375 8 15.6875 C3.71702837 15.09191294 0.00003629 13.61404973 -4 12 C-4 9.36 -4 6.72 -4 4 C-2.68 4 -1.36 4 0 4 C0 2.68 0 1.36 0 0 Z " fill="#FEFEFE" transform="translate(36,32)"/>
<path d="M0 0 C0.07476562 0.82242188 0.14953125 1.64484375 0.2265625 2.4921875 C1.08445953 9.77590147 2.56115601 14.93257396 6.7578125 20.9765625 C8 23 8 23 8 26 C7.236875 25.195625 6.47375 24.39125 5.6875 23.5625 C3.20569102 20.83200976 3.20569102 20.83200976 0 20 C-1.125 17.5 -1.125 17.5 -2 15 C-2.33 14.67 -2.66 14.34 -3 14 C-3.33 14.66 -3.66 15.32 -4 16 C-5.32 16 -6.64 16 -8 16 C-8 14.68 -8 13.36 -8 12 C-9.32 12 -10.64 12 -12 12 C-12 9.36 -12 6.72 -12 4 C-10.75539217 3.32332002 -9.50403104 2.65905281 -8.25 2 C-7.55390625 1.62875 -6.8578125 1.2575 -6.140625 0.875 C-4 0 -4 0 0 0 Z " fill="#FEFEFE" transform="translate(64,32)"/>
<path d="M0 0 C0.66 0 1.32 0 2 0 C2 10.89 2 21.78 2 33 C1.34 33 0.68 33 0 33 C0 22.11 0 11.22 0 0 Z " fill="#FFFFFF" transform="translate(216,0)"/>
<path d="M0 0 C3.63 0.33 7.26 0.66 11 1 C11 2.32 11 3.64 11 5 C8.03 5.66 5.06 6.32 2 7 C2 6.34 2 5.68 2 5 C1.01 5 0.02 5 -1 5 C-0.67 3.35 -0.34 1.7 0 0 Z " fill="#FEFEFE" transform="translate(77,23)"/>
<path d="M0 0 C5.28 0 10.56 0 16 0 C16 0.33 16 0.66 16 1 C10.72 1 5.44 1 0 1 C0 0.67 0 0.34 0 0 Z " fill="#FFFFFF" transform="translate(0,80)"/>
<path d="M0 0 C1.32 0.33 2.64 0.66 4 1 C2.02 1.99 2.02 1.99 0 3 C0 2.01 0 1.02 0 0 Z " fill="#FEFEFE" transform="translate(204,52)"/>
<path d="M0 0 C0.99 0.33 1.98 0.66 3 1 C2.01 1.33 1.02 1.66 0 2 C0 1.34 0 0.68 0 0 Z " fill="#FFFFFF" transform="translate(200,56)"/>
<path d="M0 0 C0.99 0.495 0.99 0.495 2 1 C1.01 1.495 1.01 1.495 0 2 C0 1.34 0 0.68 0 0 Z " fill="#FEFEFE" transform="translate(192,64)"/>
<path d="M0 0 C2 1 2 1 2 1 Z " fill="#FFFFFF" transform="translate(196,60)"/>
</svg>
