<?xml version="1.0" encoding="UTF-8"?>
<svg version="1.1" xmlns="http://www.w3.org/2000/svg" width="256" height="256">
<path d="M0 0 C1.32 0 2.64 0 4 0 C4 6.6 4 13.2 4 20 C5.32 20 6.64 20 8 20 C8 21.32 8 22.64 8 24 C7.34 24.33 6.68 24.66 6 25 C6.99 26.485 6.99 26.485 8 28 C8.99 28 9.98 28 11 28 C11.99 25.03 12.98 22.06 14 19 C14.66 19 15.32 19 16 19 C15.98839844 19.81082031 15.97679688 20.62164063 15.96484375 21.45703125 C15.90577458 28.70566174 16.19157121 35.79632201 17 43 C18.485 43.495 18.485 43.495 20 44 C19.77828125 44.73734375 19.5565625 45.4746875 19.328125 46.234375 C18.91445543 49.72101852 19.67025967 50.49681994 21.75 53.25 C26.28303141 60.18659226 26.93491484 67.94646131 28 76 C28.99 75.67 29.98 75.34 31 75 C31.495 73.515 31.495 73.515 32 72 C32.99 71.67 33.98 71.34 35 71 C35.33 67.37 35.66 63.74 36 60 C37.32 60 38.64 60 40 60 C40.99 62.475 40.99 62.475 42 65 C42.66 63.35 43.32 61.7 44 60 C44.99 60 45.98 60 47 60 C47.02693575 57.87506859 47.04636628 55.75004088 47.0625 53.625 C47.07410156 52.44164062 47.08570312 51.25828125 47.09765625 50.0390625 C47.21466593 47.08078479 47.21466593 47.08078479 46 45 C46.66 45 47.32 45 48 45 C48 42.03 48 39.06 48 36 C46.68 36 45.36 36 44 36 C44 33.36 44 30.72 44 28 C46.31 28 48.62 28 51 28 C51 26.68 51 25.36 51 24 C50.01 24 49.02 24 48 24 C48 22.68 48 21.36 48 20 C49.32 20 50.64 20 52 20 C52 17.36 52 14.72 52 12 C52.99 11.67 53.98 11.34 55 11 C55.33 8.69 55.66 6.38 56 4 C58.64 4 61.28 4 64 4 C64 2.68 64 1.36 64 0 C65.32 0 66.64 0 68 0 C68 4 68 4 66.1875 5.875 C65.465625 6.57625 64.74375 7.2775 64 8 C60.54777352 14.00943129 59.8681498 18.94682986 59.9375 25.8125 C59.94652344 26.97394531 59.95554687 28.13539062 59.96484375 29.33203125 C59.97644531 30.21246094 59.98804687 31.09289062 60 32 C61.32 32 62.64 32 64 32 C63.814375 32.763125 63.62875 33.52625 63.4375 34.3125 C62.77180827 37.08967375 62.77180827 37.08967375 64 40 C65.32 40 66.64 40 68 40 C68 41.98 68 43.96 68 46 C69.32 46.66 70.64 47.32 72 48 C72 49.32 72 50.64 72 52 C72.99 52 73.98 52 75 52 C75.33 49.36 75.66 46.72 76 44 C78.64 44 81.28 44 84 44 C84 45.32 84 46.64 84 48 C83.01 48 82.02 48 81 48 C80.63427363 50.20644836 80.28291166 52.41528035 79.9375 54.625 C79.74027344 55.85476562 79.54304687 57.08453125 79.33984375 58.3515625 C79.01436985 61.84573059 79.24989732 64.59044235 80 68 C81.32 68 82.64 68 84 68 C84 69.32 84 70.64 84 72 C85.32 72 86.64 72 88 72 C88.66 73.98 89.32 75.96 90 78 C91.09315246 73.4161086 91.32282625 68.87488993 91.5625 64.1875 C91.62727539 63.00510742 91.62727539 63.00510742 91.69335938 61.79882812 C91.79878321 59.86605785 91.89983094 57.93304974 92 56 C93.32 56 94.64 56 96 56 C96 53.36 96 50.72 96 48 C97.32 48 98.64 48 100 48 C100 45.36 100 42.72 100 40 C100.99 40 101.98 40 103 40 C103 38.68 103 37.36 103 36 C102.01 36 101.02 36 100 36 C100 33.36 100 30.72 100 28 C100.99 28 101.98 28 103 28 C103 26.68 103 25.36 103 24 C102.01 24 101.02 24 100 24 C100 22.68 100 21.36 100 20 C103.05263664 19.01879536 104.94736336 19.01879536 108 20 C108 22.64 108 25.28 108 28 C109.32 28 110.64 28 112 28 C112 18.76 112 9.52 112 0 C113.32 0 114.64 0 116 0 C116 1.32 116 2.64 116 4 C117.32 4 118.64 4 120 4 C120 5.32 120 6.64 120 8 C119.34 8 118.68 8 118 8 C118.33 8.99 118.66 9.98 119 11 C119.79761716 22.65748163 118.48152795 34.01244982 112 44 C110.33333333 45.66666667 108.66666667 47.33333333 107 49 C102.13959744 55.52037611 101.32602842 60.98722681 102 69 C104.97 68.505 104.97 68.505 108 68 C108 69.32 108 70.64 108 72 C108.99 71.67 109.98 71.34 111 71 C111.33 70.01 111.66 69.02 112 68 C113.32 68 114.64 68 116 68 C116 66.68 116 65.36 116 64 C118.64 64 121.28 64 124 64 C124 65.32 124 66.64 124 68 C125.32 68 126.64 68 128 68 C128 69.32 128 70.64 128 72 C126.68 72 125.36 72 124 72 C124 71.34 124 70.68 124 70 C120.59687262 71.05875074 117.98646769 72.00902154 115 74 C113.97327999 77.33227362 113.97327999 77.33227362 113.3125 81.125 C113.06113281 82.40632813 112.80976563 83.68765625 112.55078125 85.0078125 C112.27814453 86.48894531 112.27814453 86.48894531 112 88 C113.32 88 114.64 88 116 88 C116 86.68 116 85.36 116 84 C117.32 84 118.64 84 120 84 C120 82.68 120 81.36 120 80 C122.64 79.67 125.28 79.34 128 79 C128 78.01 128 77.02 128 76 C130.64 75.67 133.28 75.34 136 75 C136 74.01 136 73.02 136 72 C137.32 72 138.64 72 140 72 C140 70.68 140 69.36 140 68 C141.32 68 142.64 68 144 68 C144 61.4 144 54.8 144 48 C142.68 48 141.36 48 140 48 C140 45.36 140 42.72 140 40 C141.32 40 142.64 40 144 40 C144.5775 41.134375 145.155 42.26875 145.75 43.4375 C147.35492635 46.37310297 147.35492635 46.37310297 150.25 47.9375 C150.8275 47.958125 151.405 47.97875 152 48 C152 49.32 152 50.64 152 52 C151.34 52 150.68 52 150 52 C150.33 52.61875 150.66 53.2375 151 53.875 C152.72421226 59.26316331 152.90683845 64.70903971 150.8125 70 C148.7127547 72.31696033 146.97366555 73.11593727 144 74 C144 74.66 144 75.32 144 76 C143.030625 76.37125 142.06125 76.7425 141.0625 77.125 C133.09716748 80.58468988 125.75647219 85.60262086 121 93 C120.21400674 95.48976309 120.05498426 97.36075534 120 100 C125.94 99.505 125.94 99.505 132 99 C132 98.01 132 97.02 132 96 C139.92 96 147.84 96 156 96 C156.33 96.99 156.66 97.98 157 99 C160.63 99.33 164.26 99.66 168 100 C168 101.32 168 102.64 168 104 C170.64 104 173.28 104 176 104 C176 105.32 176 106.64 176 108 C177.32 108 178.64 108 180 108 C180 109.32 180 110.64 180 112 C181.32 112 182.64 112 184 112 C183.938125 112.886875 183.87625 113.77375 183.8125 114.6875 C184.02292814 118.40506374 184.98703711 119.94029641 187 123 C187.97914382 126.04047795 188.11706326 128.80162564 188.09765625 131.984375 C188.09443359 132.91894531 188.09121094 133.85351562 188.08789062 134.81640625 C188.07951172 135.78449219 188.07113281 136.75257813 188.0625 137.75 C188.05798828 138.73355469 188.05347656 139.71710938 188.04882812 140.73046875 C188.03706483 143.15370791 188.02062684 145.57682273 188 148 C187.01 148 186.02 148 185 148 C184.67 150.64 184.34 153.28 184 156 C182.68 156 181.36 156 180 156 C180 157.32 180 158.64 180 160 C178.68 160 177.36 160 176 160 C176 161.32 176 162.64 176 164 C175.27167969 163.9484375 174.54335937 163.896875 173.79296875 163.84375 C170.59423843 164.02269995 169.0241817 164.84260541 166.3125 166.5 C162.18055556 169 162.18055556 169 160 169 C160 169.99 160 170.98 160 172 C159.14728516 171.98259766 159.14728516 171.98259766 158.27734375 171.96484375 C154.66627925 171.92264433 151.26667362 171.95974738 147.6875 172.5 C138.78557054 173.70704128 130.27989874 172.91364248 121.4375 171.625 C120.55618408 171.49899414 119.67486816 171.37298828 118.7668457 171.24316406 C117.93499756 171.11393555 117.10314941 170.98470703 116.24609375 170.8515625 C115.12738892 170.67874756 115.12738892 170.67874756 113.98608398 170.50244141 C112 170 112 170 109 168 C105.79620876 167.75753217 105.79620876 167.75753217 102.3125 167.875 C101.13300781 167.89304688 99.95351562 167.91109375 98.73828125 167.9296875 C97.83464844 167.95289063 96.93101562 167.97609375 96 168 C96 166.68 96 165.36 96 164 C95.01 164 94.02 164 93 164 C93 163.01 93 162.02 93 161 C92.01 161 91.02 161 90 161 C90.66 159.35 91.32 157.7 92 156 C93.65 156 95.3 156 97 156 C97.33 155.01 97.66 154.02 98 153 C98.66 153 99.32 153 100 153 C99.67 152.01 99.34 151.02 99 150 C97.41419086 151.24685757 95.8314596 152.49763026 94.25 153.75 C93.36828125 154.44609375 92.4865625 155.1421875 91.578125 155.859375 C89.01800829 157.91598817 89.01800829 157.91598817 86.93359375 160.078125 C84.42438285 162.57212856 81.62110323 164.44792952 78.70703125 166.4375 C76.7343842 168.24312659 76.37644248 169.39299537 76 172 C74.02 172 72.04 172 70 172 C70.03480469 172.56847656 70.06960937 173.13695312 70.10546875 173.72265625 C70.30177282 179.32199626 69.67863939 183.05481958 67 188 C66.34 188.33 65.68 188.66 65 189 C64.67 189.99 64.34 190.98 64 192 C58.25 193.125 58.25 193.125 56 192 C56 192.99 56 193.98 56 195 C56.69867188 195.13277344 57.39734375 195.26554688 58.1171875 195.40234375 C59.02726562 195.57894531 59.93734375 195.75554687 60.875 195.9375 C61.77992188 196.11152344 62.68484375 196.28554687 63.6171875 196.46484375 C66 197 66 197 68 198 C68 197.34 68 196.68 68 196 C69.32 196 70.64 196 72 196 C72 196.99 72 197.98 72 199 C81.24 199.33 90.48 199.66 100 200 C100 198.68 100 197.36 100 196 C103.96 196 107.92 196 112 196 C112 194.68 112 193.36 112 192 C114.64 192 117.28 192 120 192 C120 190.68 120 189.36 120 188 C122.31 187.67 124.62 187.34 127 187 C127.33 186.01 127.66 185.02 128 184 C129.98 183.67 131.96 183.34 134 183 C134 187.01465665 132.71196108 187.78286914 129.9375 190.625 C125.68208699 194.76490894 121.2705436 198.00580908 116.1875 201.0625 C115.55384521 201.44422363 114.92019043 201.82594727 114.26733398 202.21923828 C110.88104009 204.17099526 107.89232202 205.51809346 104 206 C104 206.66 104 207.32 104 208 C94.92075704 210.49282041 86.58391278 211.41959121 77.1875 211.25 C75.44436523 211.24226563 75.44436523 211.24226563 73.66601562 211.234375 C67.69464006 211.18005891 61.90417155 210.90051325 56 210 C56 210.66 56 211.32 56 212 C54.68 212 53.36 212 52 212 C52 210.68 52 209.36 52 208 C48.04 208 44.08 208 40 208 C40 206.68 40 205.36 40 204 C38.68 204 37.36 204 36 204 C36 203.34 36 202.68 36 202 C30.06 201.01 30.06 201.01 24 200 C23.67 198.02 23.34 196.04 23 194 C22.21689453 194.30744141 22.21689453 194.30744141 21.41796875 194.62109375 C13.04268631 197.68665247 4.7828135 198.7565627 -4 197 C-4 197.99 -4 198.98 -4 200 C-5.32 200 -6.64 200 -8 200 C-8.33 199.01 -8.66 198.02 -9 197 C-11.56042066 195.96961044 -11.56042066 195.96961044 -14.5625 195.3125 C-16.08037109 194.93544922 -16.08037109 194.93544922 -17.62890625 194.55078125 C-18.80259766 194.27814453 -18.80259766 194.27814453 -20 194 C-20 194.66 -20 195.32 -20 196 C-21.32 196 -22.64 196 -24 196 C-24 194.68 -24 193.36 -24 192 C-25.65 191.67 -27.3 191.34 -29 191 C-29.33 189.68 -29.66 188.36 -30 187 C-31.98 186.67 -33.96 186.34 -36 186 C-36 186.66 -36 187.32 -36 188 C-37.32 188 -38.64 188 -40 188 C-40 186.68 -40 185.36 -40 184 C-41.32 184 -42.64 184 -44 184 C-44 182.68 -44 181.36 -44 180 C-41.36 179.67 -38.72 179.34 -36 179 C-36 178.01 -36 177.02 -36 176 C-33.36 176 -30.72 176 -28 176 C-28 174.68 -28 173.36 -28 172 C-16.12 172 -4.24 172 8 172 C8.33 172.99 8.66 173.98 9 175 C12.63 175.33 16.26 175.66 20 176 C20 174.68 20 173.36 20 172 C23.96 171.67 27.92 171.34 32 171 C32 170.01 32 169.02 32 168 C33.32 168 34.64 168 36 168 C36 166.68 36 165.36 36 164 C37.32 164 38.64 164 40 164 C40 162.68 40 161.36 40 160 C38.68 160 37.36 160 36 160 C35.67 159.01 35.34 158.02 35 157 C34.59265625 157.46664062 34.1853125 157.93328125 33.765625 158.4140625 C31.74343347 160.23045578 30.36482575 160.69016468 27.75 161.375 C23.41713486 162.5646595 19.22976847 163.98418169 15 165.5 C0.1217279 170.60849343 -15.42072242 172.39681194 -31 170 C-31.33 170.66 -31.66 171.32 -32 172 C-33.32 172 -34.64 172 -36 172 C-36 170.68 -36 169.36 -36 168 C-36.94875 167.855625 -37.8975 167.71125 -38.875 167.5625 C-42 167 -42 167 -44 166 C-44 166.66 -44 167.32 -44 168 C-45.32 168 -46.64 168 -48 168 C-48 166.35 -48 164.7 -48 163 C-48.78375 162.690625 -49.5675 162.38125 -50.375 162.0625 C-53 161 -53 161 -55 160 C-55 159.01 -55 158.02 -55 157 C-55.804375 156.71125 -56.60875 156.4225 -57.4375 156.125 C-60 155 -60 155 -61 153 C-61.99 152.67 -62.98 152.34 -64 152 C-64 150.68 -64 149.36 -64 148 C-65.32 148 -66.64 148 -68 148 C-68 138.76 -68 129.52 -68 120 C-67.01 120 -66.02 120 -65 120 C-64.67 117.36 -64.34 114.72 -64 112 C-62.68 112 -61.36 112 -60 112 C-60 110.68 -60 109.36 -60 108 C-58.68 108 -57.36 108 -56 108 C-56 106.68 -56 105.36 -56 104 C-54.68 104 -53.36 104 -52 104 C-52 102.68 -52 101.36 -52 100 C-49.36 100 -46.72 100 -44 100 C-44 98.68 -44 97.36 -44 96 C-33.44 96 -22.88 96 -12 96 C-12 96.66 -12 97.32 -12 98 C-8.04 98.66 -4.08 99.32 0 100 C-0.33 98.68 -0.66 97.36 -1 96 C-1.99 96 -2.98 96 -4 96 C-4.495 92.535 -4.495 92.535 -5 89 C-7.31 88.67 -9.62 88.34 -12 88 C-12 86.68 -12 85.36 -12 84 C-13.32 84 -14.64 84 -16 84 C-16.03351562 83.42378906 -16.06703125 82.84757812 -16.1015625 82.25390625 C-17.46411753 78.83567037 -20.29929069 77.65764346 -23.375 75.9375 C-26.9386693 73.89500395 -30.12712436 71.96981317 -33 69 C-33.99 68.67 -34.98 68.34 -36 68 C-36 64.04 -36 60.08 -36 56 C-35.01 55.67 -34.02 55.34 -33 55 C-32.67 51.37 -32.34 47.74 -32 44 C-30.68 44 -29.36 44 -28 44 C-28 42.68 -28 41.36 -28 40 C-25.03 39.505 -25.03 39.505 -22 39 C-22.66 43.29 -23.32 47.58 -24 52 C-24.99 52.33 -25.98 52.66 -27 53 C-27.33 56.63 -27.66 60.26 -28 64 C-26.68 64 -25.36 64 -24 64 C-24.33 65.65 -24.66 67.3 -25 69 C-21.55930376 71.29379749 -20.27709699 72 -16 72 C-15.67 72.99 -15.34 73.98 -15 75 C-12.69 75.33 -10.38 75.66 -8 76 C-7.67 76.99 -7.34 77.98 -7 79 C-4.69 79.33 -2.38 79.66 0 80 C0 81.32 0 82.64 0 84 C1.32 84 2.64 84 4 84 C4.53357373 77.99271884 4.53357373 77.99271884 2.5 72.5 C-1.0212363 70.38725822 -3.91422784 70.27238481 -8 70 C-8 70.66 -8 71.32 -8 72 C-9.32 72 -10.64 72 -12 72 C-12 70.68 -12 69.36 -12 68 C-9.36 67.67 -6.72 67.34 -4 67 C-4 66.01 -4 65.02 -4 64 C-2.68 64 -1.36 64 0 64 C0.33 64.99 0.66 65.98 1 67 C3.31 67.33 5.62 67.66 8 68 C8 69.32 8 70.64 8 72 C8.99 71.67 9.98 71.34 11 71 C11.495 69.515 11.495 69.515 12 68 C13.32 68 14.64 68 16 68 C16 64.04 16 60.08 16 56 C14.68 56 13.36 56 12 56 C12.33 54.35 12.66 52.7 13 51 C12.175 50.5875 11.35 50.175 10.5 49.75 C9.675 49.1725 8.85 48.595 8 48 C8 46.68 8 45.36 8 44 C6.68 44 5.36 44 4 44 C4 41.36 4 38.72 4 36 C2.68 36 1.36 36 0 36 C0 24.12 0 12.24 0 0 Z M57 16 C58 20 58 20 58 20 Z M108 32 C108 33.65 108 35.3 108 37 C110.18490007 34.32357511 110.18490007 34.32357511 110 32 C109.34 32 108.68 32 108 32 Z M52 33 C53 35 53 35 53 35 Z M107 37 C108 39 108 39 108 39 Z M59 49 C60 51 60 51 60 51 Z M71 52 C72 56 72 56 72 56 Z M97 63 C98 65 98 65 98 65 Z M96 66 C97 68 97 68 97 68 Z M73 67 C74 69 74 69 74 69 Z M102 71 C101.34 73.97 100.68 76.94 100 80 C101.32 80 102.64 80 104 80 C104 77.03 104 74.06 104 71 C103.34 71 102.68 71 102 71 Z M13 72 C12.26919734 73.97746603 11.60578253 75.98072489 11 78 C11.33 78.66 11.66 79.32 12 80 C13.32 80 14.64 80 16 80 C16 77.36 16 74.72 16 72 C15.01 72 14.02 72 13 72 Z M22 72 C22 74.64 22 77.28 22 80 C22.33 80 22.66 80 23 80 C23 77.36 23 74.72 23 72 C22.67 72 22.34 72 22 72 Z M95 72 C95 75.3 95 78.6 95 82 C95.33 82 95.66 82 96 82 C96 78.7 96 75.4 96 72 C95.67 72 95.34 72 95 72 Z M56 73 C57 75 57 75 57 75 Z M53 78 C54 80 54 80 54 80 Z M99 80 C97.5216774 82.95664519 97.93967217 85.74229737 98 89 C98.99 89 99.98 89 101 89 C100.67 88.67 100.34 88.34 100 88 C99.85884839 85.32941149 99.95752893 82.67567762 100 80 C99.67 80 99.34 80 99 80 Z M23 81 C24 84 24 84 24 84 Z M52 81 C53 84 53 84 53 84 Z M71 81 C72 83 72 83 72 83 Z M89 81 C89 82.65 89 84.3 89 86 C89.33 86 89.66 86 90 86 C90 84.35 90 82.7 90 81 C89.67 81 89.34 81 89 81 Z M94 82 C93.67 85.3 93.34 88.6 93 92 C93.66 92 94.32 92 95 92 C95 88.7 95 85.4 95 82 C94.67 82 94.34 82 94 82 Z M86 84 C86 86.64 86 89.28 86 92 C86.66 91.67 87.32 91.34 88 91 C88.65213292 88.97536745 88.65213292 88.97536745 89 87 C88.34 87 87.68 87 87 87 C86.67 86.01 86.34 85.02 86 84 Z M103 84 C104 88 104 88 104 88 Z M30 88 C31 90 31 90 31 90 Z M31 90 C32 92 32 92 32 92 Z M52 93 C53 95 53 95 53 95 Z M105 99 C105.99 99.33 106.98 99.66 108 100 C108 101.32 108 102.64 108 104 C109.32 104 110.64 104 112 104 C112 101.03 112 98.06 112 95 C109.60824401 95 106.91501516 97.69615989 105 99 Z M6 96 C5.67 98.64 5.34 101.28 5 104 C5.99 104 6.98 104 8 104 C8 101.36 8 98.72 8 96 C7.34 96 6.68 96 6 96 Z M25 96 C25.66 97.32 26.32 98.64 27 100 C27.66 99.67 28.32 99.34 29 99 C28.34 98.01 27.68 97.02 27 96 C26.34 96 25.68 96 25 96 Z M80 97 C80.33 97.66 80.66 98.32 81 99 C81.33 98.34 81.66 97.68 82 97 C81.34 97 80.68 97 80 97 Z M40 98 C40 98.66 40 99.32 40 100 C40.99 99.67 41.98 99.34 43 99 C42.01 98.67 41.02 98.34 40 98 Z M89 100 C88.34 101.65 87.68 103.3 87 105 C88.32 103.68 89.64 102.36 91 101 C90.34 100.67 89.68 100.34 89 100 Z M13 101 C13 104 13 104 13 104 Z M101 101 C100.67 101.99 100.34 102.98 100 104 C100.99 103.67 101.98 103.34 103 103 C102.34 102.34 101.68 101.68 101 101 Z M80 102 C81 104 81 104 81 104 Z M137 102 C137 102.33 137 102.66 137 103 C138.65 103 140.3 103 142 103 C142 102.67 142 102.34 142 102 C140.35 102 138.7 102 137 102 Z M-2 104 C-2.33 104.99 -2.66 105.98 -3 107 C-5.0625 107.6875 -5.0625 107.6875 -7 108 C-6.34 108 -5.68 108 -5 108 C-5.99 110.31 -6.98 112.62 -8 115 C-7.01 115.495 -7.01 115.495 -6 116 C-4.23537317 112.91190305 -4 111.76687864 -4 108 C-3.34 108 -2.68 108 -2 108 C-1.67 106.68 -1.34 105.36 -1 104 C-1.33 104 -1.66 104 -2 104 Z M16 104 C16 105.32 16 106.64 16 108 C17.32 108 18.64 108 20 108 C20 106.68 20 105.36 20 104 C18.68 104 17.36 104 16 104 Z M30 104 C30.66 104.66 31.32 105.32 32 106 C32 105.34 32 104.68 32 104 C31.34 104 30.68 104 30 104 Z M97 104 C96.3490741 105.24735567 95.70448331 106.49801832 95.0625 107.75 C94.52302734 108.79414062 94.52302734 108.79414062 93.97265625 109.859375 C93.04441818 111.90224433 92.46833422 113.81115376 92 116 C94.64 116 97.28 116 100 116 C100 112.04 100 108.08 100 104 C99.01 104 98.02 104 97 104 Z M-14 105 C-10 106 -10 106 -10 106 Z M106 105 C106 106.98 106 108.96 106 111 C106.33 111 106.66 111 107 111 C107 109.02 107 107.04 107 105 C106.67 105 106.34 105 106 105 Z M85 106 C85 109 85 109 85 109 Z M2 108 C2 108.99 2 109.98 2 111 C2.61875 111.268125 3.2375 111.53625 3.875 111.8125 C6 113 6 113 8 116 C8 113.36 8 110.72 8 108 C7.38125 108.185625 6.7625 108.37125 6.125 108.5625 C4 109 4 109 2 108 Z M20 108 C20 109.32 20 110.64 20 112 C21.32 112 22.64 112 24 112 C23.67 110.68 23.34 109.36 23 108 C22.01 108 21.02 108 20 108 Z M34 108 C35 110 35 110 35 110 Z M110 112 C109.35366725 113.77065111 108.7079517 115.54152753 108.0625 117.3125 C107.70285156 118.29863281 107.34320313 119.28476563 106.97265625 120.30078125 C106.29114035 122.1920563 105.6357189 124.09284329 105 126 C104.01 126 103.02 126 102 126 C102 126.99 102 127.98 102 129 C104.6504191 128.33739522 106.49044474 127.68574046 108.15234375 125.44921875 C109.59017497 122.91538033 110.84650429 120.3340789 112.0625 117.6875 C113 116 113 116 116 114 C116 113.34 116 112.68 116 112 C115.38125 112.185625 114.7625 112.37125 114.125 112.5625 C112 113 112 113 110 112 Z M-60 114 C-59 116 -59 116 -59 116 Z M77 117 C78 119 78 119 78 119 Z M-41.0625 126.125 C-43.18628449 128.69860222 -43.18628449 128.69860222 -43 131 C-43.66 131 -44.32 131 -45 131 C-43.35 127.37 -41.7 123.74 -40 120 C-44.06341216 122.03170608 -44.94931216 122.88258811 -46.53125 126.9921875 C-47.36941122 130.58231138 -46.77878548 133.40560546 -46 137 C-45.34 137.99 -44.68 138.98 -44 140 C-42.68 140 -41.36 140 -40 140 C-40 141.32 -40 142.64 -40 144 C-32.10648681 149.33195409 -24.61097319 149.69483768 -15.42114258 149.48706055 C-13.17408152 149.43720227 -10.929208 149.42554263 -8.68164062 149.41992188 C-0.10818642 149.4818729 -0.10818642 149.4818729 8 147 C8 146.01 8 145.02 8 144 C10.64 144 13.28 144 16 144 C15.67 142.35 15.34 140.7 15 139 C14.01 138.67 13.02 138.34 12 138 C12 138.66 12 139.32 12 140 C10.68 140 9.36 140 8 140 C8 138.35 8 136.7 8 135 C6.75823305 134.29773859 5.50614401 133.61370891 4.25 132.9375 C3.55390625 132.55464844 2.8578125 132.17179688 2.140625 131.77734375 C-0.36140628 130.8687594 -1.5332355 131.11663163 -4 132 C-3.79375 131.236875 -3.5875 130.47375 -3.375 129.6875 C-2.66608797 126.78114056 -2.66608797 126.78114056 -5 124 C-5.99 124 -6.98 124 -8 124 C-8 122.68 -8 121.36 -8 120 C-18.64568209 116.56320499 -33.36007656 117.46773068 -41.0625 126.125 Z M128 120 C128 121.32 128 122.64 128 124 C127.2575 123.87625 126.515 123.7525 125.75 123.625 C124.8425 123.74875 123.935 123.8725 123 124 C120.92293518 126.78170896 120.92293518 126.78170896 119 130 C117.34808509 131.35156675 115.68477344 132.68962066 114 134 C114 134.66 114 135.32 114 136 C113.25 138.0625 113.25 138.0625 112 140 C110.67696283 140.3721042 109.34262065 140.70630173 108 141 C107.34 141.99 106.68 142.98 106 144 C106.66 144 107.32 144 108 144 C108 145.32 108 146.64 108 148 C114.6 148 121.2 148 128 148 C128 148.99 128 149.98 128 151 C129.32 151 130.64 151 132 151 C132 150.01 132 149.02 132 148 C138.27 148 144.54 148 151 148 C151.33 146.68 151.66 145.36 152 144 C153.32 143.67 154.64 143.34 156 143 C156 142.01 156 141.02 156 140 C157.32 140 158.64 140 160 140 C160 137.36 160 134.72 160 132 C160.66 131.67 161.32 131.34 162 131 C161.34 130.01 160.68 129.02 160 128 C158.68 128 157.36 128 156 128 C155.505 125.525 155.505 125.525 155 123 C154.01 122.67 153.02 122.34 152 122 C152 122.66 152 123.32 152 124 C150.68 124 149.36 124 148 124 C147.505 122.02 147.505 122.02 147 120 C140.43507888 119.21558847 134.53162622 118.89085592 128 120 Z M75 122 C76 124 76 124 76 124 Z M-55 124 C-55.33 125.32 -55.66 126.64 -56 128 C-55.01 127.01 -54.02 126.02 -53 125 C-53.66 124.67 -54.32 124.34 -55 124 Z M2 124 C3.28965176 125.37562854 4.62689293 126.70766393 6 128 C6.66 128 7.32 128 8 128 C8 126.68 8 125.36 8 124 C6.02 124 4.04 124 2 124 Z M114 124 C113.01 125.485 113.01 125.485 112 127 C113.32 126.34 114.64 125.68 116 125 C115.34 124.67 114.68 124.34 114 124 Z M59 125 C59 127.31 59 129.62 59 132 C59.33 132 59.66 132 60 132 C60 129.69 60 127.38 60 125 C59.67 125 59.34 125 59 125 Z M163 125 C164 127 164 127 164 127 Z M16 126 C17 128 17 128 17 128 Z M-57 128 C-57.2226746 129.43534841 -57.42761906 130.87345525 -57.625 132.3125 C-57.74101563 133.11300781 -57.85703125 133.91351563 -57.9765625 134.73828125 C-58.21533407 137.28723215 -58.21533407 137.28723215 -56 140 C-56 136.04 -56 132.08 -56 128 C-56.33 128 -56.66 128 -57 128 Z M12 128 C12.33 129.32 12.66 130.64 13 132 C13.99 132 14.98 132 16 132 C16 130.68 16 129.36 16 128 C14.68 128 13.36 128 12 128 Z M97.875 130.8125 C95.67460431 132.89944369 95.67460431 132.89944369 96 136 C97.32 135.67 98.64 135.34 100 135 C100 134.01 100 133.02 100 132 C101.134375 131.87625 102.26875 131.7525 103.4375 131.625 C104.613125 131.41875 105.78875 131.2125 107 131 C107.33 130.34 107.66 129.68 108 129 C106.02 129.66 104.04 130.32 102 131 C102 130.34 102 129.68 102 129 C99.78811334 128.78368446 99.78811334 128.78368446 97.875 130.8125 Z M22 136 C22.66 136.66 23.32 137.32 24 138 C24 137.34 24 136.68 24 136 C23.34 136 22.68 136 22 136 Z M74 138 C75 140 75 140 75 140 Z M91 138 C90.67 138.66 90.34 139.32 90 140 C90.66 140 91.32 140 92 140 C91.67 139.34 91.34 138.68 91 138 Z M28 139 C28 139.99 28 140.98 28 142 C30.8331162 143.62507196 30.8331162 143.62507196 34 145 C34.99 144.67 35.98 144.34 37 144 C34.08596738 142.05731159 31.14191424 140.53604696 28 139 Z M160 140 C161 142 161 142 161 142 Z M87 141 C85.35 141.66 83.7 142.32 82 143 C82 143.33 82 143.66 82 144 C83.65 144 85.3 144 87 144 C87 143.01 87 142.02 87 141 Z M71 143 C70.34 144.32 69.68 145.64 69 147 C69.99 147.33 70.98 147.66 72 148 C72 146.35 72 144.7 72 143 C71.67 143 71.34 143 71 143 Z M183 146 C184 148 184 148 184 148 Z M25 147 C25.33 147.66 25.66 148.32 26 149 C26.66 148.67 27.32 148.34 28 148 C27.01 147.67 26.02 147.34 25 147 Z M82 153 C81.01 154.485 81.01 154.485 80 156 C80.33 156.99 80.66 157.98 81 159 C81.66 158.01 82.32 157.02 83 156 C82.67 155.01 82.34 154.02 82 153 Z M23 153 C21.68 153.99 20.36 154.98 19 156 C20.65 155.67 22.3 155.34 24 155 C23.67 154.34 23.34 153.68 23 153 Z M104 154 C104 154.66 104 155.32 104 156 C105.32 155.67 106.64 155.34 108 155 C106.68 154.67 105.36 154.34 104 154 Z M103 156 C102.01 156.33 101.02 156.66 100 157 C100 157.99 100 158.98 100 160 C101.32 160 102.64 160 104 160 C103.67 158.68 103.34 157.36 103 156 Z M75 161 C73.37168238 162.80961577 73.37168238 162.80961577 72 165 C72.33 165.99 72.66 166.98 73 168 C74.62831762 166.19038423 74.62831762 166.19038423 76 164 C75.67 163.01 75.34 162.02 75 161 Z M112 162 C112.33 162.66 112.66 163.32 113 164 C116.3 164 119.6 164 123 164 C123 163.67 123 163.34 123 163 C119.37 162.67 115.74 162.34 112 162 Z M133 163 C137 164 137 164 137 164 Z M40 164 C41.98 164.99 41.98 164.99 44 166 C44 166.66 44 167.32 44 168 C44.99 167.67 45.98 167.34 47 167 C46.34 166.01 45.68 165.02 45 164 C42.41619823 163.74969023 42.41619823 163.74969023 40 164 Z M42 168 C41.67 168.66 41.34 169.32 41 170 C41.99 169.67 42.98 169.34 44 169 C43.34 168.67 42.68 168.34 42 168 Z M147 169 C147 169.33 147 169.66 147 170 C148.65 170 150.3 170 152 170 C152 169.67 152 169.34 152 169 C150.35 169 148.7 169 147 169 Z M137 170 C137 170.33 137 170.66 137 171 C139.64 171 142.28 171 145 171 C145 170.67 145 170.34 145 170 C142.36 170 139.72 170 137 170 Z M46 172 C46.99 173.485 46.99 173.485 48 175 C48 174.01 48 173.02 48 172 C47.34 172 46.68 172 46 172 Z M47 176 C45.89163577 177.88316159 45.89163577 177.88316159 45 180 C45.33 180.66 45.66 181.32 46 182 C45.278125 182.2475 44.55625 182.495 43.8125 182.75 C40.75286734 184.10983674 38.5326262 185.82917754 36 188 C37.32 188 38.64 188 40 188 C40 189.32 40 190.64 40 192 C41.32 192 42.64 192 44 192 C44.1546875 192.9590625 44.1546875 192.9590625 44.3125 193.9375 C44.539375 194.618125 44.76625 195.29875 45 196 C48.13349732 197.04449911 48.98968256 196.93423645 52 196 C52.02712066 194.56260487 52.04645067 193.12506137 52.0625 191.6875 C52.07410156 190.88699219 52.08570312 190.08648437 52.09765625 189.26171875 C52.09657855 186.83138666 52.09657855 186.83138666 51 184 C50.01 184 49.02 184 48 184 C48 181.36 48 178.72 48 176 C47.67 176 47.34 176 47 176 Z M-24 187 C-24 187.33 -24 187.66 -24 188 C-21.47958689 188.19667089 -18.95911728 188.38254317 -16.4375 188.5625 C-15.38079102 188.64661133 -15.38079102 188.64661133 -14.30273438 188.73242188 C-9.68561569 189.05157754 -5.5591248 188.80878035 -1 188 C-8.19851934 183.89617122 -16.36991607 184.55261459 -24 187 Z M34 188 C34.66 188.66 35.32 189.32 36 190 C36 189.34 36 188.68 36 188 C35.34 188 34.68 188 34 188 Z M56 198 C56 198.66 56 199.32 56 200 C56.99 199.67 57.98 199.34 59 199 C58.01 198.67 57.02 198.34 56 198 Z " fill="#FEFEFE" transform="translate(68,4)"/>
</svg>
