<?xml version="1.0" encoding="UTF-8"?>
<svg version="1.1" xmlns="http://www.w3.org/2000/svg" width="126" height="150">
<path d="M0 0 C2.4375 -0.375 2.4375 -0.375 5 0 C7.09730821 1.58794219 7.906362 2.47059178 8.36914349 5.08705425 C8.36637811 5.8954667 8.36361273 6.70387915 8.36076355 7.53678894 C8.36488754 8.46646988 8.36901154 9.39615082 8.3732605 10.35400391 C8.36247467 11.37179932 8.35168884 12.38959473 8.34057617 13.43823242 C8.34123329 15.04822868 8.34123329 15.04822868 8.34190369 16.69075012 C8.3398102 20.24584004 8.31645218 23.800461 8.29296875 27.35546875 C8.2873748 29.81740562 8.28310376 32.27934583 8.28010559 34.74128723 C8.26864104 41.22688996 8.23915979 47.71229172 8.20599365 54.19781494 C8.17532758 60.8134896 8.16160765 67.42919666 8.14648438 74.04492188 C8.11429182 87.03003375 8.06365104 100.01500619 8 113 C4.85694562 114.57152719 1.508726 114.14318589 -1.9375 114.125 C-2.66646484 114.12886719 -3.39542969 114.13273437 -4.14648438 114.13671875 C-7.35857736 114.1308304 -9.9321444 114.02261853 -13 113 C-14.051875 114.0828125 -14.051875 114.0828125 -15.125 115.1875 C-17.92770745 117.99823813 -20.92262792 120.49516226 -24 123 C-21.73276534 126.17412852 -19.55700634 128.39707922 -16.3125 130.5 C-13.66997452 132.27862292 -13.11129856 132.66610432 -12.0625 135.8125 C-12.041875 136.534375 -12.02125 137.25625 -12 138 C-15.83281447 137.30570089 -19.47264682 136.292396 -23.1875 135.125 C-27.21640003 133.86085304 -31.24840259 132.64499339 -35.3125 131.5 C-44.7808325 128.61368574 -53.12655452 123.78010822 -58.76171875 115.37109375 C-60 113 -60 113 -60 111 C-73.2 111 -86.4 111 -100 111 C-100.495 108.525 -100.495 108.525 -101 106 C-99.47956751 104.47956751 -97.99104566 104.92053696 -95.875 104.8671875 C-90.07427895 104.26829977 -87.62070351 101.4409456 -84 97.125 C-83.39897461 96.4453418 -82.79794922 95.76568359 -82.17871094 95.06542969 C-78.05148254 90.36220592 -74.07040063 85.53147772 -70.16796875 80.640625 C-66.95170334 76.72315578 -63.51495542 73.02549191 -60.06640625 69.3125 C-57.88630363 66.98197309 -57.88630363 66.98197309 -56 64 C-54.35 64.33 -52.7 64.66 -51 65 C-51.52596456 69.16875613 -53.80506467 71.26819527 -56.625 74.25 C-57.54356762 75.23251337 -58.46153402 76.21558915 -59.37890625 77.19921875 C-60.24386719 78.12347656 -61.10882813 79.04773438 -62 80 C-63.19520717 81.34736907 -64.3837564 82.70070445 -65.5625 84.0625 C-68.97748028 87.99662217 -72.47647877 91.85179837 -75.984375 95.703125 C-77.75433775 97.7200593 -79.3899425 99.85325667 -81 102 C-74.07 102.33 -67.14 102.66 -60 103 C-59.34 101.35 -58.68 99.7 -58 98 C-53.70892029 91.31183438 -48.81937551 85.39471838 -43 80 C-42.34 79.34 -41.68 78.68 -41 78 C-41.763125 77.030625 -42.52625 76.06125 -43.3125 75.0625 C-47.65132835 68.91891684 -49.80228319 62.78069735 -48.5703125 55.2578125 C-46.82280569 48.3396006 -43.5869033 41.63340513 -38 37 C-37.01 37 -36.02 37 -35 37 C-35 37.66 -35 38.32 -35 39 C-33.35 39 -31.7 39 -30 39 C-30.680625 38.62875 -31.36125 38.2575 -32.0625 37.875 C-39.50309865 33.12568172 -45.17907892 27.71464649 -47.5625 18.92578125 C-48.31496253 14.13823842 -48.05098884 9.68902713 -47 5 C-44.9375 3.5 -44.9375 3.5 -43 3 C-41.48814494 4.51185506 -41.92559201 5.95570428 -41.875 8.0625 C-41.22483607 14.01762465 -38.45098384 17.17095498 -34 21 C-30.09930828 23.83554024 -26.10269036 26.46697607 -22 29 C-21.91621094 28.44441406 -21.83242187 27.88882813 -21.74609375 27.31640625 C-20.75990787 24.25458306 -19.12734639 22.40152584 -17.0625 19.9375 C-16.258125 18.97714844 -15.45375 18.01679688 -14.625 17.02734375 C-11.19700296 13.03880188 -7.64538718 9.16592547 -4.06640625 5.3125 C-1.88630363 2.98197309 -1.88630363 2.98197309 0 0 Z M-8.75 18.5625 C-12.30527512 22.14963243 -15.165255 25.83125735 -18 30 C-18.66 30.66 -19.32 31.32 -20 32 C-18.88121617 33.17262904 -17.75476949 34.33795138 -16.625 35.5 C-15.99851562 36.1496875 -15.37203125 36.799375 -14.7265625 37.46875 C-13.13524093 39.22117431 -13.13524093 39.22117431 -11 39 C-11 39.66 -11 40.32 -11 41 C-10.2884375 41.6496875 -10.2884375 41.6496875 -9.5625 42.3125 C-7.58616914 44.44693733 -7.38336764 46.16307947 -7 49 C-6.34 49 -5.68 49 -5 49 C-4.67 49.66 -4.34 50.32 -4 51 C-4 39.12 -4 27.24 -4 15 C-5.97379663 15 -7.44625301 17.27100627 -8.75 18.5625 Z M-37 57 C-37 57.33 -37 57.66 -37 58 C-28.75 58 -20.5 58 -12 58 C-12 58.66 -12 59.32 -12 60 C-11.34 60 -10.68 60 -10 60 C-9.67 58.02 -9.34 56.04 -9 54 C-18.95441792 53.59153604 -27.34613668 54.53518383 -37 57 Z M-34 65 C-32.71034824 66.37562854 -31.37310707 67.70766393 -30 69 C-29.34 69 -28.68 69 -28 69 C-28 69.66 -28 70.32 -28 71 C-24.2397015 70.41892368 -21.46964968 69.34800504 -18.1875 67.4375 C-17.39730469 66.98246094 -16.60710937 66.52742188 -15.79296875 66.05859375 C-15.20128906 65.70925781 -14.60960938 65.35992187 -14 65 C-14 64.67 -14 64.34 -14 64 C-20.7685324 63.89847201 -27.30324864 63.96973056 -34 65 Z M-5 67 C-6.1224537 68.49857935 -7.17314372 70.051239 -8.1875 71.625 C-11.34404712 76.29350667 -14.5606174 79.5572135 -19 83 C-17.85849419 85.42506568 -16.88890474 87.12184641 -15.0625 89.125 C-12.21249223 93.0977381 -11.20335851 97.30507856 -10 102 C-8.02 102 -6.04 102 -4 102 C-3.02314635 97.9269597 -2.88454556 94.131793 -2.90234375 89.94921875 C-2.90446617 88.96100883 -2.90446617 88.96100883 -2.90663147 87.95283508 C-2.912195 85.86434238 -2.92474053 83.77595989 -2.9375 81.6875 C-2.94251972 80.26497551 -2.9470818 78.84244934 -2.95117188 77.41992188 C-2.96215243 73.94657923 -2.97939165 70.47330039 -3 67 C-3.66 67 -4.32 67 -5 67 Z " fill="#3A3A39" transform="translate(107,7)"/>
<path d="M0 0 C0.66 0 1.32 0 2 0 C4.33916796 7.01750389 3.09295163 14.39695524 0 21 C-3.17042025 25.33951272 -6.52212648 29.01475099 -11 32 C-10.71382813 32.56460938 -10.42765625 33.12921875 -10.1328125 33.7109375 C-5.76443438 42.53807398 -3.25205861 50.21464774 -6 60 C-6.66 60 -7.32 60 -8 60 C-8.4021875 60.8353125 -8.4021875 60.8353125 -8.8125 61.6875 C-11.08995401 66.12254203 -13.41764903 69.52084432 -17 73 C-16.07767578 73.81404297 -16.07767578 73.81404297 -15.13671875 74.64453125 C-14.32847656 75.35996094 -13.52023438 76.07539063 -12.6875 76.8125 C-11.88699219 77.52019531 -11.08648437 78.22789062 -10.26171875 78.95703125 C-9.14216797 79.96830078 -9.14216797 79.96830078 -8 81 C-7.40832031 81.51949219 -6.81664063 82.03898437 -6.20703125 82.57421875 C-5 84 -5 84 -5 87 C-8.83281447 86.30570089 -12.47264682 85.292396 -16.1875 84.125 C-20.21640003 82.86085304 -24.24840259 81.64499339 -28.3125 80.5 C-37.7808325 77.61368574 -46.12655452 72.78010822 -51.76171875 64.37109375 C-53 62 -53 62 -53 60 C-66.2 60 -79.4 60 -93 60 C-93.33 58.35 -93.66 56.7 -94 55 C-92.47956751 53.47956751 -90.99104566 53.92053696 -88.875 53.8671875 C-83.07427895 53.26829977 -80.62070351 50.4409456 -77 46.125 C-76.39897461 45.4453418 -75.79794922 44.76568359 -75.17871094 44.06542969 C-71.05148254 39.36220592 -67.07040063 34.53147772 -63.16796875 29.640625 C-59.95170334 25.72315578 -56.51495542 22.02549191 -53.06640625 18.3125 C-50.88630363 15.98197309 -50.88630363 15.98197309 -49 13 C-46.525 13.495 -46.525 13.495 -44 14 C-44.52596456 18.16875613 -46.80506467 20.26819527 -49.625 23.25 C-50.54356762 24.23251337 -51.46153402 25.21558915 -52.37890625 26.19921875 C-53.24386719 27.12347656 -54.10882813 28.04773438 -55 29 C-56.19520717 30.34736907 -57.3837564 31.70070445 -58.5625 33.0625 C-61.97748028 36.99662217 -65.47647877 40.85179837 -68.984375 44.703125 C-70.75433775 46.7200593 -72.3899425 48.85325667 -74 51 C-67.07 51.33 -60.14 51.66 -53 52 C-52.34 50.35 -51.68 48.7 -51 47 C-49.90475228 45.83837363 -48.79950752 44.68359684 -47.6328125 43.59375 C-44.58686904 40.620676 -41.82050903 37.38198239 -38.98828125 34.20703125 C-35.2194081 30.02350801 -35.2194081 30.02350801 -31.5 29.625 C-30.345 29.41875 -29.19 29.2125 -28 29 C-26.77472052 27.04978917 -26.77472052 27.04978917 -26 25 C-23.875 24.25 -23.875 24.25 -22 24 C-22 23.34 -22 22.68 -22 22 C-20.88625 21.62875 -19.7725 21.2575 -18.625 20.875 C-9.16688944 17.39205872 -9.16688944 17.39205872 -2.7109375 10.3046875 C-2.47632812 9.54414062 -2.24171875 8.78359375 -2 8 C-1.34 8 -0.68 8 0 8 C0 5.36 0 2.72 0 0 Z " fill="#DFDFDF" transform="translate(100,58)"/>
<path d="M0 0 C2.475 0.495 2.475 0.495 5 1 C4.47403544 5.16875613 2.19493533 7.26819527 -0.625 10.25 C-1.54356762 11.23251337 -2.46153402 12.21558915 -3.37890625 13.19921875 C-4.67634766 14.58560547 -4.67634766 14.58560547 -6 16 C-7.19520717 17.34736907 -8.3837564 18.70070445 -9.5625 20.0625 C-12.97748028 23.99662217 -16.47647877 27.85179837 -19.984375 31.703125 C-21.75433775 33.7200593 -23.3899425 35.85325667 -25 38 C-18.07 38.33 -11.14 38.66 -4 39 C-3.34 37.35 -2.68 35.7 -2 34 C-1.67 34.99 -1.34 35.98 -1 37 C-1.33 37.33 -1.66 37.66 -2 38 C-2.23287008 39.68183948 -2.41264166 41.3712416 -2.5625 43.0625 C-2.64628906 43.98160156 -2.73007812 44.90070313 -2.81640625 45.84765625 C-2.90728516 46.91306641 -2.90728516 46.91306641 -3 48 C-2.34 48 -1.68 48 -1 48 C-1 48.99 -1 49.98 -1 51 C-0.34 51 0.32 51 1 51 C2.7143618 52.95927063 4.38405168 54.95880212 6 57 C7.30599291 55.92723406 7.30599291 55.92723406 7.02734375 53.3828125 C6.96758942 51.21606837 6.90510234 49.04939783 6.83984375 46.8828125 C7 44 7 44 9 41 C9.66 41 10.32 41 11 41 C11.495 43.475 11.495 43.475 12 46 C19.92 46 27.84 46 36 46 C35 53 35 53 33.4375 54.9375 C32.963125 55.288125 32.48875 55.63875 32 56 C33.32 55.01 34.64 54.02 36 53 C36.66 53.33 37.32 53.66 38 54 C36.02 55.65 34.04 57.3 32 59 C34.26723466 62.17412852 36.44299366 64.39707922 39.6875 66.5 C42.33002548 68.27862292 42.88870144 68.66610432 43.9375 71.8125 C43.958125 72.534375 43.97875 73.25625 44 74 C40.16718553 73.30570089 36.52735318 72.292396 32.8125 71.125 C28.78359997 69.86085304 24.75159741 68.64499339 20.6875 67.5 C11.2191675 64.61368574 2.87344548 59.78010822 -2.76171875 51.37109375 C-4 49 -4 49 -4 47 C-17.2 47 -30.4 47 -44 47 C-44.33 45.35 -44.66 43.7 -45 42 C-43.47956751 40.47956751 -41.99104566 40.92053696 -39.875 40.8671875 C-34.07427895 40.26829977 -31.62070351 37.4409456 -28 33.125 C-27.39897461 32.4453418 -26.79794922 31.76568359 -26.17871094 31.06542969 C-22.05148254 26.36220592 -18.07040063 21.53147772 -14.16796875 16.640625 C-10.95170334 12.72315578 -7.51495542 9.02549191 -4.06640625 5.3125 C-1.88630363 2.98197309 -1.88630363 2.98197309 0 0 Z " fill="#DADADA" transform="translate(51,71)"/>
<path d="M0 0 C3.62262144 1.4371277 7.22024326 2.92620981 10.8125 4.4375 C15.50747829 6.40001251 20.22885426 8.23290899 25 10 C25.66 10.33 26.32 10.66 27 11 C25.68 9.35 24.36 7.7 23 6 C23.66 5.67 24.32 5.34 25 5 C25 5.66 25 6.32 25 7 C25.99 7.33 26.98 7.66 28 8 C28.12375 8.969375 28.2475 9.93875 28.375 10.9375 C28.58125 11.948125 28.7875 12.95875 29 14 C29.66 14.33 30.32 14.66 31 15 C31 15.66 31 16.32 31 17 C30.34 17 29.68 17 29 17 C29 19.64 29 22.28 29 25 C28.34 25 27.68 25 27 25 C26.66548828 26.36705078 26.66548828 26.36705078 26.32421875 27.76171875 C24.06867632 33.27748474 19.16945934 35.42947214 14 38 C11.50538804 38.72617129 9.61228911 38.94194913 7 39 C7 39.66 7 40.32 7 41 C5.34467377 42.01866229 3.67739862 43.01810813 2 44 C1.67 44.66 1.34 45.32 1 46 C-0.794375 46.5878125 -0.794375 46.5878125 -2.625 47.1875 C-10.59017648 50.03220589 -15.27387303 57.33494914 -20 64 C-20 58.9293587 -16.25257766 55.67814857 -13 52 C-10.42727699 49.54360881 -7.76658044 47.23482212 -5 45 C-5.32613281 44.52691406 -5.65226562 44.05382812 -5.98828125 43.56640625 C-10.63865594 36.52911357 -13.97694694 29.84726112 -12.5703125 21.2578125 C-10.82280569 14.3396006 -7.5869033 7.63340513 -2 3 C-1.01 3 -0.02 3 1 3 C1 3.66 1 4.32 1 5 C2.65 5 4.3 5 6 5 C5.195625 4.54625 4.39125 4.0925 3.5625 3.625 C1 2 1 2 0 0 Z M-1 23 C-1 23.33 -1 23.66 -1 24 C7.25 24 15.5 24 24 24 C24 24.66 24 25.32 24 26 C24.66 26 25.32 26 26 26 C26.33 24.02 26.66 22.04 27 20 C17.04558208 19.59153604 8.65386332 20.53518383 -1 23 Z M2 31 C3.28965176 32.37562854 4.62689293 33.70766393 6 35 C6.66 35 7.32 35 8 35 C8 35.66 8 36.32 8 37 C11.7602985 36.41892368 14.53035032 35.34800504 17.8125 33.4375 C18.60269531 32.98246094 19.39289063 32.52742188 20.20703125 32.05859375 C20.79871094 31.70925781 21.39039062 31.35992187 22 31 C22 30.67 22 30.34 22 30 C15.2314676 29.89847201 8.69675136 29.96973056 2 31 Z " fill="#2F2E2B" transform="translate(71,41)"/>
<path d="M0 0 C0 35.31 0 70.62 0 107 C-5.61 107 -11.22 107 -17 107 C-17 102 -17 102 -15 100 C-11.375 99.875 -11.375 99.875 -8 100 C-8.01554428 98.86518188 -8.03108856 97.73036377 -8.04710388 96.56115723 C-8.18919536 85.85047273 -8.29402977 75.13998022 -8.3626852 64.42856598 C-8.39916921 58.92202885 -8.4486318 53.41625444 -8.52807617 47.91015625 C-8.60430754 42.59328246 -8.64602663 37.27714081 -8.6641407 31.95976257 C-8.67704404 29.93434629 -8.70224227 27.90896871 -8.7401104 25.88386536 C-9.06093693 8.01093107 -9.06093693 8.01093107 -4.51977539 2.69335938 C-1.44679613 0 -1.44679613 0 0 0 Z " fill="#E1E1E1" transform="translate(114,11)"/>
<path d="M0 0 C0.66 0 1.32 0 2 0 C4.34802849 7.04408546 2.81412376 12.43371122 0 19 C-0.66 19 -1.32 19 -2 19 C-2.20625 19.598125 -2.4125 20.19625 -2.625 20.8125 C-4 23 -4 23 -7.0625 24.5 C-8.031875 24.995 -9.00125 25.49 -10 26 C-10.22006714 26.95531616 -10.22006714 26.95531616 -10.44458008 27.92993164 C-11 30 -11 30 -12.6706543 31.38452148 C-13.38133057 31.79259033 -14.09200684 32.20065918 -14.82421875 32.62109375 C-15.60603516 33.08193359 -16.38785156 33.54277344 -17.19335938 34.01757812 C-18.01642578 34.48615234 -18.83949219 34.95472656 -19.6875 35.4375 C-29.76943806 40.89853666 -29.76943806 40.89853666 -37.25 49.3125 C-37.8275 50.199375 -38.405 51.08625 -39 52 C-39.66 52 -40.32 52 -41 52 C-41.89385014 55.06462904 -42.13472008 57.81181379 -42.125 61 C-42.12757812 61.845625 -42.13015625 62.69125 -42.1328125 63.5625 C-42.00833711 65.84698944 -41.63877457 67.80991574 -41 70 C-41.99 70 -42.98 70 -44 70 C-44.33 69.01 -44.66 68.02 -45 67 C-45.99 66.67 -46.98 66.34 -48 66 C-48 65.34 -48 64.68 -48 64 C-48.66 64 -49.32 64 -50 64 C-50 63.01 -50 62.02 -50 61 C-50.66 61 -51.32 61 -52 61 C-52.77104553 54.16054058 -52.06671912 49.85290436 -47.92578125 44.30859375 C-36.0869998 30.11646426 -36.0869998 30.11646426 -31.5 29.625 C-30.345 29.41875 -29.19 29.2125 -28 29 C-26.77472052 27.04978917 -26.77472052 27.04978917 -26 25 C-23.875 24.25 -23.875 24.25 -22 24 C-22 23.34 -22 22.68 -22 22 C-20.88625 21.62875 -19.7725 21.2575 -18.625 20.875 C-9.16688944 17.39205872 -9.16688944 17.39205872 -2.7109375 10.3046875 C-2.47632813 9.54414062 -2.24171875 8.78359375 -2 8 C-1.34 8 -0.68 8 0 8 C0 5.36 0 2.72 0 0 Z " fill="#DFDFDE" transform="translate(100,58)"/>
<path d="M0 0 C2.475 0.495 2.475 0.495 5 1 C4.47403544 5.16875613 2.19493533 7.26819527 -0.625 10.25 C-1.54356762 11.23251337 -2.46153402 12.21558915 -3.37890625 13.19921875 C-4.67634766 14.58560547 -4.67634766 14.58560547 -6 16 C-7.19520717 17.34736907 -8.3837564 18.70070445 -9.5625 20.0625 C-12.97748028 23.99662217 -16.47647877 27.85179837 -19.984375 31.703125 C-21.75433775 33.7200593 -23.3899425 35.85325667 -25 38 C-18.07 38.33 -11.14 38.66 -4 39 C-3.34 37.35 -2.68 35.7 -2 34 C-1.67 34.99 -1.34 35.98 -1 37 C-1.33 37.33 -1.66 37.66 -2 38 C-2.23287008 39.68183948 -2.41264166 41.3712416 -2.5625 43.0625 C-2.64628906 43.98160156 -2.73007812 44.90070313 -2.81640625 45.84765625 C-2.90728516 46.91306641 -2.90728516 46.91306641 -3 48 C-2.34 48 -1.68 48 -1 48 C-1 48.99 -1 49.98 -1 51 C-0.34 51 0.32 51 1 51 C2.515625 52.609375 2.515625 52.609375 4.25 54.75 C7.23889722 58.284042 10.02006918 60.6702844 14 63 C13.01 63.33 12.02 63.66 11 64 C5.02161276 60.12089378 -0.71788198 55.4079447 -4 49 C-4 48.34 -4 47.68 -4 47 C-17.2 47 -30.4 47 -44 47 C-44.33 45.35 -44.66 43.7 -45 42 C-43.47956751 40.47956751 -41.99104566 40.92053696 -39.875 40.8671875 C-34.07427895 40.26829977 -31.62070351 37.4409456 -28 33.125 C-27.39897461 32.4453418 -26.79794922 31.76568359 -26.17871094 31.06542969 C-22.05148254 26.36220592 -18.07040063 21.53147772 -14.16796875 16.640625 C-10.95170334 12.72315578 -7.51495542 9.02549191 -4.06640625 5.3125 C-1.88630363 2.98197309 -1.88630363 2.98197309 0 0 Z " fill="#52504C" transform="translate(51,71)"/>
<path d="M0 0 C0.33 0.66 0.66 1.32 1 2 C0.67 2.66 0.34 3.32 0 4 C6.435 3.505 6.435 3.505 13 3 C13 3.99 13 4.98 13 6 C7.09956583 7.71648994 2.14469855 8.19202183 -4 8 C-4 11.63 -4 15.26 -4 19 C-3.34 19 -2.68 19 -2 19 C-2 19.99 -2 20.98 -2 22 C-1.01 21.67 -0.02 21.34 1 21 C2.77166975 20.85164052 4.54767612 20.75229982 6.32421875 20.68359375 C7.35224609 20.64169922 8.38027344 20.59980469 9.43945312 20.55664062 C10.51130859 20.51732422 11.58316406 20.47800781 12.6875 20.4375 C14.31268555 20.37272461 14.31268555 20.37272461 15.97070312 20.30664062 C18.64700791 20.20053162 21.32340526 20.09847639 24 20 C24 20.99 24 21.98 24 23 C23.154375 23.04898438 22.30875 23.09796875 21.4375 23.1484375 C15.05290815 23.56924014 9.14207405 24.19350763 3 26 C3.99 26.78375 4.98 27.5675 6 28.375 C7.485 29.674375 7.485 29.674375 9 31 C9 31.66 9 32.32 9 33 C7.948125 33.66 6.89625 34.32 5.8125 35 C5.22082031 35.37125 4.62914063 35.7425 4.01953125 36.125 C1.56545876 37.18827319 -0.35290082 37.14629909 -3 37 C-7.06702125 29.84640012 -10.02094587 24.29131801 -9 16 C-8.97679687 15.2884375 -8.95359375 14.576875 -8.9296875 13.84375 C-8.71375261 9.98571325 -8.13756593 8.16290703 -5.625 5.1875 C-4.325625 4.1046875 -4.325625 4.1046875 -3 3 C-2.401875 2.401875 -1.80375 1.80375 -1.1875 1.1875 C-0.795625 0.795625 -0.40375 0.40375 0 0 Z " fill="#DDDDDD" transform="translate(69,46)"/>
<path d="M0 0 C3.62262144 1.4371277 7.22024326 2.92620981 10.8125 4.4375 C15.50747829 6.40001251 20.22885426 8.23290899 25 10 C25.66 10.33 26.32 10.66 27 11 C25.68 9.35 24.36 7.7 23 6 C23.66 5.67 24.32 5.34 25 5 C25 5.66 25 6.32 25 7 C26.485 7.495 26.485 7.495 28 8 C28.12375 8.969375 28.2475 9.93875 28.375 10.9375 C28.58125 11.948125 28.7875 12.95875 29 14 C29.66 14.33 30.32 14.66 31 15 C31 15.66 31 16.32 31 17 C30.34 17 29.68 17 29 17 C29 19.64 29 22.28 29 25 C28.34 25 27.68 25 27 25 C27 23.35 27 21.7 27 20 C17.1 20.495 17.1 20.495 7 21 C9.68092691 18.31907309 11.39167363 18.61329743 15.125 18.375 C16.22070312 18.30023438 17.31640625 18.22546875 18.4453125 18.1484375 C19.28835937 18.09945312 20.13140625 18.05046875 21 18 C21 17.34 21 16.68 21 16 C20.37996094 16.0721875 19.75992188 16.144375 19.12109375 16.21875 C11.05200562 17.06441862 3.10374993 17.09842611 -5 17 C-5 15.68 -5 14.36 -5 13 C-3.27192682 12.66104344 -1.54248026 12.32908475 0.1875 12 C1.15042969 11.814375 2.11335938 11.62875 3.10546875 11.4375 C5.7934206 11.03122388 8.28771019 10.92066428 11 11 C11 10.01 11 9.02 11 8 C10.34 8.165 9.68 8.33 9 8.5 C5.26900206 9.12183299 1.78126622 9.06408926 -2 9 C-2 8.01 -2 7.02 -2 6 C-3.32 6.99 -4.64 7.98 -6 9 C-4.84826645 6.53199953 -3.95216435 4.95216435 -2 3 C-1.01 3 -0.02 3 1 3 C1 3.66 1 4.32 1 5 C2.65 5 4.3 5 6 5 C5.195625 4.54625 4.39125 4.0925 3.5625 3.625 C1 2 1 2 0 0 Z " fill="#2F2E2B" transform="translate(71,41)"/>
<path d="M0 0 C0.66 0 1.32 0 2 0 C2.37125 1.175625 2.7425 2.35125 3.125 3.5625 C6.3579047 11.93866217 12.36312321 16.24892786 19.68115234 20.98022461 C21.15163162 21.9411677 22.58017668 22.96567767 24 24 C24 24.66 24 25.32 24 26 C24.556875 26.268125 25.11375 26.53625 25.6875 26.8125 C26.450625 27.204375 27.21375 27.59625 28 28 C28.886875 28.45375 29.77375 28.9075 30.6875 29.375 C33.35630484 31.25037637 33.39000014 31.95000071 34 35 C34.99 35.33 35.98 35.66 37 36 C37 36.66 37 37.32 37 38 C21.59845263 33.80887096 9.55077648 29.00783204 0.875 15.2109375 C-0.33289891 12.15883578 -0.19036457 9.51822852 -0.125 6.25 C-0.09792969 4.49429687 -0.09792969 4.49429687 -0.0703125 2.703125 C-0.04710937 1.81109375 -0.02390625 0.9190625 0 0 Z " fill="#DEDEDE" transform="translate(61,14)"/>
<path d="M0 0 C0.66 0 1.32 0 2 0 C0.63422544 4.28493007 -1.20681345 6.43145705 -4.625 9.3125 C-5.44226563 10.00988281 -6.25953125 10.70726563 -7.1015625 11.42578125 C-7.72804688 11.94527344 -8.35453125 12.46476562 -9 13 C-8.67 13.598125 -8.34 14.19625 -8 14.8125 C-7 17 -7 17 -7 20 C-7.391875 19.484375 -7.78375 18.96875 -8.1875 18.4375 C-9.92840902 16.71231031 -9.92840902 16.71231031 -12.375 17.25 C-13.24125 17.4975 -14.1075 17.745 -15 18 C-16.66666667 18.33333333 -18.33333333 18.66666667 -20 19 C-20 19.99 -20 20.98 -20 22 C-19.071875 22.0928125 -19.071875 22.0928125 -18.125 22.1875 C-17.42375 22.455625 -16.7225 22.72375 -16 23 C-15.34 24.65 -14.68 26.3 -14 28 C-18.62 28 -23.24 28 -28 28 C-28 29.32 -28 30.64 -28 32 C-22.39 32 -16.78 32 -11 32 C-10.67 33.32 -10.34 34.64 -10 36 C-13.64581687 36.02887512 -17.29160463 36.04675585 -20.9375 36.0625 C-22.49887695 36.07506836 -22.49887695 36.07506836 -24.09179688 36.08789062 C-25.08115234 36.09111328 -26.07050781 36.09433594 -27.08984375 36.09765625 C-28.46450806 36.10551147 -28.46450806 36.10551147 -29.86694336 36.11352539 C-32 36 -32 36 -33 35 C-33.55455279 31.60336415 -33.6187366 29.0975469 -31.89453125 26.0390625 C-26.42950116 19.21114837 -18.47654633 14.55812361 -10.625 10.890625 C-9.820625 10.44976562 -9.820625 10.44976562 -9 10 C-8.896875 9.38125 -8.79375 8.7625 -8.6875 8.125 C-7.53413916 4.5600665 -4.20895378 3.71908238 -1 2 C-0.67 1.34 -0.34 0.68 0 0 Z " fill="#292824" transform="translate(98,77)"/>
<path d="M0 0 C2.475 0.495 2.475 0.495 5 1 C4.47403544 5.16875613 2.19493533 7.26819527 -0.625 10.25 C-1.54356762 11.23251337 -2.46153402 12.21558915 -3.37890625 13.19921875 C-4.67634766 14.58560547 -4.67634766 14.58560547 -6 16 C-7.19520717 17.34736907 -8.3837564 18.70070445 -9.5625 20.0625 C-10.10519531 20.68253906 -10.64789063 21.30257812 -11.20703125 21.94140625 C-12.58708614 23.52591371 -13.95769491 25.11865204 -15.32421875 26.71484375 C-16.12472656 27.63394531 -16.92523438 28.55304688 -17.75 29.5 C-18.85601562 30.78390625 -18.85601562 30.78390625 -19.984375 32.09375 C-22 34 -22 34 -25 34 C-25.2784375 34.58265625 -25.556875 35.1653125 -25.84375 35.765625 C-27.72500567 39.40102447 -29.66381828 42.54851424 -33 45 C-36.4146347 45.58609402 -39.57263057 45.42672781 -43 45 C-43 44.01 -43 43.02 -43 42 C-42.40832031 41.98582031 -41.81664062 41.97164062 -41.20703125 41.95703125 C-36.89023098 41.69647397 -34.57684066 41.4418354 -31.0625 38.75 C-28.9440883 36.21501883 -28.9440883 36.21501883 -28.1953125 33.69140625 C-26.66984134 30.25660353 -24.38382265 27.85924474 -21.8125 25.1875 C-20.8105975 24.12035506 -19.80929464 23.05264681 -18.80859375 21.984375 C-18.0813208 21.21383789 -18.0813208 21.21383789 -17.33935547 20.42773438 C-11.22371159 13.90854273 -5.62581519 6.9397811 0 0 Z " fill="#929190" transform="translate(51,71)"/>
<path d="M0 0 C0 3 0 3 -2 5.125 C-2.45246094 5.55296875 -2.90492187 5.9809375 -3.37109375 6.421875 C-7.7745508 10.68805401 -12.20321129 15.19707452 -15.125 20.625 C-17.31111465 24.56000638 -19.98021424 27.68830161 -23 31 C-22.01 32.32 -21.02 33.64 -20 35 C-22 34 -24 33 -26 32 C-26 31.34 -26 30.68 -26 30 C-26.82371094 29.61908203 -26.82371094 29.61908203 -27.6640625 29.23046875 C-34.79078019 25.4764285 -42.85977552 20.10207738 -47 13 C-47.70852847 10.55844919 -47.89527595 8.56573932 -48 6 C-48.66 6 -49.32 6 -50 6 C-49.96385811 17.52926343 -46.81127419 24.00667091 -40 33 C-44.88690096 30.87388075 -47.45091064 27.61228191 -50 23 C-52.02554212 16.68507455 -52.63944123 10.44066198 -51 4 C-48.9375 2.5 -48.9375 2.5 -47 2 C-45.48814494 3.51185506 -45.92559201 4.95570428 -45.875 7.0625 C-45.22483607 13.01762465 -42.45098384 16.17095498 -38 20 C-34.09930828 22.83554024 -30.10269036 25.46697607 -26 28 C-25.87431641 27.16662109 -25.87431641 27.16662109 -25.74609375 26.31640625 C-23.3253926 18.80082623 -7.88471431 0 0 0 Z " fill="#8A8A89" transform="translate(111,8)"/>
<path d="M0 0 C0 35.31 0 70.62 0 107 C-5.61 107 -11.22 107 -17 107 C-17 106.67 -17 106.34 -17 106 C-12.05 106 -7.1 106 -2 106 C-2.33 72.67 -2.66 39.34 -3 5 C-3.99 5 -4.98 5 -6 5 C-1.125 0 -1.125 0 0 0 Z " fill="#BBBAB9" transform="translate(114,11)"/>
<path d="M0 0 C0.66 0 1.32 0 2 0 C2 28.71 2 57.42 2 87 C-1.465 87.495 -1.465 87.495 -5 88 C-5.99 88.495 -5.99 88.495 -7 89 C-7 86.36 -7 83.72 -7 81 C-6.67 81 -6.34 81 -6 81 C-6 82.65 -6 84.3 -6 86 C-3.03 85.505 -3.03 85.505 0 85 C0 74.11 0 63.22 0 52 C-0.99 52.66 -1.98 53.32 -3 54 C-2.125 48.25 -2.125 48.25 -1 46 C-0.88213309 44.51987176 -0.82307062 43.03483534 -0.79467773 41.55029297 C-0.77473251 40.62948944 -0.75478729 39.70868591 -0.73423767 38.75997925 C-0.70916893 37.26617233 -0.70916893 37.26617233 -0.68359375 35.7421875 C-0.66281265 34.72399933 -0.64203156 33.70581116 -0.62062073 32.6567688 C-0.55510534 29.39624945 -0.49623098 26.13564794 -0.4375 22.875 C-0.39431668 20.66796017 -0.35070245 18.46092872 -0.30664062 16.25390625 C-0.19942195 10.83602499 -0.09765926 5.41806154 0 0 Z " fill="#2B2B29" transform="translate(103,23)"/>
<path d="M0 0 C0.66 0 1.32 0 2 0 C2.33 1.65 2.66 3.3 3 5 C10.92 5 18.84 5 27 5 C27 5.99 27 6.98 27 8 C18.09 8 9.18 8 0 8 C0 9.32 0 10.64 0 12 C6.93 12 13.86 12 21 12 C21 12.99 21 13.98 21 15 C17.59623106 16.70188447 13.81324101 16.18458114 10.0625 16.1875 C8.8259668 16.20586914 8.8259668 16.20586914 7.56445312 16.22460938 C6.37432617 16.22750977 6.37432617 16.22750977 5.16015625 16.23046875 C4.43449463 16.23457764 3.70883301 16.23868652 2.96118164 16.24291992 C1 16 1 16 -2 14 C-2.36328125 11.50390625 -2.36328125 11.50390625 -2.3125 8.5625 C-2.30863281 7.59441406 -2.30476563 6.62632813 -2.30078125 5.62890625 C-2 3 -2 3 0 0 Z " fill="#2A2824" transform="translate(60,112)"/>
<path d="M0 0 C8.91 0 17.82 0 27 0 C26.04065919 3.83736322 25.76390737 4.59660228 23 7 C24.32 6.01 25.64 5.02 27 4 C27.66 4.33 28.32 4.66 29 5 C27.02 6.65 25.04 8.3 23 10 C23.99 11.65 24.98 13.3 26 15 C24.0625 14.1875 24.0625 14.1875 22 13 C21.67 12.01 21.34 11.02 21 10 C19.75863281 10.03480469 18.51726562 10.06960937 17.23828125 10.10546875 C15.59636774 10.13361584 13.95443954 10.16091501 12.3125 10.1875 C11.49587891 10.21263672 10.67925781 10.23777344 9.83789062 10.26367188 C5.02153514 10.32217012 1.96024846 10.07302376 -2 7 C5.66666667 7 13.33333333 7 21 7 C21 6.01 21 5.02 21 4 C14.07 4 7.14 4 0 4 C0 2.68 0 1.36 0 0 Z " fill="#807F7D" transform="translate(60,120)"/>
<path d="M0 0 C0.33 0 0.66 0 1 0 C1 30.03 1 60.06 1 91 C-2.465 91.495 -2.465 91.495 -6 92 C-6.66 93.98 -7.32 95.96 -8 98 C-2.72 98 2.56 98 8 98 C8 98.33 8 98.66 8 99 C7.44538086 99.0093457 6.89076172 99.01869141 6.31933594 99.02832031 C3.79533519 99.08215722 1.27316186 99.16577254 -1.25 99.25 C-2.12269531 99.26417969 -2.99539062 99.27835937 -3.89453125 99.29296875 C-9.15509374 99.44166706 -9.15509374 99.44166706 -13.609375 102.046875 C-14.06828125 102.69140625 -14.5271875 103.3359375 -15 104 C-15 101 -15 101 -13 98 C-12.34 98 -11.68 98 -11 98 C-10.59866786 87.30089105 -10.59866786 87.30089105 -13 77 C-10 79 -10 79 -9.26953125 81.8203125 C-9.11871094 82.91085938 -8.96789062 84.00140625 -8.8125 85.125 C-8.65394531 86.22070312 -8.49539062 87.31640625 -8.33203125 88.4453125 C-8.22246094 89.28835937 -8.11289063 90.13140625 -8 91 C-7.505 90.505 -7.505 90.505 -7 90 C-4.69 90 -2.38 90 0 90 C0 60.3 0 30.6 0 0 Z " fill="#737271" transform="translate(105,20)"/>
<path d="M0 0 C0.66 0.33 1.32 0.66 2 1 C1.01 1.7734375 1.01 1.7734375 0 2.5625 C-2.74003605 5.376419 -2.74003605 5.376419 -2 12 C5.26 12.33 12.52 12.66 20 13 C20.33 12.01 20.66 11.02 21 10 C21 12.64 21 15.28 21 18 C20.34 18.33 19.68 18.66 19 19 C19 18.34 19 17.68 19 17 C11.08 17 3.16 17 -5 17 C-5.33 15.35 -5.66 13.7 -6 12 C-6.66 12 -7.32 12 -8 12 C-8.66 15.96 -9.32 19.92 -10 24 C-10.33 24 -10.66 24 -11 24 C-11.05437607 22.41705218 -11.09296271 20.83355744 -11.125 19.25 C-11.14820313 18.36828125 -11.17140625 17.4865625 -11.1953125 16.578125 C-10.99139502 13.8864142 -10.36551721 12.30095026 -9 10 C-8.34 10 -7.68 10 -7 10 C-6.773125 9.46375 -6.54625 8.9275 -6.3125 8.375 C-4.56617944 5.21499137 -2.3597151 2.7323017 0 0 Z " fill="#63615E" transform="translate(68,100)"/>
<path d="M0 0 C0.85389222 2.88512067 0.99224612 5.14096826 0.75 8.125 C0.64975545 13.16228869 2.47123083 16.61143473 4.90625 20.93359375 C6 23 6 23 6 25 C10.10899581 23.87204037 14.07561214 22.66489182 18 21 C18 20.34 18 19.68 18 19 C17.360625 18.71125 16.72125 18.4225 16.0625 18.125 C14 17 14 17 13 15 C16 16.5 16 16.5 19 18 C19 18.66 19 19.32 19 20 C22.465 19.505 22.465 19.505 26 19 C25.67 19.66 25.34 20.32 25 21 C22.67843403 21.40729228 20.3431213 21.74438677 18 22 C18 22.66 18 23.32 18 24 C16.34467377 25.01866229 14.67739862 26.01810813 13 27 C12.67 27.66 12.34 28.32 12 29 C10.80375 29.391875 9.6075 29.78375 8.375 30.1875 C0.40982352 33.03220589 -4.27387303 40.33494914 -9 47 C-9 41.9293587 -5.25257766 38.67814857 -2 35 C0.57272301 32.54360881 3.23341956 30.23482212 6 28 C5.51080078 27.29037109 5.51080078 27.29037109 5.01171875 26.56640625 C0.12629365 19.17341782 -2.74756512 12.79606459 -1.421875 3.84765625 C-1 2 -1 2 0 0 Z " fill="#54514F" transform="translate(60,58)"/>
<path d="M0 0 C0.99 0.33 1.98 0.66 3 1 C2.99097656 1.556875 2.98195313 2.11375 2.97265625 2.6875 C3.19948738 8.52593599 4.63940792 11.80302979 8.6796875 16.00390625 C13.11793071 19.8219909 18.02683659 22.92954115 23 26 C23.33 25.01 23.66 24.02 24 23 C24 23.99 24 24.98 24 26 C24.99 26 25.98 26 27 26 C27 25.01 27 24.02 27 23 C29.5 21.3125 29.5 21.3125 32 20 C30.47291037 23.43595166 28.40072955 26.11912454 26 29 C26.99 30.32 27.98 31.64 29 33 C27 32 25 31 23 30 C23 29.34 23 28.68 23 28 C22.17628906 27.61908203 22.17628906 27.61908203 21.3359375 27.23046875 C14.20921981 23.4764285 6.14022448 18.10207738 2 11 C1.29147153 8.55844919 1.10472405 6.56573932 1 4 C0.34 4 -0.32 4 -1 4 C-0.96385811 15.52926343 2.18872581 22.00667091 9 31 C4.11309904 28.87388075 1.54908936 25.61228191 -1 21 C-3.05547717 14.59174766 -3.43057497 8.55680194 -2 2 C-1.34 1.34 -0.68 0.68 0 0 Z " fill="#585450" transform="translate(62,10)"/>
<path d="M0 0 C0.66 0 1.32 0 2 0 C0.63422544 4.28493007 -1.20681345 6.43145705 -4.625 9.3125 C-5.44226563 10.00988281 -6.25953125 10.70726563 -7.1015625 11.42578125 C-7.72804688 11.94527344 -8.35453125 12.46476562 -9 13 C-8.67 13.598125 -8.34 14.19625 -8 14.8125 C-7 17 -7 17 -7 20 C-7.391875 19.484375 -7.78375 18.96875 -8.1875 18.4375 C-9.92840902 16.71231031 -9.92840902 16.71231031 -12.375 17.25 C-13.24125 17.4975 -14.1075 17.745 -15 18 C-16.66666667 18.33333333 -18.33333333 18.66666667 -20 19 C-20.33 19.99 -20.66 20.98 -21 22 C-21 21.34 -21 20.68 -21 20 C-22.65 20.33 -24.3 20.66 -26 21 C-21.50894291 17.20755179 -16.70863932 14.55097719 -11.546875 11.78125 C-8.68536218 9.77994655 -8.60903339 9.24376482 -8 6 C-6.40625 4.8046875 -6.40625 4.8046875 -4.5 3.875 C-0.96744249 2.41591483 -0.96744249 2.41591483 0 0 Z " fill="#5D5C5B" transform="translate(98,77)"/>
<path d="M0 0 C7.59 0 15.18 0 23 0 C23 1.32 23 2.64 23 4 C15.08 4 7.16 4 -1 4 C-0.67 2.68 -0.34 1.36 0 0 Z " fill="#DBDADA" transform="translate(23,112)"/>
<path d="M0 0 C2.475 0.495 2.475 0.495 5 1 C4.45700313 4.80097811 2.92723228 6.57457897 0 9 C-2.1875 9.8125 -2.1875 9.8125 -4 10 C-4.33 9.67 -4.66 9.34 -5 9 C-5.58007812 9.73605469 -6.16015625 10.47210938 -6.7578125 11.23046875 C-10.85901026 16.35358212 -14.72268578 21.07584327 -20 25 C-18.43084899 21.2926652 -16.12104746 18.79108136 -13.375 15.875 C-8.65319113 10.77572095 -4.26399604 5.4907882 0 0 Z " fill="#BFBEBD" transform="translate(51,71)"/>
<path d="M0 0 C3.78716158 1.50362259 7.55245187 3.05487001 11.3125 4.625 C12.38113281 5.07101563 13.44976562 5.51703125 14.55078125 5.9765625 C15.76314453 6.48316406 15.76314453 6.48316406 17 7 C16.01 7.495 16.01 7.495 15 8 C14.01 7.67 13.02 7.34 12 7 C11.67 8.32 11.34 9.64 11 11 C11 10.01 11 9.02 11 8 C10.34 8.165 9.68 8.33 9 8.5 C5.26900206 9.12183299 1.78126622 9.06408926 -2 9 C-2 8.01 -2 7.02 -2 6 C-3.32 6.99 -4.64 7.98 -6 9 C-4.84826645 6.53199953 -3.95216435 4.95216435 -2 3 C-1.01 3 -0.02 3 1 3 C1 3.66 1 4.32 1 5 C2.65 5 4.3 5 6 5 C5.195625 4.54625 4.39125 4.0925 3.5625 3.625 C1 2 1 2 0 0 Z " fill="#454442" transform="translate(71,41)"/>
<path d="M0 0 C0.33 0.99 0.66 1.98 1 3 C0.67 3.33 0.34 3.66 0 4 C-0.23287008 5.68183948 -0.41264166 7.3712416 -0.5625 9.0625 C-0.64628906 9.98160156 -0.73007812 10.90070313 -0.81640625 11.84765625 C-0.90728516 12.91306641 -0.90728516 12.91306641 -1 14 C-0.34 14 0.32 14 1 14 C1 14.99 1 15.98 1 17 C1.66 17 2.32 17 3 17 C4.515625 18.609375 4.515625 18.609375 6.25 20.75 C9.23889722 24.284042 12.02006918 26.6702844 16 29 C15.01 29.33 14.02 29.66 13 30 C7.18566497 26.22733986 0.82780715 21.4635592 -2 15 C-2 12.03 -2 9.06 -2 6 C-9.59 6 -17.18 6 -25 6 C-25 5.67 -25 5.34 -25 5 C-17.41 5 -9.82 5 -2 5 C-1.34 3.35 -0.68 1.7 0 0 Z " fill="#2D2C27" transform="translate(49,105)"/>
<path d="M0 0 C2 1.375 2 1.375 4 3 C4 3.66 4 4.32 4 5 C4.66 5 5.32 5 6 5 C5.67 6.32 5.34 7.64 5 9 C-0.61 8.67 -6.22 8.34 -12 8 C-12 6.68 -12 5.36 -12 4 C-5.565 3.505 -5.565 3.505 1 3 C0.67 2.01 0.34 1.02 0 0 Z " fill="#A2A2A1" transform="translate(82,101)"/>
<path d="M0 0 C6.39105175 0.50125896 12.0611589 2.15613793 18.14453125 4.16015625 C20.98361378 5.14108316 20.98361378 5.14108316 24 5 C24 4.34 24 3.68 24 3 C23.01 2.67 22.02 2.34 21 2 C21.33 1.34 21.66 0.68 22 0 C28.70459519 4.11378556 28.70459519 4.11378556 29.9375 7.8125 C29.958125 8.534375 29.97875 9.25625 30 10 C26.16718553 9.30570089 22.52735318 8.292396 18.8125 7.125 C13.87006656 5.57487315 8.91597609 4.09937142 3.92578125 2.7109375 C2 2 2 2 0 0 Z " fill="#5B5A57" transform="translate(65,135)"/>
<path d="M0 0 C0.33 0.66 0.66 1.32 1 2 C0.67 2.66 0.34 3.32 0 4 C6.435 3.505 6.435 3.505 13 3 C13 3.99 13 4.98 13 6 C7.42932723 7.59162079 2.78898419 8.20674944 -3 8 C-3 7.34 -3 6.68 -3 6 C-3.66 6 -4.32 6 -5 6 C-5.66 7.98 -6.32 9.96 -7 12 C-7.8125 10.3125 -7.8125 10.3125 -8 8 C-5.75 5.4375 -5.75 5.4375 -3 3 C-2.401875 2.401875 -1.80375 1.80375 -1.1875 1.1875 C-0.795625 0.795625 -0.40375 0.40375 0 0 Z " fill="#868583" transform="translate(69,46)"/>
<path d="M0 0 C0.66 0 1.32 0 2 0 C1.67 1.32 1.34 2.64 1 4 C0.34 4 -0.32 4 -1 4 C-1.2784375 4.58265625 -1.556875 5.1653125 -1.84375 5.765625 C-3.72500567 9.40102447 -5.66381828 12.54851424 -9 15 C-12.4146347 15.58609402 -15.57263057 15.42672781 -19 15 C-19 14.01 -19 13.02 -19 12 C-17.081875 12.0928125 -17.081875 12.0928125 -15.125 12.1875 C-10.1100707 11.7106446 -7.69125634 9.11422085 -4.5625 5.4375 C-3.73878906 4.42558594 -2.91507813 3.41367188 -2.06640625 2.37109375 C-1.38449219 1.58863281 -0.70257812 0.80617188 0 0 Z " fill="#D3D2D1" transform="translate(27,101)"/>
<path d="M0 0 C3 2 3 2 3.73046875 4.828125 C3.95669922 6.52195312 3.95669922 6.52195312 4.1875 8.25 C4.34605469 9.36890625 4.50460938 10.4878125 4.66796875 11.640625 C5 15 5 15 5 21 C10.28 21 15.56 21 21 21 C21 21.33 21 21.66 21 22 C20.16807129 22.01401855 20.16807129 22.01401855 19.31933594 22.02832031 C16.79533519 22.08215722 14.27316186 22.16577254 11.75 22.25 C10.87730469 22.26417969 10.00460938 22.27835938 9.10546875 22.29296875 C3.84490626 22.44166706 3.84490626 22.44166706 -0.609375 25.046875 C-1.06828125 25.69140625 -1.5271875 26.3359375 -2 27 C-2 24 -2 24 0 21 C0.66 21 1.32 21 2 21 C2.40133214 10.30089105 2.40133214 10.30089105 0 0 Z " fill="#605F5D" transform="translate(92,97)"/>
<path d="M0 0 C0 3 0 3 -2.0625 5.1875 C-2.73925781 5.81785156 -2.73925781 5.81785156 -3.4296875 6.4609375 C-5.96356703 8.94439157 -8.17895017 11.70246573 -10.44921875 14.42578125 C-10.96097656 14.94527344 -11.47273438 15.46476562 -12 16 C-12.66 16 -13.32 16 -14 16 C-12.73921581 9.44392223 -9.67390017 5.33951988 -4.71875 1.1015625 C-3 0 -3 0 0 0 Z " fill="#A8A8A7" transform="translate(111,8)"/>
<path d="M0 0 C0 0.66 0 1.32 0 2 C-2.9195043 2.9731681 -5.05444951 3.1929546 -8.10546875 3.31640625 C-9.08837891 3.35830078 -10.07128906 3.40019531 -11.08398438 3.44335938 C-12.62022461 3.50233398 -12.62022461 3.50233398 -14.1875 3.5625 C-15.22326172 3.60568359 -16.25902344 3.64886719 -17.32617188 3.69335938 C-19.8839819 3.79944366 -22.44188845 3.90150146 -25 4 C-25 3.34 -25 2.68 -25 2 C-17.11397936 -0.62867355 -8.22658676 -0.14320944 0 0 Z " fill="#D0D0CF" transform="translate(92,57)"/>
<path d="M0 0 C1.65 0 3.3 0 5 0 C5.7109375 2.2421875 5.7109375 2.2421875 6 5 C4.6015625 7.1328125 4.6015625 7.1328125 2.625 9.125 C-0.3291693 12.14188169 -0.3291693 12.14188169 -2 16 C-3.32488113 16.36548445 -4.66018514 16.6937566 -6 17 C-8.2072358 18.48800372 -8.2072358 18.48800372 -10 20 C-8.32538115 16.0798695 -5.71110116 12.98782939 -3 9.75 C-2.54882812 9.19570313 -2.09765625 8.64140625 -1.6328125 8.0703125 C-0.46926971 6.67268418 0.76094738 5.33114437 2 4 C2.66 4 3.32 4 4 4 C4 3.01 4 2.02 4 1 C2.35 1.66 0.7 2.32 -1 3 C-0.67 2.01 -0.34 1.02 0 0 Z " fill="#474644" transform="translate(107,7)"/>
<path d="M0 0 C0.33 1.32 0.66 2.64 1 4 C2.98 4.495 2.98 4.495 5 5 C4.01 5 3.02 5 2 5 C2 5.66 2 6.32 2 7 C8.435 6.505 8.435 6.505 15 6 C12.50494038 8.49505962 11.32671112 8.35948376 7.875 8.625 C6.96492188 8.69976562 6.05484375 8.77453125 5.1171875 8.8515625 C4.06917969 8.92503906 4.06917969 8.92503906 3 9 C3 9.99 3 10.98 3 12 C8.28 12 13.56 12 19 12 C19 12.33 19 12.66 19 13 C10.585 13.495 10.585 13.495 2 14 C2 13.01 2 12.02 2 11 C1.34 11 0.68 11 0 11 C0 7.37 0 3.74 0 0 Z " fill="#7D7C7A" transform="translate(65,54)"/>
<path d="M0 0 C0 0.99 0 1.98 0 3 C-7.59 3 -15.18 3 -23 3 C-23 2.34 -23 1.68 -23 1 C-15.31516461 0.32546899 -7.71589817 -0.1567564 0 0 Z " fill="#D2D1D1" transform="translate(87,113)"/>
<path d="M0 0 C5.61 0 11.22 0 17 0 C17 0.66 17 1.32 17 2 C13.93466836 3.53266582 10.73245728 3.10276471 7.375 3.0625 C6.66859375 3.05798828 5.9621875 3.05347656 5.234375 3.04882812 C3.48954725 3.03703875 1.744763 3.01910324 0 3 C0 2.01 0 1.02 0 0 Z " fill="#22201D" transform="translate(64,125)"/>
<path d="M0 0 C0.75 1.625 0.75 1.625 1 4 C-1.68729281 9.37458562 -4.81382601 11.40691301 -10 14 C-9.34 12.68 -8.68 11.36 -8 10 C-7.34 10 -6.68 10 -6 10 C-5.938125 9.278125 -5.87625 8.55625 -5.8125 7.8125 C-4.75543353 4.15342375 -2.79449929 2.50788398 0 0 Z " fill="#EAEAEA" transform="translate(92,114)"/>
<path d="M0 0 C0 3.99833488 -1.35814212 4.81158018 -4.0625 7.6875 C-7.66104696 11.55849215 -11.16448034 15.47930669 -14.58984375 19.50390625 C-16 21 -16 21 -18 22 C-16.41205122 18.23303261 -14.02448488 15.65956183 -11.25 12.6875 C-7.40417596 8.52955112 -3.65383709 4.32691235 0 0 Z " fill="#5B5A55" transform="translate(49,74)"/>
<path d="M0 0 C2 1 4 2 6 3 C6 3.66 6 4.32 6 5 C9.465 4.505 9.465 4.505 13 4 C12.67 4.66 12.34 5.32 12 6 C9.67843403 6.40729228 7.3431213 6.74438677 5 7 C5 7.66 5 8.32 5 9 C3.02 9.33 1.04 9.66 -1 10 C0.28965176 8.62437146 1.62689293 7.29233607 3 6 C3.66 6 4.32 6 5 6 C5 5.34 5 4.68 5 4 C4.360625 3.71125 3.72125 3.4225 3.0625 3.125 C1 2 1 2 0 0 Z " fill="#525150" transform="translate(73,73)"/>
<path d="M0 0 C1.66674321 2.91824244 2.2432008 4.97594379 2.1953125 8.328125 C2.18886719 9.12734375 2.18242188 9.9265625 2.17578125 10.75 C2.15902344 11.575 2.14226562 12.4 2.125 13.25 C2.11146484 14.51070312 2.11146484 14.51070312 2.09765625 15.796875 C2.07415817 17.86470604 2.03828908 19.93238995 2 22 C1.67 22 1.34 22 1 22 C1 18.04 1 14.08 1 10 C-0.32 10.99 -1.64 11.98 -3 13 C-2.343621 8.51474352 -1.29925791 4.33085971 0 0 Z " fill="#41403E" transform="translate(103,64)"/>
<path d="M0 0 C0.33 0.99 0.66 1.98 1 3 C1.66 3 2.32 3 3 3 C4.515625 4.609375 4.515625 4.609375 6.25 6.75 C9.23889722 10.284042 12.02006918 12.6702844 16 15 C15.01 15.33 14.02 15.66 13 16 C10.37109375 14.234375 10.37109375 14.234375 7.4375 11.75 C6.46683594 10.94046875 5.49617188 10.1309375 4.49609375 9.296875 C2 7 2 7 0 4 C0 2.68 0 1.36 0 0 Z " fill="#5F5E5D" transform="translate(49,119)"/>
<path d="M0 0 C0.33 0 0.66 0 1 0 C1 2.64 1 5.28 1 8 C0.01 8.495 0.01 8.495 -1 9 C-1 8.34 -1 7.68 -1 7 C-8.59 7 -16.18 7 -24 7 C-24 6.67 -24 6.34 -24 6 C-16.41 6 -8.82 6 -1 6 C-0.67 4.02 -0.34 2.04 0 0 Z " fill="#706F6D" transform="translate(88,110)"/>
<path d="M0 0 C0.33 0.66 0.66 1.32 1 2 C0.67 2.66 0.34 3.32 0 4 C1.32 2.68 2.64 1.36 4 0 C4.66 0.33 5.32 0.66 6 1 C3.69 3.64 1.38 6.28 -1 9 C-1.33 8.34 -1.66 7.68 -2 7 C-1.67 6.34 -1.34 5.68 -1 5 C-2.98 6.32 -4.96 7.64 -7 9 C-5.44499019 5.18315774 -2.96404505 2.80804268 0 0 Z " fill="#6C6B68" transform="translate(30,96)"/>
<path d="M0 0 C0 0.99 0 1.98 0 3 C-11.385 2.505 -11.385 2.505 -23 2 C-23 1.67 -23 1.34 -23 1 C-15.3164908 0.38794237 -7.70947565 -0.13292199 0 0 Z " fill="#B8B7B7" transform="translate(93,66)"/>
<path d="M0 0 C0.33 0 0.66 0 1 0 C1 1.65 1 3.3 1 5 C8.59 5 16.18 5 24 5 C24 5.33 24 5.66 24 6 C15.75 6 7.5 6 -1 6 C-1.33 5.01 -1.66 4.02 -2 3 C-1.34 2.01 -0.68 1.02 0 0 Z " fill="#757571" transform="translate(21,111)"/>
<path d="M0 0 C0 4.38968456 -2.12805101 5.76905739 -5 9 C-4.01 10.32 -3.02 11.64 -2 13 C-8 10 -8 10 -8.75 8.125 C-9 6 -9 6 -7 3 C-7 3.99 -7 4.98 -7 6 C-6.01 6 -5.02 6 -4 6 C-4 5.01 -4 4.02 -4 3 C-2 1.3125 -2 1.3125 0 0 Z " fill="#4C4C4A" transform="translate(93,30)"/>
<path d="M0 0 C0.33 0.99 0.66 1.98 1 3 C-0.8125 5.6875 -0.8125 5.6875 -3 8 C-3.66 8 -4.32 8 -5 8 C-5.66 9.32 -6.32 10.64 -7 12 C-7.66 12 -8.32 12 -9 12 C-7.54718935 6.67302761 -3.91888622 3.63597198 0 0 Z " fill="#D4D4D3" transform="translate(39,88)"/>
<path d="M0 0 C0.66 0 1.32 0 2 0 C0.82884146 3.33329739 -0.11647596 5.86405627 -3 8 C-5.6875 8.6875 -5.6875 8.6875 -8 9 C-8 8.01 -8 7.02 -8 6 C-6.20963542 5.0234375 -4.41927083 4.046875 -2.62890625 3.0703125 C-0.83381685 2.08589976 -0.83381685 2.08589976 0 0 Z " fill="#949493" transform="translate(98,77)"/>
<path d="M0 0 C0 0.33 0 0.66 0 1 C-10.395 2.485 -10.395 2.485 -21 4 C-21.33 3.34 -21.66 2.68 -22 2 C-14.56340812 -0.01670288 -7.68395543 -0.2137731 0 0 Z " fill="#484746" transform="translate(93,69)"/>
<path d="M0 0 C0.66 0 1.32 0 2 0 C2.66 3.3 3.32 6.6 4 10 C2.68 10.33 1.36 10.66 0 11 C0 7.37 0 3.74 0 0 Z " fill="#E4E3E3" transform="translate(61,14)"/>
<path d="M0 0 C0 0.99 0 1.98 0 3 C-6.435 3.495 -6.435 3.495 -13 4 C-13 3.34 -13 2.68 -13 2 C-4.57142857 -0.28571429 -4.57142857 -0.28571429 0 0 Z " fill="#D4D3D3" transform="translate(82,49)"/>
<path d="M0 0 C1.13115234 0.07831055 1.13115234 0.07831055 2.28515625 0.15820312 C4.1487937 0.28795004 6.01194996 0.42457488 7.875 0.5625 C7.875 0.8925 7.875 1.2225 7.875 1.5625 C1.935 1.8925 -4.005 2.2225 -10.125 2.5625 C-10.125 1.9025 -10.125 1.2425 -10.125 0.5625 C-6.91158631 -1.04420684 -3.49541032 -0.26260855 0 0 Z " fill="#EFEFEF" transform="translate(32.125,113.4375)"/>
<path d="M0 0 C0.66 0 1.32 0 2 0 C3.30765478 3.92296433 3.1971417 6.86002433 3 11 C2.34 11.66 1.68 12.32 1 13 C-0.10228696 8.59085217 -0.07654536 4.51617599 0 0 Z " fill="#B4B4B3" transform="translate(100,58)"/>
<path d="M0 0 C0 0.66 0 1.32 0 2 C0.66 2.33 1.32 2.66 2 3 C3.0409066 4.64142963 4.04504326 6.30712215 5 8 C3.0625 7.1875 3.0625 7.1875 1 6 C0.67 5.01 0.34 4.02 0 3 C-4.29 2.67 -8.58 2.34 -13 2 C-13 1.67 -13 1.34 -13 1 C-11.20843648 0.83222817 -9.4167455 0.66581706 -7.625 0.5 C-6.62726563 0.4071875 -5.62953125 0.314375 -4.6015625 0.21875 C-2 0 -2 0 0 0 Z " fill="#444340" transform="translate(81,127)"/>
<path d="M0 0 C0.33 0 0.66 0 1 0 C1.33 6.6 1.66 13.2 2 20 C-1.45564964 13.08870073 -0.95803008 7.45789571 0 0 Z " fill="#222220" transform="translate(103,48)"/>
<path d="M0 0 C1.32 0.33 2.64 0.66 4 1 C4 1.66 4 2.32 4 3 C3.34 3 2.68 3 2 3 C2 5.64 2 8.28 2 11 C1.34 11 0.68 11 0 11 C0 7.37 0 3.74 0 0 Z " fill="#444340" transform="translate(98,55)"/>
<path d="M0 0 C0.99 0 1.98 0 3 0 C1.63055898 2.94956528 0.12169591 5.52468811 -2 8 C-2.66 8 -3.32 8 -4 8 C-3.40353695 4.65980694 -2.31705841 2.49529367 0 0 Z " fill="#D5D4D4" transform="translate(101,16)"/>
<path d="M0 0 C0.66 0 1.32 0 2 0 C2 0.99 2 1.98 2 3 C-1.33303391 5.49977543 -2.73303602 6 -7 6 C-7 5.34 -7 4.68 -7 4 C-6.030625 3.525625 -5.06125 3.05125 -4.0625 2.5625 C-1.19522563 1.29806053 -1.19522563 1.29806053 0 0 Z " fill="#E9E9E9" transform="translate(85,86)"/>
<path d="M0 0 C0.99 0.33 1.98 0.66 3 1 C3 1.66 3 2.32 3 3 C3.99 3.33 4.98 3.66 6 4 C6 4.66 6 5.32 6 6 C2.7 5.01 -0.6 4.02 -4 3 C-2.68 2.67 -1.36 2.34 0 2 C0 1.34 0 0.68 0 0 Z " fill="#D4D4D3" transform="translate(92,46)"/>
<path d="M0 0 C0.66 0 1.32 0 2 0 C2 0.66 2 1.32 2 2 C2.99 2.33 3.98 2.66 5 3 C5 4.32 5 5.64 5 7 C3.02 7 1.04 7 -1 7 C-1 6.34 -1 5.68 -1 5 C-1.66 4.67 -2.32 4.34 -3 4 C1.75 4.875 1.75 4.875 4 6 C3.34 5.195625 2.68 4.39125 2 3.5625 C0 1 0 1 0 0 Z " fill="#5A5958" transform="translate(94,46)"/>
<path d="M0 0 C0.99 0.33 1.98 0.66 3 1 C2.67 1.66 2.34 2.32 2 3 C1.01 3 0.02 3 -1 3 C-1.33 3.99 -1.66 4.98 -2 6 C-2 5.34 -2 4.68 -2 4 C-3.65 4.33 -5.3 4.66 -7 5 C-2.25 1.125 -2.25 1.125 0 0 Z " fill="#545452" transform="translate(79,93)"/>
<path d="M0 0 C0.66 0 1.32 0 2 0 C1.67 1.32 1.34 2.64 1 4 C0.34 4 -0.32 4 -1 4 C-1 4.99 -1 5.98 -1 7 C-1.99 7 -2.98 7 -4 7 C-4 6.01 -4 5.02 -4 4 C-3.34 4 -2.68 4 -2 4 C-1.34 2.68 -0.68 1.36 0 0 Z " fill="#CDCCCC" transform="translate(90,29)"/>
<path d="M0 0 C2 3 2 3 2 5 C-0.31 6.32 -2.62 7.64 -5 9 C-4.34 7.68 -3.68 6.36 -3 5 C-2.34 5 -1.68 5 -1 5 C-0.67 3.35 -0.34 1.7 0 0 Z " fill="#BBBBBA" transform="translate(87,119)"/>
<path d="M0 0 C1.65 0.33 3.3 0.66 5 1 C4.625 2.9375 4.625 2.9375 4 5 C3.01 5.495 3.01 5.495 2 6 C2.33 4.68 2.66 3.36 3 2 C1.68 2.33 0.36 2.66 -1 3 C-0.67 2.01 -0.34 1.02 0 0 Z " fill="#4A4948" transform="translate(51,71)"/>
<path d="M0 0 C3.63 0 7.26 0 11 0 C7.39338934 1.80330533 4.91606575 2.46599103 1 3 C0.67 2.01 0.34 1.02 0 0 Z " fill="#9C9B9A" transform="translate(69,69)"/>
<path d="M0 0 C0.99 0 1.98 0 3 0 C1.95125002 2.62187494 1.35068687 3.79371361 -1.125 5.25 C-1.74375 5.4975 -2.3625 5.745 -3 6 C-1.125 1.125 -1.125 1.125 0 0 Z " fill="#EAEAEA" transform="translate(60,93)"/>
<path d="M0 0 C-2 3 -2 3 -4.625 3.6875 C-5.800625 3.8421875 -5.800625 3.8421875 -7 4 C-6.01 3.01 -5.02 2.02 -4 1 C-4.99 0.34 -5.98 -0.32 -7 -1 C-3.51418144 -2.2020064 -3.32007656 -2.21338437 0 0 Z " fill="#8E8E8C" transform="translate(74,84)"/>
<path d="M0 0 C-0.33 1.65 -0.66 3.3 -1 5 C-2.32 4.67 -3.64 4.34 -5 4 C-5 3.01 -5 2.02 -5 1 C-2 0 -2 0 0 0 Z " fill="#D8D8D7" transform="translate(83,95)"/>
<path d="M0 0 C0.66 0 1.32 0 2 0 C2 2.31 2 4.62 2 7 C1.67 6.01 1.34 5.02 1 4 C0.01 4.33 -0.98 4.66 -2 5 C-1.125 1.125 -1.125 1.125 0 0 Z " fill="#767574" transform="translate(62,10)"/>
</svg>
