<?xml version="1.0" encoding="UTF-8"?>
<svg version="1.1" xmlns="http://www.w3.org/2000/svg" width="146" height="130">
<path d="M0 0 C0.7412915 0.2259082 1.48258301 0.45181641 2.24633789 0.68457031 C13.34078833 4.2110594 21.371237 9.75717278 29.6875 17.875 C29.3575 19.195 29.0275 20.515 28.6875 21.875 C25.71104921 21.54428325 24.74317942 20.93589937 22.6875 18.6875 C16.85566536 12.49456105 8.03921649 9.19621987 -0.3125 8.875 C-0.3125 10.525 -0.3125 12.175 -0.3125 13.875 C0.84765625 14.40287109 0.84765625 14.40287109 2.03125 14.94140625 C17.46710581 22.25815474 24.87561934 32.39125708 31.6875 47.875 C31.6875 48.535 31.6875 49.195 31.6875 49.875 C32.22375 50.143125 32.76 50.41125 33.3125 50.6875 C35.6875 51.875 35.6875 51.875 38.1875 53.375 C43.19272278 55.52009548 48.31742784 56.13639784 53.6875 56.875 C54.6875 59.875 54.6875 59.875 53.75 61.8125 C53.399375 62.493125 53.04875 63.17375 52.6875 63.875 C52.6875 65.195 52.6875 66.515 52.6875 67.875 C50.87322878 69.68927122 48.3768127 68.97726884 45.96020508 69.01171875 C36.31082471 69.15803874 36.31082471 69.15803874 28.2421875 74.0078125 C25.98335703 76.72067924 24.0501682 79.56603377 22.1875 82.5625 C18.53941121 88.18663688 14.53988703 92.59195361 8.6875 95.875 C7.24615925 96.98963685 5.83133742 98.13900278 4.4375 99.3125 C3.75171875 99.88871094 3.0659375 100.46492188 2.359375 101.05859375 C0.55052461 103.02381672 0.07733707 104.26653139 -0.3125 106.875 C1.08718739 106.67068833 2.48232492 106.43513717 3.875 106.1875 C4.65230469 106.05988281 5.42960937 105.93226562 6.23046875 105.80078125 C9.61129398 104.526925 11.23663878 102.52526561 13.6875 99.875 C14.81921567 98.74496718 15.95627283 97.62026712 17.09765625 96.5 C18.3151435 95.29170629 19.53259074 94.08337228 20.75 92.875 C21.36166016 92.27171875 21.97332031 91.6684375 22.60351562 91.046875 C25.86554112 87.80248208 28.87924676 84.53090571 31.6875 80.875 C33.75 78.5625 33.75 78.5625 35.6875 76.875 C36.6775 76.875 37.6675 76.875 38.6875 76.875 C39.27041766 82.36275341 37.51120717 85.44058572 34.3125 89.6875 C33.86060303 90.29916016 33.40870605 90.91082031 32.94311523 91.54101562 C24.31590737 102.89835256 13.80972077 110.51771146 -0.03515625 114.1484375 C-2.32202661 114.87803936 -4.00033777 115.81564433 -6 117.125 C-10.13129339 119.30757009 -11.86052842 119.14699188 -16.3125 117.875 C-18.017472 116.90992151 -19.72103376 115.94003225 -21.3828125 114.90234375 C-23.55910092 113.74371246 -25.61407243 113.17613313 -28 112.5625 C-43.13240546 108.22912935 -53.96880703 97.32316751 -62.16796875 84.28515625 C-63.3125 81.875 -63.3125 81.875 -63.3125 77.875 C-61.8275 77.38 -61.8275 77.38 -60.3125 76.875 C-55.39407078 79.80779886 -52.40838815 84.1812341 -49.3125 88.875 C-48.25807012 89.82477183 -47.17341664 90.7419637 -46.0625 91.625 C-45.155 92.3675 -44.2475 93.11 -43.3125 93.875 C-43.3125 94.535 -43.3125 95.195 -43.3125 95.875 C-42.6525 95.875 -41.9925 95.875 -41.3125 95.875 C-40.18079687 97.10295623 -39.10568994 98.38351257 -38.0625 99.6875 C-33.84699061 104.63766248 -29.78244802 106.92353706 -23.3125 107.875 C-25.11118316 103.37270612 -26.56706674 100.02678386 -30.875 97.5625 C-34.39239279 95.36601652 -35.16047549 93.2086057 -36.25 89.25 C-36.9184441 86.32805873 -37.3125 83.87726556 -37.3125 80.875 C-38.78316854 78.89456221 -38.78316854 78.89456221 -40.6875 76.9375 C-44.93655268 72.39993139 -46.3125 70.27320355 -46.3125 63.875 C-42.6825 63.875 -39.0525 63.875 -35.3125 63.875 C-35.3125 62.555 -35.3125 61.235 -35.3125 59.875 C-36.29992188 59.88660156 -37.28734375 59.89820313 -38.3046875 59.91015625 C-39.58601563 59.91917969 -40.86734375 59.92820313 -42.1875 59.9375 C-43.46367188 59.94910156 -44.73984375 59.96070313 -46.0546875 59.97265625 C-49.3125 59.875 -49.3125 59.875 -51.3125 58.875 C-52.3025 59.37 -52.3025 59.37 -53.3125 59.875 C-56.78027256 60.23901366 -60.26734615 60.34285304 -63.75 60.5 C-64.71744141 60.5515625 -65.68488281 60.603125 -66.68164062 60.65625 C-67.61041016 60.70007813 -68.53917969 60.74390625 -69.49609375 60.7890625 C-70.34743896 60.8298291 -71.19878418 60.8705957 -72.07592773 60.91259766 C-74.3125 60.875 -74.3125 60.875 -77.3125 59.875 C-77.3125 58.885 -77.3125 57.895 -77.3125 56.875 C-75.8275 56.67197266 -75.8275 56.67197266 -74.3125 56.46484375 C-67.39019495 55.39441132 -61.09044214 54.38968161 -55.9921875 49.21484375 C-53.54241012 45.80224689 -51.84810047 42.09477948 -50.08911133 38.28979492 C-45.3536626 28.34151768 -37.44852427 20.33825775 -27.3125 15.875 C-25.65686223 15.49061417 -23.99101134 15.14237349 -22.3125 14.875 C-22.9725 12.895 -23.6325 10.915 -24.3125 8.875 C-32.37384989 9.18505192 -40.22044812 12.19052301 -46.2734375 17.640625 C-46.78132813 18.19234375 -47.28921875 18.7440625 -47.8125 19.3125 C-48.6375 20.158125 -49.4625 21.00375 -50.3125 21.875 C-52.46875 21.53515625 -52.46875 21.53515625 -54.3125 20.875 C-49.76551332 10.82259316 -40.13716668 5.79615868 -30.3125 1.875 C-19.57679403 -1.93190829 -10.89796749 -3.35322077 0 0 Z " fill="#403F3D" transform="translate(84.3125,10.125)"/>
<path d="M0 0 C1.37671875 -0.00386719 1.37671875 -0.00386719 2.78125 -0.0078125 C5.45004454 0.12255965 7.89865153 0.53121394 10.5 1.125 C10.5 1.785 10.5 2.445 10.5 3.125 C12.81 3.455 15.12 3.785 17.5 4.125 C17.5 4.785 17.5 5.445 17.5 6.125 C18.23863281 6.34671875 18.97726563 6.5684375 19.73828125 6.796875 C23.16660161 8.4455722 24.50284343 10.28183055 26.6875 13.375 C27.36167969 14.30828125 28.03585938 15.2415625 28.73046875 16.203125 C31.68064177 21.07449237 32.75667796 25.91792977 33.625 31.5 C33.79257813 32.55960938 33.96015625 33.61921875 34.1328125 34.7109375 C34.31457031 35.90589844 34.31457031 35.90589844 34.5 37.125 C32.52 37.125 30.54 37.125 28.5 37.125 C28.52320312 36.23296875 28.54640625 35.3409375 28.5703125 34.421875 C28.58835937 33.25140625 28.60640625 32.0809375 28.625 30.875 C28.64820312 29.71484375 28.67140625 28.5546875 28.6953125 27.359375 C28.50625946 24.22865663 27.99626754 22.78764933 26.5 20.125 C26.5 19.135 26.5 18.145 26.5 17.125 C25.84 17.125 25.18 17.125 24.5 17.125 C23.55896401 15.67983759 22.61874805 14.23413159 21.68359375 12.78515625 C17.94716749 7.54429433 13.95823754 5.4919702 7.7890625 4.3984375 C1.27575183 3.62039698 -5.01952241 4.28493809 -11.5 5.125 C-11.5 5.785 -11.5 6.445 -11.5 7.125 C-12.93977428 8.06252744 -14.38110923 8.9977878 -15.83203125 9.91796875 C-18.64637104 11.9545753 -20.46438453 14.31106097 -22.5 17.125 C-22.5 18.115 -22.5 19.105 -22.5 20.125 C-22.07589844 19.52171875 -21.65179688 18.9184375 -21.21484375 18.296875 C-16.83670396 12.33105815 -13.31848189 8.64662586 -6.125 6.375 C-5.25875 6.2925 -4.3925 6.21 -3.5 6.125 C-2.53126953 6.01285156 -2.53126953 6.01285156 -1.54296875 5.8984375 C6.41302955 5.36896651 12.12752304 8.85374001 18.5625 13.1875 C20.58687684 15.21187684 21.19833707 16.3094793 21.5 19.125 C22.16 19.125 22.82 19.125 23.5 19.125 C26.22993669 26.14483721 27.98028682 32.68413954 25.5 40.125 C24.84 40.125 24.18 40.125 23.5 40.125 C23.45875 40.82625 23.4175 41.5275 23.375 42.25 C22.17153561 46.20424013 19.74829968 48.61769176 16.5 51.125 C15.84 51.125 15.18 51.125 14.5 51.125 C14.5 51.785 14.5 52.445 14.5 53.125 C9.99646738 54.88247614 6.32360189 55.31794408 1.5 55.125 C2.12120671 42.89365405 2.12120671 42.89365405 5.5 39.125 C6.49 39.125 7.48 39.125 8.5 39.125 C8.5 39.785 8.5 40.445 8.5 41.125 C9.49 41.455 10.48 41.785 11.5 42.125 C11.83 41.135 12.16 40.145 12.5 39.125 C14.975 38.63 14.975 38.63 17.5 38.125 C17.995 40.105 17.995 40.105 18.5 42.125 C19.16 42.125 19.82 42.125 20.5 42.125 C20.5 40.805 20.5 39.485 20.5 38.125 C21.16 38.125 21.82 38.125 22.5 38.125 C21.84 37.135 21.18 36.145 20.5 35.125 C20.5 34.135 20.5 33.145 20.5 32.125 C19.84 32.125 19.18 32.125 18.5 32.125 C18.5 33.445 18.5 34.765 18.5 36.125 C16.6875 36 16.6875 36 14.5 35.125 C12.75 32.0625 12.75 32.0625 11.5 29.125 C10.51 29.455 9.52 29.785 8.5 30.125 C8.5 31.115 8.5 32.105 8.5 33.125 C6.125 32.8125 6.125 32.8125 3.5 32.125 C1.47649676 29.08974514 1.17875982 27.93073798 0.875 24.4375 C0.80023438 23.62925781 0.72546875 22.82101563 0.6484375 21.98828125 C0.59945312 21.37339844 0.55046875 20.75851563 0.5 20.125 C-0.16 20.125 -0.82 20.125 -1.5 20.125 C-1.45359375 20.84171875 -1.4071875 21.5584375 -1.359375 22.296875 C-1.51958476 25.51887119 -2.31955349 27.49687268 -3.75 30.375 C-4.37648438 31.68210937 -4.37648438 31.68210937 -5.015625 33.015625 C-6.5 35.125 -6.5 35.125 -8.671875 35.921875 C-9.57679687 36.02242187 -9.57679687 36.02242187 -10.5 36.125 C-10.83 35.135 -11.16 34.145 -11.5 33.125 C-12.16 34.115 -12.82 35.105 -13.5 36.125 C-14.82 35.795 -16.14 35.465 -17.5 35.125 C-17.5 34.135 -17.5 33.145 -17.5 32.125 C-18.16 32.125 -18.82 32.125 -19.5 32.125 C-20.24926071 35.78805234 -20.7380014 38.54855152 -19.5 42.125 C-18.84 42.125 -18.18 42.125 -17.5 42.125 C-17.17 40.805 -16.84 39.485 -16.5 38.125 C-15.51 38.125 -14.52 38.125 -13.5 38.125 C-13.5 38.785 -13.5 39.445 -13.5 40.125 C-12.84 40.125 -12.18 40.125 -11.5 40.125 C-11.17 39.465 -10.84 38.805 -10.5 38.125 C-6.83535945 38.6202217 -4.79167646 39.1458206 -2.5 42.125 C-1.49503148 45.13990557 -1.39664697 47.16681692 -1.4375 50.3125 C-1.44652344 51.21355469 -1.45554688 52.11460938 -1.46484375 53.04296875 C-1.47644531 53.73003906 -1.48804688 54.41710937 -1.5 55.125 C-3.1254308 54.98404936 -4.75034051 54.83707913 -6.375 54.6875 C-7.27992187 54.60628906 -8.18484375 54.52507812 -9.1171875 54.44140625 C-11.5 54.125 -11.5 54.125 -13.5 53.125 C-13.5 52.465 -13.5 51.805 -13.5 51.125 C-14.098125 50.856875 -14.69625 50.58875 -15.3125 50.3125 C-17.49847854 49.12582594 -18.91332594 48.02900887 -20.5 46.125 C-20.5 45.465 -20.5 44.805 -20.5 44.125 C-21.16 44.125 -21.82 44.125 -22.5 44.125 C-22.83 42.145 -23.16 40.165 -23.5 38.125 C-28.12 38.125 -32.74 38.125 -37.5 38.125 C-36.5 34.125 -36.5 34.125 -35.5 32.125 C-34.84 32.125 -34.18 32.125 -33.5 32.125 C-33.4175 31.320625 -33.335 30.51625 -33.25 29.6875 C-32.00229866 23.76091865 -29.2152716 18.50683879 -26.5 13.125 C-25.84 13.125 -25.18 13.125 -24.5 13.125 C-24.29375 12.568125 -24.0875 12.01125 -23.875 11.4375 C-20.85083824 6.35140977 -15.82980793 3.39300337 -10.5 1.125 C-6.95068334 0.2598911 -3.64861342 -0.01024891 0 0 Z " fill="#DEDEDE" transform="translate(73.5,30.875)"/>
<path d="M0 0 C0.7412915 0.2259082 1.48258301 0.45181641 2.24633789 0.68457031 C13.34078833 4.2110594 21.371237 9.75717278 29.6875 17.875 C29.3575 19.195 29.0275 20.515 28.6875 21.875 C25.71104921 21.54428325 24.74317942 20.93589937 22.6875 18.6875 C16.85566536 12.49456105 8.03921649 9.19621987 -0.3125 8.875 C-0.3125 10.525 -0.3125 12.175 -0.3125 13.875 C0.84765625 14.40287109 0.84765625 14.40287109 2.03125 14.94140625 C15.28274297 21.22274512 23.25463969 29.23820091 29.0078125 42.7890625 C29.90671864 45.54777446 29.98215004 48.00216214 29.6875 50.875 C30.326875 51.101875 30.96625 51.32875 31.625 51.5625 C35.82070261 53.36065826 39.72650556 55.61404021 43.6875 57.875 C43.6875 58.205 43.6875 58.535 43.6875 58.875 C41.24933415 58.9559723 38.81385616 59.01546972 36.375 59.0625 C35.68470703 59.08763672 34.99441406 59.11277344 34.28320312 59.13867188 C29.13075817 59.21334499 29.13075817 59.21334499 26.70703125 57.36328125 C26.37058594 56.87214844 26.03414063 56.38101563 25.6875 55.875 C25.6875 56.865 25.6875 57.855 25.6875 58.875 C23.0475 58.875 20.4075 58.875 17.6875 58.875 C17.6875 58.545 17.6875 58.215 17.6875 57.875 C19.6675 57.875 21.6475 57.875 23.6875 57.875 C23.378125 57.194375 23.06875 56.51375 22.75 55.8125 C21.6875 52.875 21.6875 52.875 21.3125 49.625 C20.00911544 41.80469266 16.18625722 34.6074544 10.6875 28.875 C8.59693567 27.65660397 8.59693567 27.65660397 6.6875 26.875 C6.6875 26.215 6.6875 25.555 6.6875 24.875 C4.3775 24.545 2.0675 24.215 -0.3125 23.875 C-0.3125 23.215 -0.3125 22.555 -0.3125 21.875 C-3.81233803 21.78696228 -7.31188638 21.73426392 -10.8125 21.6875 C-12.28589844 21.64979492 -12.28589844 21.64979492 -13.7890625 21.61132812 C-21.10279397 21.53819081 -26.80133244 22.16081174 -32.7734375 26.77734375 C-33.40507813 27.44894531 -34.03671875 28.12054688 -34.6875 28.8125 C-35.33460937 29.48152344 -35.98171875 30.15054688 -36.6484375 30.83984375 C-38.23599322 32.78143185 -39.30030963 34.58990356 -40.3125 36.875 C-40.9725 36.875 -41.6325 36.875 -42.3125 36.875 C-42.47685547 37.85339844 -42.47685547 37.85339844 -42.64453125 38.8515625 C-44.13837232 47.08590595 -45.96221733 52.7369487 -52.97265625 57.75 C-56.99952158 59.68612223 -60.95676382 59.3569872 -65.3125 58.875 C-64.4375 57.85416667 -63.5625 56.83333333 -62.6875 55.8125 C-61.86378906 54.84183594 -61.86378906 54.84183594 -61.0234375 53.8515625 C-59.97119531 52.63595851 -58.89715593 51.43835623 -57.7890625 50.2734375 C-54.55944191 46.80458575 -52.54463168 43.44003385 -50.5625 39.125 C-45.63159614 28.87796541 -37.81596848 20.50005671 -27.3125 15.875 C-25.65686223 15.49061417 -23.99101134 15.14237349 -22.3125 14.875 C-22.9725 12.895 -23.6325 10.915 -24.3125 8.875 C-32.37384989 9.18505192 -40.22044812 12.19052301 -46.2734375 17.640625 C-46.78132813 18.19234375 -47.28921875 18.7440625 -47.8125 19.3125 C-48.6375 20.158125 -49.4625 21.00375 -50.3125 21.875 C-52.46875 21.53515625 -52.46875 21.53515625 -54.3125 20.875 C-49.76551332 10.82259316 -40.13716668 5.79615868 -30.3125 1.875 C-19.57679403 -1.93190829 -10.89796749 -3.35322077 0 0 Z " fill="#C6C6C5" transform="translate(84.3125,10.125)"/>
<path d="M0 0 C5.17278099 3.54059281 8.59463779 6.66493255 12 12 C13.0532555 12.95107399 14.13808286 13.86822385 15.25 14.75 C16.1575 15.4925 17.065 16.235 18 17 C18 17.66 18 18.32 18 19 C18.66 19 19.32 19 20 19 C21.13170313 20.22795623 22.20681006 21.50851257 23.25 22.8125 C27.55682534 27.86989241 31.52686292 29.79037337 38 31 C37.21085079 29.39459341 36.41858235 27.79071984 35.625 26.1875 C35.18414062 25.29417969 34.74328125 24.40085937 34.2890625 23.48046875 C32.98133095 20.85443619 32.98133095 20.85443619 31 18 C34.3 18.33 37.6 18.66 41 19 C41 18.34 41 17.68 41 17 C41.66 17 42.32 17 43 17 C43 16.34 43 15.68 43 15 C44.2375 15.185625 45.475 15.37125 46.75 15.5625 C49.76279577 15.94711223 52.10010827 16.0874594 55 15 C55 15.66 55 16.32 55 17 C59.91756984 18.92901321 59.91756984 18.92901321 64.875 17.8125 C67.25379132 16.09958527 67.25379132 16.09958527 68 13 C66.02 13.33 64.04 13.66 62 14 C67.14285714 9.57142857 67.14285714 9.57142857 71 9 C71 11.31 71 13.62 71 16 C69.515 16.495 69.515 16.495 68 17 C68 17.66 68 18.32 68 19 C66.72178914 20.10351234 65.40175715 21.15893168 64.0625 22.1875 C61.16352055 24.62121114 59.48918073 26.11723146 59 29.9375 C59 30.948125 59 31.95875 59 33 C65.77235301 31.69185938 69.7101452 29.98066804 73.9453125 24.51953125 C77.13270913 20.61103159 80.77824482 17.17801918 84.38208008 13.65673828 C87.49602306 10.58804661 90.32478662 7.47054708 93 4 C95.0625 1.6875 95.0625 1.6875 97 0 C97.99 0 98.98 0 100 0 C100.58291766 5.48775341 98.82370717 8.56558572 95.625 12.8125 C95.17310303 13.42416016 94.72120605 14.03582031 94.25561523 14.66601562 C85.62840737 26.02335256 75.12222077 33.64271146 61.27734375 37.2734375 C58.99047339 38.00303936 57.31216223 38.94064433 55.3125 40.25 C51.18120661 42.43257009 49.45197158 42.27199188 45 41 C43.295028 40.03492151 41.59146624 39.06503225 39.9296875 38.02734375 C37.75339908 36.86871246 35.69842757 36.30113313 33.3125 35.6875 C18.18009454 31.35412935 7.34369297 20.44816751 -0.85546875 7.41015625 C-2 5 -2 5 -2 1 C-1.34 0.67 -0.68 0.34 0 0 Z " fill="#CAC9C9" transform="translate(23,87)"/>
<path d="M0 0 C-0.56847656 0.21914063 -1.13695312 0.43828125 -1.72265625 0.6640625 C-7.56175925 3.06209144 -14.04312156 6.08624312 -17 12 C-17.66 12 -18.32 12 -19 12 C-20.66272809 16.06358315 -22.15572614 20.17533414 -23.625 24.3125 C-23.85445312 24.95767578 -24.08390625 25.60285156 -24.3203125 26.26757812 C-24.8810818 27.84474179 -25.44066291 29.42232784 -26 31 C-26.66 31 -27.32 31 -28 31 C-28.66 32.98 -29.32 34.96 -30 37 C-25.38 37 -20.76 37 -16 37 C-15.505 39.97 -15.505 39.97 -15 43 C-14.34 43 -13.68 43 -13 43 C-11.31267723 44.98260426 -9.64633943 46.9832342 -8 49 C-7.01 49.495 -7.01 49.495 -6 50 C-6 50.66 -6 51.32 -6 52 C-2.04 52.66 1.92 53.32 6 54 C5.74462428 51.8939014 5.47014626 49.79011246 5.1875 47.6875 C5.03667969 46.51574219 4.88585937 45.34398437 4.73046875 44.13671875 C3.99592137 40.98248589 3.57914238 39.85698252 1 38 C-1.10332891 37.28552357 -1.10332891 37.28552357 -3 37 C-3.33 37.99 -3.66 38.98 -4 40 C-4.99 39.505 -4.99 39.505 -6 39 C-6 38.34 -6 37.68 -6 37 C-6.99 37.33 -7.98 37.66 -9 38 C-9.33 38.99 -9.66 39.98 -10 41 C-10.66 41 -11.32 41 -12 41 C-14.21538462 35.58461538 -14.21538462 35.58461538 -13.125 32.625 C-12.75375 32.08875 -12.3825 31.5525 -12 31 C-11.34 31 -10.68 31 -10 31 C-9.67 31.99 -9.34 32.98 -9 34 C-8.01 34.33 -7.02 34.66 -6 35 C-5.34 33.68 -4.68 32.36 -4 31 C-3.505 32.98 -3.505 32.98 -3 35 C0.06478079 34.28760652 0.06478079 34.28760652 1.5 32.0625 C3.55778239 27.86119428 4.76731853 23.50234722 6 19 C6.66 19 7.32 19 8 19 C8.15855469 19.77085938 8.31710938 20.54171875 8.48046875 21.3359375 C8.83044922 22.84027344 8.83044922 22.84027344 9.1875 24.375 C9.40792969 25.37273438 9.62835938 26.37046875 9.85546875 27.3984375 C10.7767034 30.23122363 10.7767034 30.23122363 13.61328125 31.3515625 C14.40089844 31.56554688 15.18851562 31.77953125 16 32 C16 31.01 16 30.02 16 29 C16.66 29 17.32 29 18 29 C18 27.35 18 25.7 18 24 C19.19099104 26.38198208 20.34197368 28.75828946 21.4375 31.1875 C22.74724316 34.29115029 22.74724316 34.29115029 26 35 C26 33.68 26 32.36 26 31 C26.66 31 27.32 31 28 31 C28.99 33.97 28.99 33.97 30 37 C29.34 37 28.68 37 28 37 C28 38.32 28 39.64 28 41 C27.34 41 26.68 41 26 41 C25.67 40.01 25.34 39.02 25 38 C23.35 38 21.7 38 20 38 C19.67 40.64 19.34 43.28 19 46 C18.67 46 18.34 46 18 46 C18 44.02 18 42.04 18 40 C17.34 40 16.68 40 16 40 C16 39.34 16 38.68 16 38 C13.97133643 38.48905021 13.97133643 38.48905021 12 40 C10.85472827 43.32038533 10.85472827 43.32038533 10.25 47.125 C9.88648437 49.04699219 9.88648437 49.04699219 9.515625 51.0078125 C9.34546875 51.99523437 9.1753125 52.98265625 9 54 C11.31 54 13.62 54 16 54 C16 54.33 16 54.66 16 55 C13.14613583 55.27783651 10.29547492 55.52278765 7.4375 55.75 C6.63763672 55.83121094 5.83777344 55.91242188 5.01367188 55.99609375 C-0.96942057 56.43566789 -4.11583542 55.52779786 -9 52 C-10.53125 50.33203125 -10.53125 50.33203125 -11.5 48.8125 C-13.82184944 45.65302866 -13.82184944 45.65302866 -17.8125 45.125 C-18.864375 45.08375 -19.91625 45.0425 -21 45 C-20.04801289 46.64951226 -19.08820855 48.29451508 -18.125 49.9375 C-17.59132812 50.85402344 -17.05765625 51.77054688 -16.5078125 52.71484375 C-15.20287437 55.10700296 -15.20287437 55.10700296 -13 56 C-13 56.66 -13 57.32 -13 58 C-12.2575 58.268125 -11.515 58.53625 -10.75 58.8125 C-8.13363446 59.94229421 -6.19812889 61.20893202 -4 63 C-9.75 62.125 -9.75 62.125 -12 61 C-12 60.34 -12 59.68 -12 59 C-13.32 58.67 -14.64 58.34 -16 58 C-16 57.34 -16 56.68 -16 56 C-16.99 55.67 -17.98 55.34 -19 55 C-23 48.94285714 -23 48.94285714 -23 44 C-23.99 44 -24.98 44 -26 44 C-25.69964844 44.62648437 -25.39929687 45.25296875 -25.08984375 45.8984375 C-24.70957031 46.71570313 -24.32929687 47.53296875 -23.9375 48.375 C-23.55464844 49.18710938 -23.17179687 49.99921875 -22.77734375 50.8359375 C-22.52082031 51.55007812 -22.26429687 52.26421875 -22 53 C-22.495 53.99 -22.495 53.99 -23 55 C-23.84733478 53.78044315 -24.67731214 52.54881704 -25.5 51.3125 C-25.9640625 50.62800781 -26.428125 49.94351563 -26.90625 49.23828125 C-28 47 -28 47 -28 42 C-24.37 42 -20.74 42 -17 42 C-17 40.68 -17 39.36 -17 38 C-17.98742188 38.01160156 -18.97484375 38.02320313 -19.9921875 38.03515625 C-21.27351563 38.04417969 -22.55484375 38.05320313 -23.875 38.0625 C-25.15117188 38.07410156 -26.42734375 38.08570313 -27.7421875 38.09765625 C-31 38 -31 38 -33 37 C-33.99 37.495 -33.99 37.495 -35 38 C-38.46777256 38.36401366 -41.95484615 38.46785304 -45.4375 38.625 C-46.40494141 38.6765625 -47.37238281 38.728125 -48.36914062 38.78125 C-49.29791016 38.82507813 -50.22667969 38.86890625 -51.18359375 38.9140625 C-52.03493896 38.9548291 -52.88628418 38.9955957 -53.76342773 39.03759766 C-56 39 -56 39 -59 38 C-59 37.01 -59 36.02 -59 35 C-56.56318413 34.49645133 -54.12564561 33.99703244 -51.6875 33.5 C-50.99720703 33.35691406 -50.30691406 33.21382812 -49.59570312 33.06640625 C-46.67475227 32.47374956 -43.98891878 32 -41 32 C-42.65 33.32 -44.3 34.64 -46 36 C-38.72781593 36.40622624 -38.72781593 36.40622624 -32 34 C-31.67 33.01 -31.34 32.02 -31 31 C-30.34 31 -29.68 31 -29 31 C-28.896875 30.34 -28.79375 29.68 -28.6875 29 C-27.95753974 25.81471885 -26.90145027 22.9067272 -25.71875 19.8671875 C-25.10064694 18.26146325 -24.54409574 16.63228722 -24 15 C-23.34 15 -22.68 15 -22 15 C-21.61714844 13.89011719 -21.61714844 13.89011719 -21.2265625 12.7578125 C-18.64690819 6.95769803 -13.62449641 2.32470173 -7.75 -0.0625 C-4.21279257 -0.94680186 -3.25188876 -1.02880551 0 0 Z " fill="#494743" transform="translate(66,32)"/>
<path d="M0 0 C0.7412915 0.2259082 1.48258301 0.45181641 2.24633789 0.68457031 C13.34078833 4.2110594 21.371237 9.75717278 29.6875 17.875 C29.3575 19.195 29.0275 20.515 28.6875 21.875 C25.71104921 21.54428325 24.74317942 20.93589937 22.6875 18.6875 C16.85566536 12.49456105 8.03921649 9.19621987 -0.3125 8.875 C-0.3125 10.525 -0.3125 12.175 -0.3125 13.875 C0.54214844 14.28492187 1.39679688 14.69484375 2.27734375 15.1171875 C3.38207031 15.65601562 4.48679688 16.19484375 5.625 16.75 C6.72714844 17.28367187 7.82929687 17.81734375 8.96484375 18.3671875 C11.6875 19.875 11.6875 19.875 12.6875 21.875 C7.9892301 20.05631488 7.9892301 20.05631488 5.984375 18.8515625 C-2.27013656 14.26933364 -13.32457024 14.46787474 -22.37109375 16.59375 C-24.37049385 17.30289683 -26.34518557 18.08117137 -28.3125 18.875 C-29.3025 18.545 -30.2925 18.215 -31.3125 17.875 C-25.6875 14.875 -25.6875 14.875 -22.3125 14.875 C-22.9725 12.895 -23.6325 10.915 -24.3125 8.875 C-32.37384989 9.18505192 -40.22044812 12.19052301 -46.2734375 17.640625 C-47.03527344 18.46820312 -47.03527344 18.46820312 -47.8125 19.3125 C-48.6375 20.158125 -49.4625 21.00375 -50.3125 21.875 C-52.46875 21.53515625 -52.46875 21.53515625 -54.3125 20.875 C-49.76551332 10.82259316 -40.13716668 5.79615868 -30.3125 1.875 C-19.57679403 -1.93190829 -10.89796749 -3.35322077 0 0 Z " fill="#434241" transform="translate(84.3125,10.125)"/>
<path d="M0 0 C0.69140625 1.69140625 0.69140625 1.69140625 1 4 C-4.47697099 14.76146057 -13.75177661 21.2505922 -25 25 C-27.65693998 25.096616 -30.28140855 25.13926728 -32.9375 25.125 C-33.65357422 25.12886719 -34.36964844 25.13273437 -35.10742188 25.13671875 C-38.54178156 25.13035293 -41.71864926 25.07950442 -45 24 C-45 24.66 -45 25.32 -45 26 C-47.31 25.67 -49.62 25.34 -52 25 C-51.67 26.32 -51.34 27.64 -51 29 C-52.65 28.67 -54.3 28.34 -56 28 C-56.33730842 26.56342755 -56.66969591 25.12569907 -57 23.6875 C-57.185625 22.88699219 -57.37125 22.08648437 -57.5625 21.26171875 C-58 19 -58 19 -58 16 C-58.98436672 14.98460739 -59.98678854 13.98661164 -61 13 C-62.16796875 10.84375 -62.16796875 10.84375 -63.1875 8.5 C-63.53167969 7.7265625 -63.87585937 6.953125 -64.23046875 6.15625 C-65 4 -65 4 -65 1 C-64.01 1 -63.02 1 -62 1 C-61.54625 2.0725 -61.0925 3.145 -60.625 4.25 C-58.78770434 9.45776352 -58.78770434 9.45776352 -55 13 C-55 13.66 -55 14.32 -55 15 C-53.68 15.33 -52.36 15.66 -51 16 C-51 16.66 -51 17.32 -51 18 C-49.68 18 -48.36 18 -47 18 C-47.825 17.54625 -48.65 17.0925 -49.5 16.625 C-50.325 16.08875 -51.15 15.5525 -52 15 C-52 14.34 -52 13.68 -52 13 C-52.99 12.67 -53.98 12.34 -55 12 C-56.38671875 10.22265625 -56.38671875 10.22265625 -57.6875 8.0625 C-58.12449219 7.35222656 -58.56148437 6.64195313 -59.01171875 5.91015625 C-60 4 -60 4 -60 2 C-56.8125 1.625 -56.8125 1.625 -53 2 C-50.5 4.75 -50.5 4.75 -49.31640625 6.40625 C-47.03572398 9.16743209 -44.17062457 10.38586386 -41 12 C-40.40574219 12.35578125 -39.81148437 12.7115625 -39.19921875 13.078125 C-33.41332184 15.50347433 -25.85753468 15.07062299 -20.0703125 12.90234375 C-15.21904378 10.13756294 -11.52860771 6.85889329 -8.15625 2.41796875 C-5.82365642 -0.44261054 -3.46291925 -0.09112945 0 0 Z " fill="#B7B7B6" transform="translate(105,75)"/>
<path d="M0 0 C1.37671875 -0.00386719 1.37671875 -0.00386719 2.78125 -0.0078125 C5.45004454 0.12255965 7.89865153 0.53121394 10.5 1.125 C10.5 1.785 10.5 2.445 10.5 3.125 C12.81 3.455 15.12 3.785 17.5 4.125 C17.5 4.785 17.5 5.445 17.5 6.125 C18.23863281 6.34671875 18.97726563 6.5684375 19.73828125 6.796875 C23.16660161 8.4455722 24.50284343 10.28183055 26.6875 13.375 C27.36167969 14.30828125 28.03585938 15.2415625 28.73046875 16.203125 C31.68064177 21.07449237 32.75667796 25.91792977 33.625 31.5 C33.79257813 32.55960938 33.96015625 33.61921875 34.1328125 34.7109375 C34.31457031 35.90589844 34.31457031 35.90589844 34.5 37.125 C32.52 37.125 30.54 37.125 28.5 37.125 C28.52320312 36.23296875 28.54640625 35.3409375 28.5703125 34.421875 C28.58835937 33.25140625 28.60640625 32.0809375 28.625 30.875 C28.64820312 29.71484375 28.67140625 28.5546875 28.6953125 27.359375 C28.50625946 24.22865663 27.99626754 22.78764933 26.5 20.125 C26.5 19.135 26.5 18.145 26.5 17.125 C25.84 17.125 25.18 17.125 24.5 17.125 C23.55896401 15.67983759 22.61874805 14.23413159 21.68359375 12.78515625 C17.94716749 7.54429433 13.95823754 5.4919702 7.7890625 4.3984375 C1.27575183 3.62039698 -5.01952241 4.28493809 -11.5 5.125 C-11.5 5.785 -11.5 6.445 -11.5 7.125 C-12.94069147 8.06312468 -14.3831045 8.99875925 -15.8359375 9.91796875 C-19.46608053 12.55110066 -22.07746437 15.85739311 -23.5 20.125 C-24.16 20.125 -24.82 20.125 -25.5 20.125 C-25.83 25.735 -26.16 31.345 -26.5 37.125 C-29.8 37.125 -33.1 37.125 -36.5 37.125 C-36.17 35.475 -35.84 33.825 -35.5 32.125 C-34.84 32.125 -34.18 32.125 -33.5 32.125 C-33.4175 31.320625 -33.335 30.51625 -33.25 29.6875 C-32.00229866 23.76091865 -29.2152716 18.50683879 -26.5 13.125 C-25.84 13.125 -25.18 13.125 -24.5 13.125 C-24.29375 12.568125 -24.0875 12.01125 -23.875 11.4375 C-20.85083824 6.35140977 -15.82980793 3.39300337 -10.5 1.125 C-6.95068334 0.2598911 -3.64861342 -0.01024891 0 0 Z " fill="#E0E0E0" transform="translate(73.5,30.875)"/>
<path d="M0 0 C0 0.66 0 1.32 0 2 C2.64738916 3.4606285 3.89448334 4 7 4 C7 3.34 7 2.68 7 2 C6.34 1.67 5.68 1.34 5 1 C5 0.34 5 -0.32 5 -1 C13.10704667 2.4339892 17.12261846 11.67257438 20.93359375 19.10546875 C22.09649237 22.26190786 22.2026664 24.66341896 22 28 C22.639375 28.226875 23.27875 28.45375 23.9375 28.6875 C28.13320261 30.48565826 32.03900556 32.73904021 36 35 C36 35.33 36 35.66 36 36 C33.56183415 36.0809723 31.12635616 36.14046972 28.6875 36.1875 C27.99720703 36.21263672 27.30691406 36.23777344 26.59570312 36.26367188 C21.44325817 36.33834499 21.44325817 36.33834499 19.01953125 34.48828125 C18.68308594 33.99714844 18.34664062 33.50601563 18 33 C18 33.99 18 34.98 18 36 C15.36 36 12.72 36 10 36 C10 35.67 10 35.34 10 35 C11.98 35 13.96 35 16 35 C15.690625 34.319375 15.38125 33.63875 15.0625 32.9375 C14 30 14 30 13.625 26.75 C12.32161544 18.92969266 8.49875722 11.7324544 3 6 C0.90943567 4.78160397 0.90943567 4.78160397 -1 4 C-1 3.34 -1 2.68 -1 2 C-3.31 1.67 -5.62 1.34 -8 1 C-8 0.34 -8 -0.32 -8 -1 C-15.92 -1 -23.84 -1 -32 -1 C-31 -3 -31 -3 -29.18823242 -3.61010742 C-19.30184749 -5.37163333 -8.72028265 -5.1675749 0 0 Z " fill="#9E9E9D" transform="translate(92,33)"/>
<path d="M0 0 C0.58291766 5.48775341 -1.17629283 8.56558572 -4.375 12.8125 C-5.05284546 13.72999023 -5.05284546 13.72999023 -5.74438477 14.66601562 C-14.37159263 26.02335256 -24.87777923 33.64271146 -38.72265625 37.2734375 C-41.00952661 38.00303936 -42.68783777 38.94064433 -44.6875 40.25 C-48.67783611 42.35810209 -50.69284924 42.05481243 -55 41 C-53.515 40.505 -53.515 40.505 -52 40 C-52 33.73 -52 27.46 -52 21 C-51.34 21 -50.68 21 -50 21 C-50 27.27 -50 33.54 -50 40 C-49.01 40 -48.02 40 -47 40 C-47 39.34 -47 38.68 -47 38 C-45.02 37.01 -43.04 36.02 -41 35 C-41 34.34 -41 33.68 -41 33 C-40.03900391 32.814375 -40.03900391 32.814375 -39.05859375 32.625 C-32.97485411 31.17433183 -29.86368806 29.43113723 -26.0546875 24.51953125 C-22.86729087 20.61103159 -19.22175518 17.17801918 -15.61791992 13.65673828 C-12.50397694 10.58804661 -9.67521338 7.47054708 -7 4 C-3.43243243 0 -3.43243243 0 0 0 Z " fill="#868685" transform="translate(123,87)"/>
<path d="M0 0 C0.66 0 1.32 0 2 0 C2.15855469 0.77085938 2.31710938 1.54171875 2.48046875 2.3359375 C2.71378906 3.33882812 2.94710937 4.34171875 3.1875 5.375 C3.40792969 6.37273438 3.62835938 7.37046875 3.85546875 8.3984375 C4.7767034 11.23122363 4.7767034 11.23122363 7.61328125 12.3515625 C8.40089844 12.56554688 9.18851563 12.77953125 10 13 C10 12.01 10 11.02 10 10 C10.66 10 11.32 10 12 10 C12 8.35 12 6.7 12 5 C13.19099104 7.38198208 14.34197368 9.75828946 15.4375 12.1875 C16.74724316 15.29115029 16.74724316 15.29115029 20 16 C20 14.68 20 13.36 20 12 C20.66 12 21.32 12 22 12 C22.66 13.98 23.32 15.96 24 18 C23.34 18 22.68 18 22 18 C22 19.32 22 20.64 22 22 C21.34 22 20.68 22 20 22 C19.505 20.515 19.505 20.515 19 19 C17.35 19 15.7 19 14 19 C13.67 21.64 13.34 24.28 13 27 C12.67 27 12.34 27 12 27 C12 25.02 12 23.04 12 21 C11.34 21 10.68 21 10 21 C10 20.01 10 19.02 10 18 C7.50995496 18.56076801 7.50995496 18.56076801 5 20 C2.87643269 24.45949135 2.50296594 29.1379959 2 34 C1.34 34 0.68 34 0 34 C-0.10957031 33.16855469 -0.21914062 32.33710937 -0.33203125 31.48046875 C-0.49058594 30.39378906 -0.64914063 29.30710937 -0.8125 28.1875 C-0.96332031 27.10855469 -1.11414063 26.02960938 -1.26953125 24.91796875 C-2.02303802 21.9079711 -2.54566654 20.81620676 -5 19 C-7.10332891 18.28552357 -7.10332891 18.28552357 -9 18 C-9.33 18.99 -9.66 19.98 -10 21 C-10.66 20.67 -11.32 20.34 -12 20 C-12 19.34 -12 18.68 -12 18 C-12.99 18.33 -13.98 18.66 -15 19 C-15.33 19.99 -15.66 20.98 -16 22 C-16.66 22 -17.32 22 -18 22 C-20.21538462 16.58461538 -20.21538462 16.58461538 -19.125 13.625 C-18.75375 13.08875 -18.3825 12.5525 -18 12 C-17.34 12 -16.68 12 -16 12 C-15.67 12.99 -15.34 13.98 -15 15 C-14.01 15.33 -13.02 15.66 -12 16 C-11.34 14.68 -10.68 13.36 -10 12 C-9.67 13.32 -9.34 14.64 -9 16 C-5.93521921 15.28760652 -5.93521921 15.28760652 -4.5 13.0625 C-2.44221761 8.86119428 -1.23268147 4.50234722 0 0 Z " fill="#363532" transform="translate(72,51)"/>
<path d="M0 0 C5.17278099 3.54059281 8.59463779 6.66493255 12 12 C13.0532555 12.95107399 14.13808286 13.86822385 15.25 14.75 C16.1575 15.4925 17.065 16.235 18 17 C18 17.66 18 18.32 18 19 C18.66 19 19.32 19 20 19 C21.13170313 20.22795623 22.20681006 21.50851257 23.25 22.8125 C27.46550939 27.76266248 31.53005198 30.04853706 38 31 C36.68 28.03 35.36 25.06 34 22 C37.46365398 23.15455133 38.19137152 23.90559139 40 27 C40.29296875 29.578125 40.29296875 29.578125 40.1875 32.25 C40.14689453 33.58804688 40.14689453 33.58804688 40.10546875 34.953125 C40.07066406 35.62859375 40.03585938 36.3040625 40 37 C40.9590625 37.185625 40.9590625 37.185625 41.9375 37.375 C42.618125 37.58125 43.29875 37.7875 44 38 C44.33 38.66 44.66 39.32 45 40 C43 39.33333333 41 38.66666667 39 38 C38.36964844 37.82855469 37.73929688 37.65710938 37.08984375 37.48046875 C20.48333814 32.66923815 8.25124676 21.89132681 -0.85546875 7.41015625 C-2 5 -2 5 -2 1 C-1.34 0.67 -0.68 0.34 0 0 Z " fill="#6F6F6C" transform="translate(23,87)"/>
<path d="M0 0 C1.32 0 2.64 0 4 0 C3.67 0.99 3.34 1.98 3 3 C2.77674186 5.05893621 2.59294241 7.12233653 2.4375 9.1875 C2.35371094 10.27417969 2.26992188 11.36085938 2.18359375 12.48046875 C2.12300781 13.31191406 2.06242187 14.14335938 2 15 C2.99 15.33 3.98 15.66 5 16 C5.33 17.98 5.66 19.96 6 22 C6.66 22 7.32 22 8 22 C8.33 20.68 8.66 19.36 9 18 C9.99 18 10.98 18 12 18 C12 18.66 12 19.32 12 20 C12.66 20 13.32 20 14 20 C14.33 19.34 14.66 18.68 15 18 C18.66464055 18.4952217 20.70832354 19.0208206 23 22 C24.00496852 25.01490557 24.10335303 27.04181692 24.0625 30.1875 C24.05347656 31.08855469 24.04445312 31.98960938 24.03515625 32.91796875 C24.02355469 33.60503906 24.01195312 34.29210937 24 35 C22.3745692 34.85904936 20.74965949 34.71207913 19.125 34.5625 C18.22007813 34.48128906 17.31515625 34.40007812 16.3828125 34.31640625 C14 34 14 34 12 33 C12 32.34 12 31.68 12 31 C11.401875 30.731875 10.80375 30.46375 10.1875 30.1875 C8.00152146 29.00082594 6.58667406 27.90400887 5 26 C5 25.34 5 24.68 5 24 C4.34 24 3.68 24 3 24 C2.67 22.02 2.34 20.04 2 18 C-2.62 18 -7.24 18 -12 18 C-11.505 16.515 -11.505 16.515 -11 15 C-11 15.66 -11 16.32 -11 17 C-7.7 17 -4.4 17 -1 17 C-1.01160156 16.19175781 -1.02320313 15.38351563 -1.03515625 14.55078125 C-1.04417969 13.48214844 -1.05320312 12.41351563 -1.0625 11.3125 C-1.07410156 10.25675781 -1.08570313 9.20101562 -1.09765625 8.11328125 C-1.00865425 5.27589738 -0.64939838 2.7561081 0 0 Z " fill="#DDDDDD" transform="translate(48,51)"/>
<path d="M0 0 C3.1875 -0.375 3.1875 -0.375 7 0 C9.5 2.75 9.5 2.75 10.68359375 4.40625 C12.96427602 7.16743209 15.82937543 8.38586386 19 10 C19.59683594 10.35578125 20.19367188 10.7115625 20.80859375 11.078125 C26.88046702 13.63242463 34.49943524 12.95577142 40.515625 10.65625 C42.5941885 9.59186483 44.6496648 8.4804075 46.671875 7.3125 C49 6 49 6 51 6 C50.67 7.65 50.34 9.3 50 11 C49.01 11.33 48.02 11.66 47 12 C47 12.66 47 13.32 47 14 C45.35 14.33 43.7 14.66 42 15 C42 15.66 42 16.32 42 17 C37.37030999 18.15277422 32.866152 18.21885943 28.125 18.25 C26.95904297 18.2809375 26.95904297 18.2809375 25.76953125 18.3125 C20.3962093 18.34862317 16.79804652 17.42638854 12 15 C11.195625 14.608125 10.39125 14.21625 9.5625 13.8125 C9.046875 13.544375 8.53125 13.27625 8 13 C8 12.34 8 11.68 8 11 C7.01 10.67 6.02 10.34 5 10 C3.61328125 8.22265625 3.61328125 8.22265625 2.3125 6.0625 C1.87550781 5.35222656 1.43851563 4.64195313 0.98828125 3.91015625 C0 2 0 2 0 0 Z " fill="#E1E1E0" transform="translate(45,77)"/>
<path d="M0 0 C4.45169441 5.22590214 4.20864801 10.42758767 4 17 C3.5 19.5 3.5 19.5 3 21 C2.34 21 1.68 21 1 21 C0.95875 21.70125 0.9175 22.4025 0.875 23.125 C-0.32846439 27.07924013 -2.75170032 29.49269176 -6 32 C-6.66 32 -7.32 32 -8 32 C-8 32.66 -8 33.32 -8 34 C-12.50353262 35.75747614 -16.17639811 36.19294408 -21 36 C-20.37879329 23.76865405 -20.37879329 23.76865405 -17 20 C-16.01 20 -15.02 20 -14 20 C-14 20.66 -14 21.32 -14 22 C-13.01 22.33 -12.02 22.66 -11 23 C-10.67 22.01 -10.34 21.02 -10 20 C-8.35 19.67 -6.7 19.34 -5 19 C-4.67 20.32 -4.34 21.64 -4 23 C-3.34 23 -2.68 23 -2 23 C-2 21.68 -2 20.36 -2 19 C-1.34 19 -0.68 19 0 19 C-0.33 18.01 -0.66 17.02 -1 16 C-0.34 16 0.32 16 1 16 C1.33 12.37 1.66 8.74 2 5 C1.34 5 0.68 5 0 5 C0 3.35 0 1.7 0 0 Z " fill="#B6B6B5" transform="translate(96,50)"/>
<path d="M0 0 C14.59563928 0.32174756 27.97639312 6.37980271 38.75 16.1875 C39.4925 17.115625 40.235 18.04375 41 19 C40.640625 21.17578125 40.640625 21.17578125 40 23 C35.721449 22.52460544 33.90352893 19.97434671 31 17 C29.34738161 15.97695052 27.68208635 14.97383946 26 14 C25 13 24 12 23 11 C22.01 10.67 21.02 10.34 20 10 C20 9.34 20 8.68 20 8 C16.37 8 12.74 8 9 8 C9 9.32 9 10.64 9 12 C2.84765625 12.09765625 2.84765625 12.09765625 1 12 C0 11 0 11 -0.09765625 8.49609375 C-0.08605469 7.48675781 -0.07445313 6.47742188 -0.0625 5.4375 C-0.05347656 4.42558594 -0.04445313 3.41367188 -0.03515625 2.37109375 C-0.02355469 1.58863281 -0.01195313 0.80617188 0 0 Z " fill="#8E8D8C" transform="translate(73,9)"/>
<path d="M0 0 C0 0.66 0 1.32 0 2 C1.32 2.66 2.64 3.32 4 4 C3.34 4.33 2.68 4.66 2 5 C1.67 5.66 1.34 6.32 1 7 C-1.03833424 5.7260411 -3.03852126 4.38938077 -5 3 C-5 2.34 -5 1.68 -5 1 C-11.10129639 -1.71168728 -16.52991059 -2.3266154 -23.125 -2.375 C-23.8886084 -2.38853516 -24.6522168 -2.40207031 -25.43896484 -2.41601562 C-35.43131534 -2.33817 -42.44975954 2.78215492 -50 9 C-50 8.01 -50 7.02 -50 6 C-50.66 6 -51.32 6 -52 6 C-49.98856527 1.47427185 -47.73153051 -2.16301365 -43.1796875 -4.36328125 C-27.24946624 -8.9389831 -14.2366973 -8.9723237 0 0 Z " fill="#E0E0E0" transform="translate(97,32)"/>
<path d="M0 0 C0.99 0.33 1.98 0.66 3 1 C2.01 1.33 1.02 1.66 0 2 C0 1.34 0 0.68 0 0 Z M-2 2 C-1.34 2.33 -0.68 2.66 0 3 C0.99 3 1.98 3 3 3 C6 3 9 3 12 3 C11.27876953 3.71929687 11.27876953 3.71929687 10.54296875 4.453125 C8.31687822 8.1275833 8.43506856 11.5266376 8.3125 15.75 C8.27833984 16.54277344 8.24417969 17.33554688 8.20898438 18.15234375 C8.12680896 20.10107504 8.06171955 22.05051362 8 24 C8.66 24.33 9.32 24.66 10 25 C9.01 25 8.02 25 7 25 C7 18.73 7 12.46 7 6 C6.34 6 5.68 6 5 6 C5 12.27 5 18.54 5 25 C1.88144706 24.22036177 -0.32638802 23.6594833 -3 22 C-4 19 -4 19 -3.75 15.625 C-3.64565704 11.86954236 -3.64565704 11.86954236 -6.3125 9.3125 C-7.199375 8.549375 -8.08625 7.78625 -9 7 C-9.99 5.68 -10.98 4.36 -12 3 C-8.7 3.33 -5.4 3.66 -2 4 C-2 3.34 -2 2.68 -2 2 Z " fill="#D2D1D1" transform="translate(66,102)"/>
<path d="M0 0 C3.40330854 0.95083918 4.76258153 1.65597498 6.80078125 4.609375 C7.29964844 5.64578125 7.79851562 6.6821875 8.3125 7.75 C8.82425781 8.77609375 9.33601563 9.8021875 9.86328125 10.859375 C11.04908857 14.13562616 11.22230532 16.54651266 11 20 C11.639375 20.226875 12.27875 20.45375 12.9375 20.6875 C17.13320261 22.48565826 21.03900556 24.73904021 25 27 C25 27.33 25 27.66 25 28 C22.58145554 28.13536629 20.17050217 28.23420279 17.75 28.3125 C17.06808594 28.35439453 16.38617188 28.39628906 15.68359375 28.43945312 C12.03664874 28.52797121 10.37033876 28.33379217 7.625 25.859375 C5.92123361 22.86140144 5.01391249 20.29447098 4.25 16.9375 C4.00765625 15.91527344 3.7653125 14.89304687 3.515625 13.83984375 C3 11 3 11 3 7 C2.34 7 1.68 7 1 7 C0.67 4.69 0.34 2.38 0 0 Z " fill="#BFBFBE" transform="translate(103,41)"/>
<path d="M0 0 C0.72018311 0.16298584 1.44036621 0.32597168 2.18237305 0.49389648 C4.89402117 0.98096403 7.33219353 1.11452642 10.08203125 1.09765625 C11.01337891 1.09443359 11.94472656 1.09121094 12.90429688 1.08789062 C14.34385742 1.07532227 14.34385742 1.07532227 15.8125 1.0625 C16.79154297 1.05798828 17.77058594 1.05347656 18.77929688 1.04882812 C21.18626111 1.03708684 23.59309857 1.02066419 26 1 C26 1.66 26 2.32 26 3 C27.98 2.67 29.96 2.34 32 2 C31.68611748 5.03419767 31.14199636 5.8816697 28.75 7.875 C26 9 26 9 23.3125 8.25 C22.549375 7.8375 21.78625 7.425 21 7 C20.34 6.67 19.68 6.34 19 6 C19 5.34 19 4.68 19 4 C18.443125 4.350625 17.88625 4.70125 17.3125 5.0625 C13.55681863 6.58507353 10.7167488 5.23891627 7 4 C7 4.66 7 5.32 7 6 C6.34 6 5.68 6 5 6 C5 6.66 5 7.32 5 8 C2.23735711 8.59732819 -0.16032769 9 -3 9 C-2.67 9.66 -2.34 10.32 -2 11 C-4.49361571 9.79618552 -6.68143083 8.54571278 -9 7 C-8.67 6.34 -8.34 5.68 -8 5 C-7.34 5 -6.68 5 -6 5 C-6 4.01 -6 3.02 -6 2 C-4.02 2 -2.04 2 0 2 C0 1.34 0 0.68 0 0 Z " fill="#3F3D3C" transform="translate(59,98)"/>
<path d="M0 0 C2.0625 0.4375 2.0625 0.4375 4 1 C3.37609375 1.18304688 2.7521875 1.36609375 2.109375 1.5546875 C-0.34008964 2.91662203 -0.34008964 2.91662203 -1.046875 6.2578125 C-1.27890625 7.53398438 -1.5109375 8.81015625 -1.75 10.125 C-1.99234375 11.40632813 -2.2346875 12.68765625 -2.484375 14.0078125 C-2.65453125 14.99523437 -2.8246875 15.98265625 -3 17 C-0.69 17 1.62 17 4 17 C4 17.33 4 17.66 4 18 C1.14613583 18.27783651 -1.70452508 18.52278765 -4.5625 18.75 C-5.36236328 18.83121094 -6.16222656 18.91242188 -6.98632812 18.99609375 C-12.96942057 19.43566789 -16.11583542 18.52779786 -21 15 C-22.53125 13.33203125 -22.53125 13.33203125 -23.5 11.8125 C-25.82184944 8.65302866 -25.82184944 8.65302866 -29.8125 8.125 C-30.864375 8.08375 -31.91625 8.0425 -33 8 C-32.04801289 9.64951226 -31.08820855 11.29451508 -30.125 12.9375 C-29.32449219 14.31228516 -29.32449219 14.31228516 -28.5078125 15.71484375 C-27.20287437 18.10700296 -27.20287437 18.10700296 -25 19 C-25 19.66 -25 20.32 -25 21 C-24.2575 21.268125 -23.515 21.53625 -22.75 21.8125 C-20.13363446 22.94229421 -18.19812889 24.20893202 -16 26 C-21.75 25.125 -21.75 25.125 -24 24 C-24 23.34 -24 22.68 -24 22 C-25.32 21.67 -26.64 21.34 -28 21 C-28 20.34 -28 19.68 -28 19 C-28.99 18.67 -29.98 18.34 -31 18 C-35 11.94285714 -35 11.94285714 -35 7 C-35.99 7 -36.98 7 -38 7 C-37.54947266 7.93972656 -37.54947266 7.93972656 -37.08984375 8.8984375 C-36.70957031 9.71570313 -36.32929687 10.53296875 -35.9375 11.375 C-35.55464844 12.18710938 -35.17179687 12.99921875 -34.77734375 13.8359375 C-34.52082031 14.55007812 -34.26429687 15.26421875 -34 16 C-34.33 16.66 -34.66 17.32 -35 18 C-35.84733478 16.78044315 -36.67731214 15.54881704 -37.5 14.3125 C-38.19609375 13.28576172 -38.19609375 13.28576172 -38.90625 12.23828125 C-40.17440271 9.64309732 -40.19982175 7.85245543 -40 5 C-26.44055323 5.03411182 -26.44055323 5.03411182 -22.9609375 7.3671875 C-21.6875 9 -21.6875 9 -20 12 C-19.34 12.33 -18.68 12.66 -18 13 C-18 13.66 -18 14.32 -18 15 C-16.04175306 15.16767864 -14.08339945 15.33411205 -12.125 15.5 C-11.03445312 15.5928125 -9.94390625 15.685625 -8.8203125 15.78125 C-7.21670436 15.90562958 -5.60842449 16 -4 16 C-4.061875 14.824375 -4.12375 13.64875 -4.1875 12.4375 C-4.2034901 7.94428128 -3.03097522 4.98071143 -1 1 C-0.67 0.67 -0.34 0.34 0 0 Z " fill="#92918F" transform="translate(78,69)"/>
<path d="M0 0 C0 4.29 0 8.58 0 13 C-2.97 13 -5.94 13 -9 13 C-9 11.35 -9 9.7 -9 8 C-12.63 8 -16.26 8 -20 8 C-20 8.66 -20 9.32 -20 10 C-25.625 13 -25.625 13 -29 13 C-28 10 -28 10 -25.76953125 8.53515625 C-8.63129973 0 -8.63129973 0 0 0 Z " fill="#959594" transform="translate(71,9)"/>
<path d="M0 0 C1.68319336 0.03383789 1.68319336 0.03383789 3.40039062 0.06835938 C6.16412536 0.12716224 8.92512554 0.20929599 11.6875 0.3125 C8.50306655 3.49693345 4.04551774 3.0633944 -0.28320312 3.43554688 C-6.25789954 4.04904484 -9.623842 5.4905269 -13.6875 9.875 C-16.53443431 13.46069574 -19.09341315 17.25678611 -21.6640625 21.04296875 C-23.10596789 23.02815129 -24.44359498 24.72754464 -26.3125 26.3125 C-26.9725 26.3125 -27.6325 26.3125 -28.3125 26.3125 C-27.16076645 23.84449953 -26.26466435 22.26466435 -24.3125 20.3125 C-23.63465008 17.98239091 -22.96833207 15.64890176 -22.3125 13.3125 C-21.6525 12.3225 -20.9925 11.3325 -20.3125 10.3125 C-19.6525 10.3125 -18.9925 10.3125 -18.3125 10.3125 C-18.2196875 9.2296875 -18.2196875 9.2296875 -18.125 8.125 C-15.43421838 -1.18924406 -8.12069778 -0.30850108 0 0 Z " fill="#E3E3E3" transform="translate(124.3125,74.6875)"/>
<path d="M0 0 C5.17278099 3.54059281 8.59463779 6.66493255 12 12 C13.05675698 12.9069183 14.14154115 13.78205571 15.25 14.625 C16.1575 15.40875 17.065 16.1925 18 17 C18 18.32 18 19.64 18 21 C17.34 21 16.68 21 16 21 C16 21.66 16 22.32 16 23 C8.37613763 19.57704139 1.24881204 12.77102779 -2 5 C-2 3.68 -2 2.36 -2 1 C-1.34 0.67 -0.68 0.34 0 0 Z " fill="#C0C0BE" transform="translate(23,87)"/>
<path d="M0 0 C0.70125 0.00515625 1.4025 0.0103125 2.125 0.015625 C2.82625 0.01046875 3.5275 0.0053125 4.25 0 C6.125 0.265625 6.125 0.265625 8.125 2.265625 C6.475 1.935625 4.825 1.605625 3.125 1.265625 C3.455 4.895625 3.785 8.525625 4.125 12.265625 C6.765 12.595625 9.405 12.925625 12.125 13.265625 C12.125 11.945625 12.125 10.625625 12.125 9.265625 C19.75 8.140625 19.75 8.140625 23.125 9.265625 C23.125 9.925625 23.125 10.585625 23.125 11.265625 C23.929375 11.389375 24.73375 11.513125 25.5625 11.640625 C26.408125 11.846875 27.25375 12.053125 28.125 12.265625 C28.62 13.255625 28.62 13.255625 29.125 14.265625 C28.29355469 14.0490625 27.46210937 13.8325 26.60546875 13.609375 C25.51878906 13.3309375 24.43210937 13.0525 23.3125 12.765625 C22.23355469 12.4871875 21.15460938 12.20875 20.04296875 11.921875 C17.13566025 11.15591552 17.13566025 11.15591552 14.125 11.265625 C14.125 12.915625 14.125 14.565625 14.125 16.265625 C14.97964844 16.67554687 15.83429688 17.08546875 16.71484375 17.5078125 C17.81957031 18.04664062 18.92429687 18.58546875 20.0625 19.140625 C21.71572266 19.94113281 21.71572266 19.94113281 23.40234375 20.7578125 C26.125 22.265625 26.125 22.265625 27.125 24.265625 C24.77417691 23.35562896 22.4656468 22.44314022 20.22851562 21.27734375 C14.19386551 18.24069456 9.24872068 17.76053808 2.5625 18.015625 C1.64919922 18.03367187 0.73589844 18.05171875 -0.20507812 18.0703125 C-2.42953514 18.11689799 -4.65166967 18.18227015 -6.875 18.265625 C-6.875 17.605625 -6.875 16.945625 -6.875 16.265625 C-4.565 16.265625 -2.255 16.265625 0.125 16.265625 C0.455 11.315625 0.785 6.365625 1.125 1.265625 C-0.525 1.595625 -2.175 1.925625 -3.875 2.265625 C-1.875 0.265625 -1.875 0.265625 0 0 Z " fill="#424240" transform="translate(69.875,7.734375)"/>
<path d="M0 0 C0.99 0 1.98 0 3 0 C3.22692276 3.32820054 3.32162419 5.41801336 1.6875 8.375 C0 10 0 10 -3 10 C-3.185625 10.66 -3.37125 11.32 -3.5625 12 C-5.60808774 16.26905268 -8.57184643 19.74163706 -12 23 C-12.66 23 -13.32 23 -14 23 C-14 22.01 -14 21.02 -14 20 C-14.66 19.67 -15.32 19.34 -16 19 C-15.16855469 18.22076172 -15.16855469 18.22076172 -14.3203125 17.42578125 C-13.59585938 16.72839844 -12.87140625 16.03101562 -12.125 15.3125 C-11.04605469 14.28576172 -11.04605469 14.28576172 -9.9453125 13.23828125 C-7.89996974 10.88490494 -7.08619096 8.8918071 -6 6 C-3.4375 3.25 -3.4375 3.25 -1 1 C-0.67 0.67 -0.34 0.34 0 0 Z " fill="#DDDDDD" transform="translate(120,87)"/>
<path d="M0 0 C4.95 0.99 4.95 0.99 10 2 C10 2.66 10 3.32 10 4 C10.73863281 4.22171875 11.47726563 4.4434375 12.23828125 4.671875 C15.66660161 6.3205722 17.00284343 8.15683055 19.1875 11.25 C19.86167969 12.18328125 20.53585938 13.1165625 21.23046875 14.078125 C24.18064177 18.94949237 25.25667796 23.79292977 26.125 29.375 C26.29257813 30.43460938 26.46015625 31.49421875 26.6328125 32.5859375 C26.75398438 33.38257813 26.87515625 34.17921875 27 35 C25.02 35 23.04 35 21 35 C21.02320312 34.10796875 21.04640625 33.2159375 21.0703125 32.296875 C21.08835937 31.12640625 21.10640625 29.9559375 21.125 28.75 C21.14820312 27.58984375 21.17140625 26.4296875 21.1953125 25.234375 C21.00625946 22.10365663 20.49626754 20.66264933 19 18 C19 17.01 19 16.02 19 15 C18.34 15 17.68 15 17 15 C16.05914026 13.55510825 15.11997731 12.10906967 14.19140625 10.65625 C10.53899053 5.5787934 5.65224544 3.14785327 0 1 C0 0.67 0 0.34 0 0 Z " fill="#E7E6E6" transform="translate(81,33)"/>
<path d="M0 0 C0 2.31 0 4.62 0 7 C-0.99 7.33 -1.98 7.66 -3 8 C-3 8.66 -3 9.32 -3 10 C-4.2812516 11.07987037 -5.60067246 12.11474369 -6.9375 13.125 C-10.0657108 15.74563515 -11.54081894 17.33402483 -12 21.4375 C-12 22.613125 -12 23.78875 -12 25 C-11.01 25.33 -10.02 25.66 -9 26 C-11.31 26.99 -13.62 27.98 -16 29 C-16.0810206 26.89646505 -16.13919907 24.79204048 -16.1875 22.6875 C-16.22230469 21.51574219 -16.25710937 20.34398437 -16.29296875 19.13671875 C-16 16 -16 16 -14.61328125 14.26953125 C-13.81470703 13.64111328 -13.81470703 13.64111328 -13 13 C-12.34 12.01 -11.68 11.02 -11 10 C-8.5 8.875 -8.5 8.875 -6 8 C-5.34 7.67 -4.68 7.34 -4 7 C-3.67 6.01 -3.34 5.02 -3 4 C-4.98 4.33 -6.96 4.66 -9 5 C-2.87096774 0 -2.87096774 0 0 0 Z " fill="#B6B5B4" transform="translate(94,96)"/>
<path d="M0 0 C0.99 0 1.98 0 3 0 C4.19785364 2.39570728 4.28077318 4.27154527 4.5 6.9375 C4.74363648 9.89159237 5.05630488 12.16891465 6 15 C2.52674819 16.1577506 -0.36067448 16.06866652 -4 16 C-3.37879329 3.76865405 -3.37879329 3.76865405 0 0 Z " fill="#E6E5E5" transform="translate(79,70)"/>
<path d="M0 0 C0.99 0.33 1.98 0.66 3 1 C2.01 1.33 1.02 1.66 0 2 C0 1.34 0 0.68 0 0 Z M-2 2 C-1.34 2.33 -0.68 2.66 0 3 C0.99 3 1.98 3 3 3 C6 3 9 3 12 3 C11.51917969 3.47953125 11.03835937 3.9590625 10.54296875 4.453125 C8.31687822 8.1275833 8.43506856 11.5266376 8.3125 15.75 C8.27833984 16.54277344 8.24417969 17.33554688 8.20898438 18.15234375 C8.12680896 20.10107504 8.06171955 22.05051362 8 24 C8.66 24.33 9.32 24.66 10 25 C9.01 25 8.02 25 7 25 C7 18.73 7 12.46 7 6 C6.34 6 5.68 6 5 6 C5 12.27 5 18.54 5 25 C3.68 24.67 2.36 24.34 1 24 C1.66 23.67 2.32 23.34 3 23 C3 22.67 3 22.34 3 22 C2.67 22 2.34 22 2 22 C1.97421875 21.20335938 1.9484375 20.40671875 1.921875 19.5859375 C1.57910663 13.18240118 1.23755897 8.92103622 -3 4 C-2.67 3.34 -2.34 2.68 -2 2 Z " fill="#9F9E9D" transform="translate(66,102)"/>
<path d="M0 0 C1 3 1 3 0 6 C-3.07082647 9.29532554 -6.23092009 11.75157601 -10.75390625 12.38671875 C-13.19708769 12.37629266 -15.57246326 12.26862087 -18 12 C-16.35526991 10.3054296 -14.69474785 8.64377799 -13 7 C-12.43410156 6.44957031 -11.86820313 5.89914063 -11.28515625 5.33203125 C-6.66063901 1.07180859 -6.66063901 1.07180859 -3.125 0.6875 C-2.073125 0.8421875 -2.073125 0.8421875 -1 1 C-0.67 0.67 -0.34 0.34 0 0 Z " fill="#E1E1E1" transform="translate(37,57)"/>
<path d="M0 0 C0 2.31 0 4.62 0 7 C2.31 5.35 4.62 3.7 7 2 C5.26968457 5.85993442 3.50847419 8.13801475 -0.1875 10.25 C-5.52530279 13.57129952 -10.43972866 16.75891465 -12 23 C-9.03 22.67 -6.06 22.34 -3 22 C-3.33 22.66 -3.66 23.32 -4 24 C-6.28515625 24.6328125 -6.28515625 24.6328125 -9.0625 25.125 C-9.98160156 25.29257813 -10.90070313 25.46015625 -11.84765625 25.6328125 C-12.55792969 25.75398438 -13.26820312 25.87515625 -14 26 C-14.51153526 22.41925318 -14.71384634 19.97053124 -12.51171875 16.9765625 C-10.74080243 15.17998073 -9.02415805 13.50666968 -7 12 C-6.34 12 -5.68 12 -5 12 C-5 11.34 -5 10.68 -5 10 C-4.34 9.67 -3.68 9.34 -3 9 C-2.59270772 6.67843403 -2.25561323 4.3431213 -2 2 C-3.0725 2.70125 -4.145 3.4025 -5.25 4.125 C-7.078125 5.3203125 -7.078125 5.3203125 -9 6 C-11.234375 5.1171875 -11.234375 5.1171875 -13 4 C-11.40233897 3.13372601 -9.79660056 2.28233535 -8.1875 1.4375 C-7.29417969 0.96183594 -6.40085937 0.48617187 -5.48046875 -0.00390625 C-3 -1 -3 -1 0 0 Z " fill="#41403E" transform="translate(96,94)"/>
<path d="M0 0 C0.66 0 1.32 0 2 0 C2 6.27 2 12.54 2 19 C2.99 19 3.98 19 5 19 C5 18.34 5 17.68 5 17 C11.92585511 14.12932364 18.70628196 11.75049233 26 10 C26 9.34 26 8.68 26 8 C31.625 5 31.625 5 35 5 C28.48872227 10.67111286 21.63149064 14.0232838 13.34765625 16.23828125 C11.03683923 16.98804717 9.33475003 17.92445356 7.3125 19.25 C3.32216389 21.35810209 1.30715076 21.05481243 -3 20 C-2.01 19.67 -1.02 19.34 0 19 C0 12.73 0 6.46 0 0 Z " fill="#464541" transform="translate(71,108)"/>
<path d="M0 0 C3.46365398 1.15455133 4.19137152 1.90559139 6 5 C6.29296875 7.578125 6.29296875 7.578125 6.1875 10.25 C6.16042969 11.14203125 6.13335937 12.0340625 6.10546875 12.953125 C6.07066406 13.62859375 6.03585938 14.3040625 6 15 C6.639375 15.12375 7.27875 15.2475 7.9375 15.375 C8.618125 15.58125 9.29875 15.7875 10 16 C10.33 16.66 10.66 17.32 11 18 C9 17.33333333 7 16.66666667 5 16 C4.27683594 15.77054688 3.55367187 15.54109375 2.80859375 15.3046875 C-1.68006241 13.86163391 -5.83149614 12.244579 -10 10 C-9.01 9.67 -8.02 9.34 -7 9 C-6.67 8.67 -6.34 8.34 -6 8 C-7.65 6.68 -9.3 5.36 -11 4 C-10.67 3.34 -10.34 2.68 -10 2 C-9.360625 2.598125 -8.72125 3.19625 -8.0625 3.8125 C-4.1664547 6.5953895 -0.57972789 7.63291705 4 9 C2.68 6.03 1.36 3.06 0 0 Z " fill="#5C5B5A" transform="translate(57,109)"/>
<path d="M0 0 C-0.66 1.32 -1.32 2.64 -2 4 C-3.134375 4.00257812 -4.26875 4.00515625 -5.4375 4.0078125 C-16.2690081 3.98183723 -16.2690081 3.98183723 -25.42578125 9.10546875 C-27.80209881 11.96530502 -29.86183677 14.95675015 -31.7734375 18.14453125 C-33 20 -33 20 -35 21 C-33.40230856 15.88738738 -30.2925801 12.12220658 -27 8 C-26.1646875 6.824375 -26.1646875 6.824375 -25.3125 5.625 C-19.63351396 1.63436116 -10.59196864 1.82399608 -4 1 C-11.26 0.67 -18.52 0.34 -26 0 C-26 -0.33 -26 -0.66 -26 -1 C-22.22999352 -1.22567411 -18.45908213 -1.42755846 -14.6875 -1.625 C-13.0797168 -1.72167969 -13.0797168 -1.72167969 -11.43945312 -1.8203125 C-9.89741211 -1.89765625 -9.89741211 -1.89765625 -8.32421875 -1.9765625 C-6.9024231 -2.05511475 -6.9024231 -2.05511475 -5.4519043 -2.13525391 C-3 -2 -3 -2 0 0 Z " fill="#3A3937" transform="translate(138,75)"/>
<path d="M0 0 C0.66 0.99 1.32 1.98 2 3 C0.63273539 4.279152 -0.74423238 5.54793559 -2.125 6.8125 C-2.89070313 7.52019531 -3.65640625 8.22789063 -4.4453125 8.95703125 C-9.57934069 13.06268376 -13.61819455 14.41724634 -20.1875 14.375 C-21.39792969 14.38273437 -22.60835938 14.39046875 -23.85546875 14.3984375 C-27 14 -27 14 -30 11 C-24.39 11 -18.78 11 -13 11 C-13 10.34 -13 9.68 -13 9 C-11.02 8.67 -9.04 8.34 -7 8 C-7 7.34 -7 6.68 -7 6 C-5.46875 4.4921875 -5.46875 4.4921875 -3.5 2.875 C-2.8503125 2.33617188 -2.200625 1.79734375 -1.53125 1.2421875 C-1.0259375 0.83226563 -0.520625 0.42234375 0 0 Z " fill="#575654" transform="translate(95,76)"/>
<path d="M0 0 C0.99 0 1.98 0 3 0 C3.268125 0.639375 3.53625 1.27875 3.8125 1.9375 C4.88667752 4.33131686 4.88667752 4.33131686 8 5 C8 3.68 8 2.36 8 1 C8.66 1 9.32 1 10 1 C10.66 2.98 11.32 4.96 12 7 C11.34 7 10.68 7 10 7 C10 8.32 10 9.64 10 11 C9.34 11 8.68 11 8 11 C7.67 10.01 7.34 9.02 7 8 C5.35 8 3.7 8 2 8 C1.67 10.64 1.34 13.28 1 16 C0.67 16 0.34 16 0 16 C-1.02224111 11.01657457 -1.3632306 6.07454515 -1 1 C-0.67 0.67 -0.34 0.34 0 0 Z " fill="#2A2924" transform="translate(84,62)"/>
<path d="M0 0 C1.04745167 5.23725835 1.04745167 5.23725835 1 8 C-0.8125 10.5 -0.8125 10.5 -3 12 C-3.66 12 -4.32 12 -5 12 C-5 12.66 -5 13.32 -5 14 C-4.34 14.33 -3.68 14.66 -3 15 C-3.99 15.33 -4.98 15.66 -6 16 C-8.20914 12.68629 -8.22481553 11.6553979 -8.125 7.8125 C-8.10695313 6.91144531 -8.08890625 6.01039062 -8.0703125 5.08203125 C-8.04710938 4.39496094 -8.02390625 3.70789063 -8 3 C-7.01 3.495 -7.01 3.495 -6 4 C-5.67 3.01 -5.34 2.02 -5 1 C-3 0 -3 0 0 0 Z " fill="#B7B6B5" transform="translate(91,69)"/>
<path d="M0 0 C0.99 0.33 1.98 0.66 3 1 C3 1.66 3 2.32 3 3 C4.0828125 3.433125 4.0828125 3.433125 5.1875 3.875 C7.79166667 4.91666667 10.39583333 5.95833333 13 7 C13 8.32 13 9.64 13 11 C10.69 10.67 8.38 10.34 6 10 C6.33 11.32 6.66 12.64 7 14 C5.35 13.67 3.7 13.34 2 13 C1.66269158 11.56342755 1.33030409 10.12569907 1 8.6875 C0.814375 7.88699219 0.62875 7.08648437 0.4375 6.26171875 C0.02380839 4.12308085 0 2.17634601 0 0 Z " fill="#4F4D4A" transform="translate(47,90)"/>
<path d="M0 0 C-0.56847656 0.21914063 -1.13695313 0.43828125 -1.72265625 0.6640625 C-7.56175925 3.06209144 -14.04312156 6.08624312 -17 12 C-17.66 12 -18.32 12 -19 12 C-20.74849671 16.3039919 -22.3770361 20.64750591 -24 25 C-24.66 24.67 -25.32 24.34 -26 24 C-25.34 21.03 -24.68 18.06 -24 15 C-23.34 15 -22.68 15 -22 15 C-21.74476562 14.26007812 -21.48953125 13.52015625 -21.2265625 12.7578125 C-18.64690819 6.95769803 -13.62449641 2.32470173 -7.75 -0.0625 C-4.21279257 -0.94680186 -3.25188876 -1.02880551 0 0 Z " fill="#636260" transform="translate(66,32)"/>
<path d="M0 0 C0.99 0 1.98 0 3 0 C3.45375 1.0725 3.9075 2.145 4.375 3.25 C6.21229566 8.45776352 6.21229566 8.45776352 10 12 C10 12.66 10 13.32 10 14 C11.32 14.33 12.64 14.66 14 15 C14 15.66 14 16.32 14 17 C15.65 17.33 17.3 17.66 19 18 C19 18.66 19 19.32 19 20 C20.65 20.33 22.3 20.66 24 21 C21.31485266 22.03274898 20.2078412 22.07566569 17.45703125 21.07421875 C16.58433594 20.61660156 15.71164063 20.15898438 14.8125 19.6875 C13.93207031 19.23761719 13.05164062 18.78773437 12.14453125 18.32421875 C10 17 10 17 9 15 C8.236875 14.649375 7.47375 14.29875 6.6875 13.9375 C2.81621474 11.14657342 1.45062055 7.47342204 0 3 C0 2.01 0 1.02 0 0 Z " fill="#CCCCCB" transform="translate(40,76)"/>
<path d="M0 0 C2.97 0.495 2.97 0.495 6 1 C6 2.32 6 3.64 6 5 C6.66 5 7.32 5 8 5 C9.21875 6.71484375 9.21875 6.71484375 10.5 8.9375 C12.18454879 12.05432026 12.18454879 12.05432026 15 14 C15 14.66 15 15.32 15 16 C15.7425 16.268125 16.485 16.53625 17.25 16.8125 C19.86636554 17.94229421 21.80187111 19.20893202 24 21 C18.25 20.125 18.25 20.125 16 19 C16 18.34 16 17.68 16 17 C14.68 16.67 13.36 16.34 12 16 C12 15.34 12 14.68 12 14 C11.01 13.67 10.02 13.34 9 13 C5 6.94285714 5 6.94285714 5 2 C4.01 2 3.02 2 2 2 C2.45052734 2.93972656 2.45052734 2.93972656 2.91015625 3.8984375 C3.29042969 4.71570313 3.67070313 5.53296875 4.0625 6.375 C4.63677734 7.59316406 4.63677734 7.59316406 5.22265625 8.8359375 C5.47917969 9.55007812 5.73570313 10.26421875 6 11 C5.67 11.66 5.34 12.32 5 13 C-0.74031891 4.738041 -0.74031891 4.738041 0 0 Z " fill="#6B6A67" transform="translate(38,74)"/>
<path d="M0 0 C1.32 0 2.64 0 4 0 C3.67 0.99 3.34 1.98 3 3 C2.77674186 5.05893621 2.59294241 7.12233653 2.4375 9.1875 C2.35371094 10.27417969 2.26992188 11.36085938 2.18359375 12.48046875 C2.12300781 13.31191406 2.06242187 14.14335938 2 15 C2.99 15.33 3.98 15.66 5 16 C4.67 16.66 4.34 17.32 4 18 C-1.28 18 -6.56 18 -12 18 C-11.505 16.515 -11.505 16.515 -11 15 C-11 15.66 -11 16.32 -11 17 C-7.7 17 -4.4 17 -1 17 C-1.01160156 16.19175781 -1.02320313 15.38351563 -1.03515625 14.55078125 C-1.04417969 13.48214844 -1.05320312 12.41351563 -1.0625 11.3125 C-1.07410156 10.25675781 -1.08570313 9.20101562 -1.09765625 8.11328125 C-1.00865425 5.27589738 -0.64939838 2.7561081 0 0 Z " fill="#B2B2B0" transform="translate(48,51)"/>
<path d="M0 0 C0.33 2.64 0.66 5.28 1 8 C0.34 8 -0.32 8 -1 8 C-1.33 6.68 -1.66 5.36 -2 4 C-5.63 4 -9.26 4 -13 4 C-13 4.66 -13 5.32 -13 6 C-18.625 9 -18.625 9 -22 9 C-20.60015654 4.80046962 -18.27284556 4.08307336 -14.484375 2.07421875 C-9.71128694 0.01038351 -5.17203593 0 0 0 Z " fill="#C6C6C5" transform="translate(64,13)"/>
<path d="M0 0 C0.33 1.32 0.66 2.64 1 4 C0.360625 4.103125 -0.27875 4.20625 -0.9375 4.3125 C-1.618125 4.539375 -2.29875 4.76625 -3 5 C-3.33 5.99 -3.66 6.98 -4 8 C-6.5625 9.6875 -6.5625 9.6875 -9 11 C-9 10.01 -9 9.02 -9 8 C-10.32 8.33 -11.64 8.66 -13 9 C-12.04663979 7.68388323 -11.08714226 6.37221039 -10.125 5.0625 C-9.59132813 4.33160156 -9.05765625 3.60070312 -8.5078125 2.84765625 C-5.93349482 -0.3068833 -3.88847825 -0.10232837 0 0 Z " fill="#BBBBBB" transform="translate(105,75)"/>
<path d="M0 0 C0 0.99 0 1.98 0 3 C-1.57421875 4.24609375 -1.57421875 4.24609375 -3.6875 5.4375 C-7.02982048 7.3965866 -10.0309373 9.49485335 -13 12 C-13 11.01 -13 10.02 -13 9 C-13.66 9 -14.32 9 -15 9 C-13.59561113 5.60606022 -12.13616902 3.91654773 -9 2 C-5.78798336 0.75452416 -3.45158575 0 0 0 Z " fill="#E4E4E3" transform="translate(60,29)"/>
<path d="M0 0 C6.94064444 0.56658322 11.75535248 2.46757715 16.4375 7.75 C16.953125 8.4925 17.46875 9.235 18 10 C17.01 10.495 17.01 10.495 16 11 C15.67 11.99 15.34 12.98 15 14 C14.62875 13.2575 14.2575 12.515 13.875 11.75 C11.10261642 7.68383742 7.38595259 5.80077261 3.1875 3.375 C1 2 1 2 0 0 Z " fill="#4F4E4C" transform="translate(80,36)"/>
<path d="M0 0 C1.5 1.375 1.5 1.375 3 3 C3 3.66 3 4.32 3 5 C3.66 5 4.32 5 5 5 C5.67218507 7.74875682 6.33792435 10.49880726 7 13.25 C7.19078125 14.02730469 7.3815625 14.80460937 7.578125 15.60546875 C7.75859375 16.35957031 7.9390625 17.11367188 8.125 17.890625 C8.29257813 18.58188477 8.46015625 19.27314453 8.6328125 19.98535156 C9 22 9 22 9 26 C6.36 26 3.72 26 1 26 C1 25.67 1 25.34 1 25 C2.98 25 4.96 25 7 25 C6.690625 24.319375 6.38125 23.63875 6.0625 22.9375 C5 20 5 20 4.625 16.75 C3.95648291 12.73889746 2.67093995 9.66094725 0.9375 6.015625 C0 4 0 4 -1 1 C-0.67 0.67 -0.34 0.34 0 0 Z " fill="#A7A6A6" transform="translate(101,43)"/>
<path d="M0 0 C-0.33 0.99 -0.66 1.98 -1 3 C-2.19496094 2.98259766 -2.19496094 2.98259766 -3.4140625 2.96484375 C-11.25478989 2.88148443 -11.25478989 2.88148443 -19 4 C-19 3.34 -19 2.68 -19 2 C-20.98 2.33 -22.96 2.66 -25 3 C-24 1 -24 1 -20.625 -0.125 C-13.7993584 -1.68690357 -6.8095391 -1.53367998 0 0 Z " fill="#CECECE" transform="translate(84,32)"/>
<path d="M0 0 C4.03321763 1.21934486 7.54269479 2.55954927 11 5 C11 5.66 11 6.32 11 7 C12.32 7.66 13.64 8.32 15 9 C14.01 9.495 14.01 9.495 13 10 C12.67 10.66 12.34 11.32 12 12 C9.96166576 10.7260411 7.96147874 9.38938077 6 8 C6 7.34 6 6.68 6 6 C3.03 5.01 0.06 4.02 -3 3 C-2.01 2.01 -1.02 1.02 0 0 Z " fill="#DEDEDE" transform="translate(86,27)"/>
<path d="M0 0 C0 0.66 0 1.32 0 2 C1.98 1.67 3.96 1.34 6 1 C5.68611748 4.03419767 5.14199636 4.8816697 2.75 6.875 C0 8 0 8 -2.6875 7.25 C-3.450625 6.8375 -4.21375 6.425 -5 6 C-5.66 5.67 -6.32 5.34 -7 5 C-7 4.01 -7 3.02 -7 2 C-4.35261084 0.5393715 -3.10551666 0 0 0 Z " fill="#34322F" transform="translate(85,99)"/>
<path d="M0 0 C1.98 0.99 1.98 0.99 4 2 C4 3.32 4 4.64 4 6 C4.66 6 5.32 6 6 6 C6.66 9.3 7.32 12.6 8 16 C6.68 16 5.36 16 4 16 C3.67 13.03 3.34 10.06 3 7 C2.34 7 1.68 7 1 7 C0.67 4.69 0.34 2.38 0 0 Z " fill="#E0E0E0" transform="translate(103,41)"/>
<path d="M0 0 C1.49249268 0.01571045 1.49249268 0.01571045 3.01513672 0.03173828 C4.6296875 0.04140625 4.6296875 0.04140625 6.27685547 0.05126953 C7.40478516 0.06802734 8.53271484 0.08478516 9.69482422 0.10205078 C11.39832031 0.11558594 11.39832031 0.11558594 13.13623047 0.12939453 C15.94763721 0.1530198 18.7586272 0.18596065 21.56982422 0.22705078 C18.7247656 3.0721094 15.77012252 2.72855083 11.94482422 2.91455078 C11.22294922 2.95507568 10.50107422 2.99560059 9.75732422 3.03735352 C4.90037339 3.27022853 0.36377215 3.12591602 -4.43017578 2.22705078 C-2.43017578 0.22705078 -2.43017578 0.22705078 0 0 Z " fill="#B1B1B0" transform="translate(114.43017578125,74.77294921875)"/>
<path d="M0 0 C4.95 0.99 4.95 0.99 10 2 C10 2.66 10 3.32 10 4 C10.721875 4.20625 11.44375 4.4125 12.1875 4.625 C15.9255306 6.45248163 17.49246917 8.70438806 20 12 C19 14 19 14 17 15 C16.46375 14.113125 15.9275 13.22625 15.375 12.3125 C11.45044746 6.47386745 6.42583464 3.44181717 0 1 C0 0.67 0 0.34 0 0 Z " fill="#DCDCDC" transform="translate(81,33)"/>
<path d="M0 0 C0.66 0.33 1.32 0.66 2 1 C-2.55688549 5.44004227 -6.58452656 7.48676212 -13 8 C-13.99 7.67 -14.98 7.34 -16 7 C-16 6.01 -16 5.02 -16 4 C-14.92878906 3.79503906 -13.85757812 3.59007813 -12.75390625 3.37890625 C-11.35673149 3.10697291 -9.95959819 2.83482648 -8.5625 2.5625 C-7.85544922 2.42779297 -7.14839844 2.29308594 -6.41992188 2.15429688 C-2.91570736 1.71593102 -2.91570736 1.71593102 0 0 Z " fill="#5F5C55" transform="translate(23,63)"/>
<path d="M0 0 C3.37462715 0.54723683 5.08235 1.0549 8 3 C7.67 2.01 7.34 1.02 7 0 C10.35915158 1.43963639 12.71624938 3.12416589 15 6 C14.75 8.25 14.75 8.25 14 10 C9.72009555 9.52445506 7.87301689 7.01316405 5 4 C3.35135455 2.64444707 1.68996005 1.30368347 0 0 Z " fill="#605F5E" transform="translate(99,22)"/>
<path d="M0 0 C0.66 0.33 1.32 0.66 2 1 C0.05279851 4.50496269 -1.82650697 7.49967216 -5 10 C-7.25 9.75 -7.25 9.75 -9 9 C-7.55536047 5.62917442 -5.75336875 3.41962708 -3 1 C-2.01 0.67 -1.02 0.34 0 0 Z " fill="#A5A5A4" transform="translate(39,22)"/>
<path d="M0 0 C-0.48941176 7.34117647 -0.48941176 7.34117647 -2.9375 10.5 C-5 12 -5 12 -7 12 C-6.67 10.35 -6.34 8.7 -6 7 C-6.66 6.67 -7.32 6.34 -8 6 C-7.0479279 4.99403703 -6.08812654 3.99538437 -5.125 3 C-4.59132813 2.443125 -4.05765625 1.88625 -3.5078125 1.3125 C-2 0 -2 0 0 0 Z " fill="#2E2D2A" transform="translate(102,87)"/>
<path d="M0 0 C1.32176485 0.90325616 2.63215066 1.82317903 3.9375 2.75 C4.66839844 3.26046875 5.39929688 3.7709375 6.15234375 4.296875 C8.20805399 6.19177915 8.62669176 7.27425729 9 10 C8.01 9.67 7.02 9.34 6 9 C6 8.01 6 7.02 6 6 C4.68 5.67 3.36 5.34 2 5 C2 4.34 2 3.68 2 3 C1.34 3 0.68 3 0 3 C0.639375 4.0725 1.27875 5.145 1.9375 6.25 C3.40601273 8.80822182 4.52854542 11.05340886 5 14 C2.04415849 11.24800963 -0.18765147 8.62469707 -2 5 C-2 3.68 -2 2.36 -2 1 C-1.34 0.67 -0.68 0.34 0 0 Z " fill="#5A5956" transform="translate(23,87)"/>
<path d="M0 0 C0 0.66 0 1.32 0 2 C0.804375 2.12375 1.60875 2.2475 2.4375 2.375 C3.283125 2.58125 4.12875 2.7875 5 3 C5.33 3.66 5.66 4.32 6 5 C5.16855469 4.7834375 4.33710937 4.566875 3.48046875 4.34375 C2.39378906 4.0653125 1.30710937 3.786875 0.1875 3.5 C-0.89144531 3.2215625 -1.97039062 2.943125 -3.08203125 2.65625 C-5.98933975 1.89029052 -5.98933975 1.89029052 -9 2 C-9.33 2.99 -9.66 3.98 -10 5 C-13.3 5 -16.6 5 -20 5 C-19.67 4.34 -19.34 3.68 -19 3 C-16.36 3.33 -13.72 3.66 -11 4 C-11 2.68 -11 1.36 -11 0 C-7.18243176 -1.37432457 -3.92744671 -0.67975039 0 0 Z " fill="#4A4A48" transform="translate(93,17)"/>
<path d="M0 0 C0.97066406 0.17144531 1.94132812 0.34289062 2.94140625 0.51953125 C5.4375 1.1875 5.4375 1.1875 7.4375 3.1875 C6.365 3.331875 5.2925 3.47625 4.1875 3.625 C0.66247933 4.05470253 0.66247933 4.05470253 -1.75 4.875 C-4.22045789 5.30094102 -5.46823222 4.45901973 -7.5625 3.1875 C-6.9025 2.8575 -6.2425 2.5275 -5.5625 2.1875 C-6.5525 1.5275 -7.5425 0.8675 -8.5625 0.1875 C-5.14575399 -0.95141534 -3.50072735 -0.64793755 0 0 Z " fill="#989897" transform="translate(67.5625,94.8125)"/>
<path d="M0 0 C0.25 2.75 0.25 2.75 0 6 C-2 8.375 -2 8.375 -4 10 C-3.67 8.35 -3.34 6.7 -3 5 C-5.31 6.32 -7.62 7.64 -10 9 C-8.13405729 4.41995879 -5.20913241 0 0 0 Z " fill="#878684" transform="translate(123,87)"/>
<path d="M0 0 C0.66 0 1.32 0 2 0 C2.33 0.99 2.66 1.98 3 3 C3.99 3.33 4.98 3.66 6 4 C6.33 3.34 6.66 2.68 7 2 C7 3.98 7 5.96 7 8 C6.67 7.34 6.34 6.68 6 6 C5.01 6.33 4.02 6.66 3 7 C2.67 7.99 2.34 8.98 2 10 C1.34 10 0.68 10 0 10 C-2.21538462 4.58461538 -2.21538462 4.58461538 -1.125 1.625 C-0.75375 1.08875 -0.3825 0.5525 0 0 Z " fill="#4D4C48" transform="translate(54,63)"/>
<path d="M0 0 C-0.33 1.65 -0.66 3.3 -1 5 C-1.66 5 -2.32 5 -3 5 C-3.66 6.65 -4.32 8.3 -5 10 C-5.99 9.67 -6.98 9.34 -8 9 C-7.70100785 5.41209425 -7.23013399 4.21833224 -4.5625 1.6875 C-2 0 -2 0 0 0 Z " fill="#E6E6E6" transform="translate(120,92)"/>
<path d="M0 0 C1 3 1 3 1 5 C-2.99875153 7.1897925 -6.41829395 8.69455293 -11 9 C-11.99 8.34 -12.98 7.68 -14 7 C-12.98679687 6.74476562 -12.98679687 6.74476562 -11.953125 6.484375 C-5.11888033 4.69961407 -5.11888033 4.69961407 0 0 Z " fill="#959493" transform="translate(96,113)"/>
<path d="M0 0 C-6.14713677 3.35298369 -12.05176959 3.81185697 -19 3 C-19.66 2.34 -20.32 1.68 -21 1 C-18.06328811 0.6377756 -15.12596806 0.28491613 -12.1875 -0.0625 C-10.93743164 -0.2181543 -10.93743164 -0.2181543 -9.66210938 -0.37695312 C-8.45844727 -0.51713867 -8.45844727 -0.51713867 -7.23046875 -0.66015625 C-6.49207764 -0.74918213 -5.75368652 -0.83820801 -4.99291992 -0.92993164 C-3 -1 -3 -1 0 0 Z " fill="#CCCCCB" transform="translate(87,97)"/>
<path d="M0 0 C0.99 0 1.98 0 3 0 C4.71767682 3.98188718 6.41037341 7.96479403 8 12 C7.34 12.66 6.68 13.32 6 14 C0 4.28571429 0 4.28571429 0 0 Z " fill="#B5B5B4" transform="translate(40,76)"/>
<path d="M0 0 C1.35015859 4.05047576 0.62084998 6.7920168 0 11 C0.99 11.33 1.98 11.66 3 12 C1.02 12.33 -0.96 12.66 -3 13 C-3 9.7 -3 6.4 -3 3 C-2.34 3 -1.68 3 -1 3 C-0.67 2.01 -0.34 1.02 0 0 Z " fill="#C1C1C0" transform="translate(82,110)"/>
<path d="M0 0 C-4.90434563 2.8923064 -9.35239451 4.04026813 -15 4 C-18.5625 3.0625 -18.5625 3.0625 -21 2 C-21 1.67 -21 1.34 -21 1 C-18.06328811 0.6377756 -15.12596806 0.28491613 -12.1875 -0.0625 C-10.93743164 -0.2181543 -10.93743164 -0.2181543 -9.66210938 -0.37695312 C-8.45844727 -0.51713867 -8.45844727 -0.51713867 -7.23046875 -0.66015625 C-6.49207764 -0.74918213 -5.75368652 -0.83820801 -4.99291992 -0.92993164 C-3 -1 -3 -1 0 0 Z " fill="#A8A7A7" transform="translate(90,94)"/>
<path d="M0 0 C0.33 0.66 0.66 1.32 1 2 C0.23816406 2.49306641 0.23816406 2.49306641 -0.5390625 2.99609375 C-5.53593446 6.44898842 -8.65144578 9.93830483 -11.7734375 15.14453125 C-13 17 -13 17 -15 18 C-12.96252877 11.48009206 -8.13790837 5.42923135 -3 1 C-2.01 0.67 -1.02 0.34 0 0 Z " fill="#595856" transform="translate(118,78)"/>
<path d="M0 0 C2.97 0.495 2.97 0.495 6 1 C6 2.32 6 3.64 6 5 C6.66 5 7.32 5 8 5 C8 5.99 8 6.98 8 8 C7.34 8 6.68 8 6 8 C5.67 6.02 5.34 4.04 5 2 C4.01 2 3.02 2 2 2 C2.45052734 2.93972656 2.45052734 2.93972656 2.91015625 3.8984375 C3.29042969 4.71570313 3.67070313 5.53296875 4.0625 6.375 C4.63677734 7.59316406 4.63677734 7.59316406 5.22265625 8.8359375 C5.47917969 9.55007812 5.73570313 10.26421875 6 11 C5.67 11.66 5.34 12.32 5 13 C-0.74031891 4.738041 -0.74031891 4.738041 0 0 Z " fill="#4D4D47" transform="translate(38,74)"/>
<path d="M0 0 C-6.99409927 4.04373481 -6.99409927 4.04373481 -10.875 3.875 C-13 3 -13 3 -15 1 C-13.20150071 -0.79849929 -10.49922152 -0.42218132 -8.0625 -0.625 C-6.98097656 -0.72039062 -5.89945313 -0.81578125 -4.78515625 -0.9140625 C-2 -1 -2 -1 0 0 Z " fill="#4B4946" transform="translate(82,100)"/>
<path d="M0 0 C3.91211733 1.15585285 6.8745041 2.35534962 10 5 C7.69 4.67 5.38 4.34 3 4 C3.33 5.32 3.66 6.64 4 8 C2.68 7.67 1.36 7.34 0 7 C0 4.69 0 2.38 0 0 Z " fill="#C1C0C0" transform="translate(50,96)"/>
<path d="M0 0 C1.98738098 0.01761863 3.97253109 0.16698176 5.953125 0.33203125 C5.953125 0.99203125 5.953125 1.65203125 5.953125 2.33203125 C3.6803575 3.82727303 1.3851307 5.1160284 -1.046875 6.33203125 C-1.706875 5.67203125 -2.366875 5.01203125 -3.046875 4.33203125 C-3.376875 4.99203125 -3.706875 5.65203125 -4.046875 6.33203125 C-4.706875 6.00203125 -5.366875 5.67203125 -6.046875 5.33203125 C-3.15469741 0.51173527 -3.15469741 0.51173527 0 0 Z " fill="#DBDBDB" transform="translate(112.046875,76.66796875)"/>
<path d="M0 0 C2 3.75 2 3.75 2 6 C1.01 6.495 1.01 6.495 0 7 C-0.46651207 9.12576782 -0.46651207 9.12576782 -0.625 11.5625 C-0.69976562 12.38878906 -0.77453125 13.21507813 -0.8515625 14.06640625 C-0.90054688 14.70449219 -0.94953125 15.34257813 -1 16 C-1.33 15.01 -1.66 14.02 -2 13 C-2.99 12.67 -3.98 12.34 -5 12 C-5.6875 9.9375 -5.6875 9.9375 -6 8 C-4.68 8 -3.36 8 -2 8 C-2 7.01 -2 6.02 -2 5 C-1.34 5 -0.68 5 0 5 C0 3.35 0 1.7 0 0 Z " fill="#514F4B" transform="translate(84,56)"/>
<path d="M0 0 C1.32 0 2.64 0 4 0 C3.690625 0.99 3.38125 1.98 3.0625 3 C1.91566793 6.97731122 1.43287644 10.88767379 1 15 C0.34 15 -0.32 15 -1 15 C-1.18451025 4.44191344 -1.18451025 4.44191344 0 0 Z " fill="#908F8D" transform="translate(48,51)"/>
<path d="M0 0 C0.66 0.66 1.32 1.32 2 2 C-0.31 2.66 -2.62 3.32 -5 4 C-5 3.34 -5 2.68 -5 2 C-10.445 3.485 -10.445 3.485 -16 5 C-13.71815278 1.57722917 -12.92758978 1.35579762 -9.125 0.25 C-8.26132812 -0.01296875 -7.39765625 -0.2759375 -6.5078125 -0.546875 C-3.88079116 -1.02153929 -2.4690423 -0.96196453 0 0 Z " fill="#BEBEBD" transform="translate(65,27)"/>
<path d="M0 0 C2.49361571 1.20381448 4.68143083 2.45428722 7 4 C7 4.66 7 5.32 7 6 C6.34 6 5.68 6 5 6 C5 6.66 5 7.32 5 8 C2.53199953 6.84826645 0.95216435 5.95216435 -1 4 C-0.625 1.875 -0.625 1.875 0 0 Z " fill="#E6E6E6" transform="translate(34,102)"/>
<path d="M0 0 C0.66 0 1.32 0 2 0 C2 0.66 2 1.32 2 2 C2.99 2.33 3.98 2.66 5 3 C4.525625 3.598125 4.05125 4.19625 3.5625 4.8125 C1.83534256 7.00382924 1.83534256 7.00382924 1 10 C0.34 10 -0.32 10 -1 10 C-1.33 10.99 -1.66 11.98 -2 13 C-2.66 12.67 -3.32 12.34 -4 12 C-2.87548273 9.0280615 -1.77706209 6.66559313 0 4 C0 2.68 0 1.36 0 0 Z " fill="#494846" transform="translate(105,75)"/>
<path d="M0 0 C0.66 0 1.32 0 2 0 C2.66 1.98 3.32 3.96 4 6 C3.34 6 2.68 6 2 6 C2 7.32 2 8.64 2 10 C1.34 10 0.68 10 0 10 C-0.33 9.01 -0.66 8.02 -1 7 C-1.99 6.67 -2.98 6.34 -4 6 C-3.67 5.01 -3.34 4.02 -3 3 C-2.01 3.33 -1.02 3.66 0 4 C0 2.68 0 1.36 0 0 Z " fill="#454441" transform="translate(92,63)"/>
<path d="M0 0 C1.75570312 0.01353516 1.75570312 0.01353516 3.546875 0.02734375 C4.43890625 0.03894531 5.3309375 0.05054687 6.25 0.0625 C5.92 0.7225 5.59 1.3825 5.25 2.0625 C-3.165 2.5575 -3.165 2.5575 -11.75 3.0625 C-10.75 1.0625 -10.75 1.0625 -9.109375 0.44140625 C-6.04728012 -0.05035402 -3.10003047 -0.0310003 0 0 Z " fill="#929291" transform="translate(71.75,28.9375)"/>
<path d="M0 0 C0 0.99 0 1.98 0 3 C-0.886875 3.12375 -1.77375 3.2475 -2.6875 3.375 C-5.70387502 3.94412736 -8.20326054 4.76614436 -11 6 C-11.66 5.34 -12.32 4.68 -13 4 C-11.40233897 3.13372601 -9.79660056 2.28233535 -8.1875 1.4375 C-7.29417969 0.96183594 -6.40085937 0.48617187 -5.48046875 -0.00390625 C-3 -1 -3 -1 0 0 Z " fill="#686765" transform="translate(96,94)"/>
<path d="M0 0 C4.54805635 -0.17835515 7.8794254 0.00214565 12 2 C11.67 2.99 11.34 3.98 11 5 C7.7 5 4.4 5 1 5 C1 4.67 1 4.34 1 4 C2.98 3.67 4.96 3.34 7 3 C4.69 2.34 2.38 1.68 0 1 C0 0.67 0 0.34 0 0 Z " fill="#2B2A27" transform="translate(127,66)"/>
<path d="M0 0 C0.66 0 1.32 0 2 0 C0.58319756 4.32046898 -1.53763785 7.00461199 -4.625 10.3125 C-5.44226563 11.19550781 -6.25953125 12.07851562 -7.1015625 12.98828125 C-8.04128906 13.98408203 -8.04128906 13.98408203 -9 15 C-9.66 14.67 -10.32 14.34 -11 14 C-8.9138709 11.29575858 -6.82242042 8.82664851 -4.375 6.4375 C-2.29018101 4.29781736 -1.11188358 2.72916878 0 0 Z " fill="#575655" transform="translate(117,97)"/>
<path d="M0 0 C1.32 0.33 2.64 0.66 4 1 C4 1.99 4 2.98 4 4 C4.66 4 5.32 4 6 4 C5.67 5.65 5.34 7.3 5 9 C4.34 8.67 3.68 8.34 3 8 C3 7.34 3 6.68 3 6 C2.34 6 1.68 6 1 6 C0.67 4.02 0.34 2.04 0 0 Z " fill="#C7C7C6" transform="translate(50,69)"/>
<path d="M0 0 C4.95839497 4.79844675 4.95839497 4.79844675 5.09765625 8.8203125 C5.08605469 9.91085938 5.07445313 11.00140625 5.0625 12.125 C5.05347656 13.22070312 5.04445313 14.31640625 5.03515625 15.4453125 C5.02355469 16.28835937 5.01195313 17.13140625 5 18 C4.01 17.67 3.02 17.34 2 17 C2.66 17 3.32 17 4 17 C3.89937511 10.22120153 3.89937511 10.22120153 0.9375 4.375 C0.298125 3.92125 -0.34125 3.4675 -1 3 C-0.67 2.01 -0.34 1.02 0 0 Z " fill="#999897" transform="translate(61,106)"/>
<path d="M0 0 C0 3 0 3 -1.75 5.0625 C-3.82634719 6.85046563 -5.42626494 8.08673917 -8 9 C-8.99 8.67 -9.98 8.34 -11 8 C-10.34 7.67 -9.68 7.34 -9 7 C-8.34227572 3.97065509 -8.34227572 3.97065509 -8 1 C-7.34 2.32 -6.68 3.64 -6 5 C-4.02 3.35 -2.04 1.7 0 0 Z " fill="#484845" transform="translate(102,96)"/>
<path d="M0 0 C1.65 0.33 3.3 0.66 5 1 C4.67 1.99 4.34 2.98 4 4 C3.34 4 2.68 4 2 4 C2 5.32 2 6.64 2 8 C1.01 8 0.02 8 -1 8 C-0.67 5.36 -0.34 2.72 0 0 Z " fill="#D2D2D1" transform="translate(80,13)"/>
<path d="M0 0 C1.98 0.99 1.98 0.99 4 2 C4 4.64 4 7.28 4 10 C3.34 9.34 2.68 8.68 2 8 C1.01 8.495 1.01 8.495 0 9 C0 6.03 0 3.06 0 0 Z " fill="#B5B5B3" transform="translate(83,52)"/>
<path d="M0 0 C5.4611399 0.35233161 5.4611399 0.35233161 8 1 C9.5 3.0625 9.5 3.0625 10 5 C8.68 5 7.36 5 6 5 C6 4.34 6 3.68 6 3 C3.69 2.67 1.38 2.34 -1 2 C-0.67 1.34 -0.34 0.68 0 0 Z " fill="#A2A1A1" transform="translate(78,29)"/>
<path d="M0 0 C3.96 0 7.92 0 12 0 C9.31907309 2.68092691 7.60832637 2.38670257 3.875 2.625 C2.77929688 2.69976562 1.68359375 2.77453125 0.5546875 2.8515625 C-0.28835937 2.90054688 -1.13140625 2.94953125 -2 3 C-1.34 2.67 -0.68 2.34 0 2 C0 1.34 0 0.68 0 0 Z " fill="#8B8A89" transform="translate(124,75)"/>
<path d="M0 0 C0.33 0 0.66 0 1 0 C1 3.63 1 7.26 1 11 C0.01 10.67 -0.98 10.34 -2 10 C-1.85950482 8.52031676 -1.71245174 7.04125484 -1.5625 5.5625 C-1.48128906 4.73878906 -1.40007812 3.91507813 -1.31640625 3.06640625 C-1 1 -1 1 0 0 Z " fill="#EBEBEB" transform="translate(97,56)"/>
<path d="M0 0 C1.44430855 2.88861709 1.37688506 4.79647701 1 8 C-1.375 10.875 -1.375 10.875 -4 13 C-4.66 13 -5.32 13 -6 13 C-4.84826645 10.53199953 -3.95216435 8.95216435 -2 7 C-1.28072705 4.68234271 -0.6090107 2.34904126 0 0 Z " fill="#A2A1A0" transform="translate(102,88)"/>
<path d="M0 0 C2.31 0 4.62 0 7 0 C7 0.99 7 1.98 7 3 C5.68 3 4.36 3 3 3 C2.67 3.99 2.34 4.98 2 6 C1.34 4.02 0.68 2.04 0 0 Z " fill="#E7E7E7" transform="translate(45,77)"/>
<path d="M0 0 C1.5 1.375 1.5 1.375 3 3 C3 3.66 3 4.32 3 5 C3.66 5 4.32 5 5 5 C5 7.64 5 10.28 5 13 C4.34 12.67 3.68 12.34 3 12 C2.2986716 9.67684969 1.63514826 7.34210921 1 5 C0.37530495 3.64649406 -0.2716331 2.30065517 -1 1 C-0.67 0.67 -0.34 0.34 0 0 Z " fill="#B0B0AF" transform="translate(101,43)"/>
<path d="M0 0 C-9.41002278 4.40774487 -9.41002278 4.40774487 -14 5 C-10.01450291 0.40134951 -5.98452531 -1.79277806 0 0 Z " fill="#71706F" transform="translate(66,32)"/>
<path d="M0 0 C1.32 0 2.64 0 4 0 C4.33 2.64 4.66 5.28 5 8 C4.34 8 3.68 8 3 8 C2.67 6.68 2.34 5.36 2 4 C1.34 4 0.68 4 0 4 C0 2.68 0 1.36 0 0 Z " fill="#D7D7D7" transform="translate(60,13)"/>
<path d="M0 0 C0.66 0 1.32 0 2 0 C3.625 2.5 3.625 2.5 5 5 C4.34 5 3.68 5 3 5 C2.67 5.66 2.34 6.32 2 7 C1.34 6.67 0.68 6.34 0 6 C0 5.34 0 4.68 0 4 C-0.66 4 -1.32 4 -2 4 C-2 3.34 -2 2.68 -2 2 C-1.34 2 -0.68 2 0 2 C0 1.34 0 0.68 0 0 Z " fill="#7E7E7C" transform="translate(41,106)"/>
<path d="M0 0 C3.63 0 7.26 0 11 0 C9.68 1.32 8.36 2.64 7 4 C7 3.34 7 2.68 7 2 C5.68 2 4.36 2 3 2 C2.67 2.66 2.34 3.32 2 4 C1.01 3.67 0.02 3.34 -1 3 C-0.67 2.01 -0.34 1.02 0 0 Z " fill="#AFAFAD" transform="translate(67,105)"/>
<path d="M0 0 C2.97 0.495 2.97 0.495 6 1 C6 1.66 6 2.32 6 3 C6.639375 3.28875 7.27875 3.5775 7.9375 3.875 C10 5 10 5 11 7 C9.02 6.34 7.04 5.68 5 5 C5 4.34 5 3.68 5 3 C4.01 3 3.02 3 2 3 C2 2.34 2 1.68 2 1 C1.34 0.67 0.68 0.34 0 0 Z " fill="#989897" transform="translate(86,32)"/>
<path d="M0 0 C0.66 0.33 1.32 0.66 2 1 C1.43628586 4.26954202 0.50037734 5.82575883 -2 8 C-2.66 7.67 -3.32 7.34 -4 7 C-3.67 5.68 -3.34 4.36 -3 3 C-2.34 3 -1.68 3 -1 3 C-0.67 2.01 -0.34 1.02 0 0 Z " fill="#EBEBEB" transform="translate(109,80)"/>
<path d="M0 0 C1.41573582 4.24720747 -0.23670387 6.4310024 -2.125 10.3125 C-2.41375 10.869375 -2.7025 11.42625 -3 12 C-3.66 12 -4.32 12 -5 12 C-4.54738642 10.56068883 -4.08767021 9.12361001 -3.625 7.6875 C-3.24214844 6.48673828 -3.24214844 6.48673828 -2.8515625 5.26171875 C-2 3 -2 3 0 0 Z " fill="#666561" transform="translate(36,45)"/>
<path d="M0 0 C3.43595166 1.52708963 6.11912454 3.59927045 9 6 C6.69 5.67 4.38 5.34 2 5 C2 4.34 2 3.68 2 3 C1.34 3 0.68 3 0 3 C0 2.01 0 1.02 0 0 Z " fill="#C2C2C1" transform="translate(45,113)"/>
<path d="M0 0 C-1.26418246 0.69965443 -2.53665402 1.38434763 -3.8125 2.0625 C-4.52019531 2.44535156 -5.22789063 2.82820313 -5.95703125 3.22265625 C-8 4 -8 4 -11 3 C-7.56065558 -0.95524608 -4.91824601 -1.35534128 0 0 Z " fill="#EAEAEA" transform="translate(70,40)"/>
<path d="M0 0 C0 3.99904969 -1.72586967 5.80200422 -4 9 C-4.66 8.67 -5.32 8.34 -6 8 C-4.73058503 4.08597051 -3.48832306 2.20927127 0 0 Z " fill="#AFAFAE" transform="translate(104,79)"/>
<path d="M0 0 C0.66 0.99 1.32 1.98 2 3 C-0.97 5.475 -0.97 5.475 -4 8 C-3.50168276 4.31245243 -2.89932357 2.39509338 0 0 Z " fill="#444341" transform="translate(95,76)"/>
<path d="M0 0 C0.33 1.32 0.66 2.64 1 4 C1.99 4 2.98 4 4 4 C4.33 3.34 4.66 2.68 5 2 C5 3.65 5 5.3 5 7 C3.35 6.67 1.7 6.34 0 6 C-0.38218767 4.34385343 -0.71395102 2.67542976 -1 1 C-0.67 0.67 -0.34 0.34 0 0 Z " fill="#E9E9E9" transform="translate(77,57)"/>
<path d="M0 0 C0.66 0.33 1.32 0.66 2 1 C1.09972412 2.03531726 0.17906965 3.05294165 -0.75 4.0625 C-1.51570313 4.91521484 -1.51570313 4.91521484 -2.296875 5.78515625 C-4 7 -4 7 -6.203125 6.68359375 C-6.79609375 6.45800781 -7.3890625 6.23242188 -8 6 C-7.67 5.01 -7.34 4.02 -7 3 C-6.67 3.66 -6.34 4.32 -6 5 C-4.02 3.35 -2.04 1.7 0 0 Z " fill="#3C3B3A" transform="translate(38,25)"/>
<path d="M0 0 C1 3 1 3 1 5 C-1.31 5.33 -3.62 5.66 -6 6 C-2.25 1.125 -2.25 1.125 0 0 Z " fill="#8F8E8E" transform="translate(96,113)"/>
<path d="M0 0 C0.66 0 1.32 0 2 0 C2.1875 2.875 2.1875 2.875 2 6 C1.01 6.66 0.02 7.32 -1 8 C-1.04241723 5.66705225 -1.04092937 3.33297433 -1 1 C-0.67 0.67 -0.34 0.34 0 0 Z " fill="#EBEBEB" transform="translate(88,70)"/>
<path d="M0 0 C1.25541557 3.76624671 0.37061958 5.37188934 -1 9 C-1.66 9 -2.32 9 -3 9 C-3 7.02 -3 5.04 -3 3 C-2.34 3 -1.68 3 -1 3 C-0.67 2.01 -0.34 1.02 0 0 Z " fill="#CFCFCF" transform="translate(82,110)"/>
<path d="M0 0 C0.66 0 1.32 0 2 0 C1.67 0.99 1.34 1.98 1 3 C0.77674186 5.05893621 0.59294241 7.12233653 0.4375 9.1875 C0.35371094 10.27417969 0.26992187 11.36085938 0.18359375 12.48046875 C0.12300781 13.31191406 0.06242187 14.14335938 0 15 C-0.33 15 -0.66 15 -1 15 C-1.02685412 12.68756208 -1.04632841 10.3750373 -1.0625 8.0625 C-1.07410156 6.77472656 -1.08570312 5.48695312 -1.09765625 4.16015625 C-1 1 -1 1 0 0 Z " fill="#ADADAB" transform="translate(76,109)"/>
<path d="M0 0 C0 0.66 0 1.32 0 2 C-2.64 2 -5.28 2 -8 2 C-8 1.34 -8 0.68 -8 0 C-5.13822943 -1.43088528 -3.06624227 -0.59991697 0 0 Z " fill="#EAEAEA" transform="translate(125,66)"/>
<path d="M0 0 C2 4 2 4 1.125 7.25 C0.75375 8.1575 0.3825 9.065 0 10 C-0.66 9.67 -1.32 9.34 -2 9 C-1.34 6.03 -0.68 3.06 0 0 Z " fill="#737270" transform="translate(42,47)"/>
<path d="M0 0 C0.99 0.66 1.98 1.32 3 2 C1.35 3.98 -0.3 5.96 -2 8 C-2.6875 6.25 -2.6875 6.25 -3 4 C-1.5625 1.75 -1.5625 1.75 0 0 Z " fill="#6F6E6C" transform="translate(53,44)"/>
<path d="M0 0 C0 0.66 0 1.32 0 2 C-0.99 2 -1.98 2 -3 2 C-3 2.66 -3 3.32 -3 4 C-4.9375 3.625 -4.9375 3.625 -7 3 C-7.33 2.34 -7.66 1.68 -8 1 C-5.10765685 0.17361624 -3.11257569 0 0 0 Z " fill="#E5E5E5" transform="translate(65,34)"/>
<path d="M0 0 C2.875 -0.125 2.875 -0.125 6 0 C6.66 0.66 7.32 1.32 8 2 C5.36 2.66 2.72 3.32 0 4 C0 2.68 0 1.36 0 0 Z " fill="#9F9F9E" transform="translate(84,13)"/>
<path d="M0 0 C0.66 0 1.32 0 2 0 C2 0.66 2 1.32 2 2 C3.32 2.33 4.64 2.66 6 3 C5 5 5 5 3 7 C0 3.375 0 3.375 0 0 Z " fill="#D6D6D5" transform="translate(23,90)"/>
<path d="M0 0 C-2.62198774 2.15377564 -4.64404172 3.40072174 -8 4 C-8 3.01 -8 2.02 -8 1 C-5.29120665 -0.35439668 -2.99066732 -0.06501451 0 0 Z " fill="#E6E6E6" transform="translate(105,77)"/>
<path d="M0 0 C1.32 0.33 2.64 0.66 4 1 C3.01 1 2.02 1 1 1 C0.67 2.65 0.34 4.3 0 6 C-0.99 6 -1.98 6 -3 6 C-3 4.68 -3 3.36 -3 2 C-2.34 2 -1.68 2 -1 2 C-0.67 1.34 -0.34 0.68 0 0 Z " fill="#A09F9E" transform="translate(63,69)"/>
<path d="M0 0 C1.32 0 2.64 0 4 0 C4 1.98 4 3.96 4 6 C3.67 5.01 3.34 4.02 3 3 C2.34 3 1.68 3 1 3 C0.67 3.99 0.34 4.98 0 6 C0 4.02 0 2.04 0 0 Z " fill="#BEBDBD" transform="translate(53,60)"/>
<path d="M0 0 C0.66 0 1.32 0 2 0 C2.12375 0.969375 2.2475 1.93875 2.375 2.9375 C2.684375 4.4534375 2.684375 4.4534375 3 6 C3.66 6.33 4.32 6.66 5 7 C4.01 7 3.02 7 2 7 C1.67 6.01 1.34 5.02 1 4 C0.01 4.495 0.01 4.495 -1 5 C-0.67 3.35 -0.34 1.7 0 0 Z " fill="#A3A3A2" transform="translate(61,60)"/>
<path d="M0 0 C2.94887797 0.50842724 5.37371875 1.59306362 8 3 C2.25 3.125 2.25 3.125 0 2 C-0.33 2.66 -0.66 3.32 -1 4 C-1 1 -1 1 0 0 Z " fill="#D8D7D7" transform="translate(67,103)"/>
<path d="M0 0 C0.99 0 1.98 0 3 0 C3.25 2.75 3.25 2.75 3 6 C1 8.375 1 8.375 -1 10 C-0.30058404 6.85262818 0.76078698 3.97411124 2 1 C1.34 0.67 0.68 0.34 0 0 Z " fill="#3F3E3C" transform="translate(120,87)"/>
<path d="M0 0 C0.99 0 1.98 0 3 0 C3.625 2.375 3.625 2.375 4 5 C3.34 5.66 2.68 6.32 2 7 C0.5393715 4.35261084 0 3.10551666 0 0 Z " fill="#BFBEBE" transform="translate(40,76)"/>
<path d="M0 0 C0.66 0 1.32 0 2 0 C2 0.66 2 1.32 2 2 C2.99 2.33 3.98 2.66 5 3 C3.625 5 3.625 5 2 7 C1.34 7 0.68 7 0 7 C0 4.69 0 2.38 0 0 Z " fill="#3B3A38" transform="translate(105,75)"/>
<path d="M0 0 C-1.04874998 2.62187494 -1.64931313 3.79371361 -4.125 5.25 C-4.74375 5.4975 -5.3625 5.745 -6 6 C-5.625 3.5625 -5.625 3.5625 -5 1 C-3 0 -3 0 0 0 Z " fill="#F0F0F0" transform="translate(51,46)"/>
<path d="M0 0 C3.06393013 -0.25532751 4.63233212 -0.21861333 7.3125 1.375 C7.869375 1.91125 8.42625 2.4475 9 3 C9 3.66 9 4.32 9 5 C8.1646875 4.566875 8.1646875 4.566875 7.3125 4.125 C4.91505355 2.9586747 2.48403061 1.9660119 0 1 C0 0.67 0 0.34 0 0 Z " fill="#B7B7B7" transform="translate(98,20)"/>
</svg>
