<?xml version="1.0" encoding="UTF-8"?>
<svg version="1.1" xmlns="http://www.w3.org/2000/svg" width="256" height="256">
<path d="M0 0 C1.4540625 0.7734375 1.4540625 0.7734375 2.9375 1.5625 C4.01 1.68625 5.0825 1.81 6.1875 1.9375 C7.54875 2.246875 7.54875 2.246875 8.9375 2.5625 C9.33324219 3.33980469 9.72898438 4.11710937 10.13671875 4.91796875 C12.57909108 8.50470642 15.53616422 9.24436649 19.5 10.5 C31.6103391 14.72148077 42.86039051 21.2388761 50.5859375 31.8203125 C51.86857377 33.83114554 51.86857377 33.83114554 54.625 34.3125 C55.388125 34.395 56.15125 34.4775 56.9375 34.5625 C56.9375 35.2225 56.9375 35.8825 56.9375 36.5625 C57.88625 36.871875 58.835 37.18125 59.8125 37.5 C62.9375 38.5625 62.9375 38.5625 64.9375 39.5625 C64.9375 40.5525 64.9375 41.5425 64.9375 42.5625 C63.66910474 43.06865298 62.39766898 43.56719099 61.125 44.0625 C60.41730469 44.3409375 59.70960938 44.619375 58.98046875 44.90625 C56.9375 45.5625 56.9375 45.5625 53.9375 45.5625 C53.9375 46.2225 53.9375 46.8825 53.9375 47.5625 C54.51491943 47.50715088 55.09233887 47.45180176 55.68725586 47.39477539 C68.09584419 46.21376584 80.48816125 45.18992026 92.9375 44.5625 C92.9375 45.2225 92.9375 45.8825 92.9375 46.5625 C92.30884033 46.69825439 91.68018066 46.83400879 91.0324707 46.97387695 C88.10477811 47.60665273 85.17737217 48.24074355 82.25 48.875 C81.1995752 49.1021167 80.14915039 49.3292334 79.06689453 49.56323242 C72.50932182 50.98635015 65.97417692 52.46710476 59.4609375 54.08203125 C56.89187408 54.57118729 54.54608587 54.65196414 51.9375 54.5625 C49.54676555 58.38767513 49.37783448 62.15915524 48.9375 66.5625 C48.2775 66.5625 47.6175 66.5625 46.9375 66.5625 C45.60178296 72.98530959 44.45900671 79.40801706 43.5 85.8984375 C42.9375 88.5625 42.9375 88.5625 40.9375 92.5625 C36.9775 92.2325 33.0175 91.9025 28.9375 91.5625 C26.9375 85.9375 26.9375 85.9375 26.9375 82.5625 C26.2775 82.5625 25.6175 82.5625 24.9375 82.5625 C24.999375 81.61375 25.06125 80.665 25.125 79.6875 C25.125 74.79948701 23.9183341 70.02141463 21.9375 65.5625 C20.9475 64.9025 19.9575 64.2425 18.9375 63.5625 C17.19226843 56.49958296 17.69315247 50.05119506 20.9375 43.5625 C18.4625 45.0475 18.4625 45.0475 15.9375 46.5625 C15.6075 45.5725 15.2775 44.5825 14.9375 43.5625 C14.2775 43.2325 13.6175 42.9025 12.9375 42.5625 C13.02 41.86125 13.1025 41.16 13.1875 40.4375 C12.63804145 34.11872665 7.76693367 30.06395611 3.16015625 26.171875 C-3.9948702 20.99108256 -11.19455295 19.38940888 -19.875 19.4375 C-20.56142578 19.43363281 -21.24785156 19.42976563 -21.95507812 19.42578125 C-26.42105357 19.43423153 -30.65564064 19.83666434 -35.0625 20.5625 C-35.0625 21.2225 -35.0625 21.8825 -35.0625 22.5625 C-35.908125 22.8925 -36.75375 23.2225 -37.625 23.5625 C-44.63928108 27.64353626 -48.46778759 33.13094462 -50.65234375 40.875 C-50.78769531 41.431875 -50.92304687 41.98875 -51.0625 42.5625 C-51.7225 42.5625 -52.3825 42.5625 -53.0625 42.5625 C-53.61722465 46.26553036 -54.11933522 49.95769663 -54.4921875 53.68359375 C-54.56566406 54.39193359 -54.63914062 55.10027344 -54.71484375 55.83007812 C-54.86280512 57.27205252 -55.00348097 58.71479382 -55.13671875 60.15820312 C-55.8418891 66.73780103 -57.11126214 72.86129142 -62.0625 77.5625 C-65.20870433 83.06293308 -66.60567673 88.28117998 -67.0625 94.5625 C-67.7225 94.5625 -68.3825 94.5625 -69.0625 94.5625 C-69.3925 98.8525 -69.7225 103.1425 -70.0625 107.5625 C-72.0625 105.5625 -72.0625 105.5625 -72.28955078 103.1640625 C-72.27907715 102.18179688 -72.26860352 101.19953125 -72.2578125 100.1875 C-72.25136719 99.12015625 -72.24492188 98.0528125 -72.23828125 96.953125 C-72.22152344 95.83421875 -72.20476562 94.7153125 -72.1875 93.5625 C-72.17847656 92.44359375 -72.16945312 91.3246875 -72.16015625 90.171875 C-72.13589324 87.30190787 -72.10047589 84.43230873 -72.0625 81.5625 C-72.0625 80.9025 -72.0625 80.2425 -72.0625 79.5625 C-72.54470263 81.43672152 -73.02311833 83.31191754 -73.5 85.1875 C-73.76683594 86.23164062 -74.03367188 87.27578125 -74.30859375 88.3515625 C-75.88409196 95.06171551 -76.34122266 101.57101888 -76.625 108.4375 C-76.68977539 109.89929688 -76.68977539 109.89929688 -76.75585938 111.390625 C-76.86132274 113.78112802 -76.96344175 116.17172444 -77.0625 118.5625 C-76.4025 118.5625 -75.7425 118.5625 -75.0625 118.5625 C-75.09730469 119.12195313 -75.13210937 119.68140625 -75.16796875 120.2578125 C-75.42958618 128.00667151 -73.83204856 135.05337944 -72.0625 142.5625 C-71.72145427 144.22760561 -71.38498836 145.89370099 -71.0625 147.5625 C-71.7225 147.5625 -72.3825 147.5625 -73.0625 147.5625 C-80.26434827 138.20643318 -84.77001941 126.34149085 -85.0625 114.5625 C-85.7225 114.5625 -86.3825 114.5625 -87.0625 114.5625 C-85.74913288 130.42131133 -85.74913288 130.42131133 -81.0625 145.5625 C-80.4025 145.8925 -79.7425 146.2225 -79.0625 146.5625 C-78.815 147.3875 -78.5675 148.2125 -78.3125 149.0625 C-76.66066829 153.68762878 -74.3183972 157.86261682 -71.0625 161.5625 C-68.96451155 162.37297658 -68.96451155 162.37297658 -67.0625 162.5625 C-67.0625 164.2125 -67.0625 165.8625 -67.0625 167.5625 C-69.31135342 167.17476665 -70.71356853 166.91355263 -72.34765625 165.26953125 C-75.41049692 162.22064429 -79.12029441 159.95552435 -82.6640625 157.5 C-85.0625 155.5625 -85.0625 155.5625 -86.0625 152.5625 C-86.7225 152.5625 -87.3825 152.5625 -88.0625 152.5625 C-88.0625 151.9025 -88.0625 151.2425 -88.0625 150.5625 C-89.0525 150.5625 -90.0425 150.5625 -91.0625 150.5625 C-91.0625 149.2425 -91.0625 147.9225 -91.0625 146.5625 C-91.7225 146.5625 -92.3825 146.5625 -93.0625 146.5625 C-94.0390625 144.77213542 -95.015625 142.98177083 -95.9921875 141.19140625 C-96.97660024 139.39631685 -96.97660024 139.39631685 -99.0625 138.5625 C-99.65605614 135.91389573 -99.80459269 133.27052678 -100.0625 130.5625 C-101.0525 130.5625 -102.0425 130.5625 -103.0625 130.5625 C-106.73562078 115.73883401 -107.57566018 101.80730483 -107.0625 86.5625 C-108.21176266 87.51671808 -109.35680541 88.47602045 -110.5 89.4375 C-111.13808594 89.97117187 -111.77617188 90.50484375 -112.43359375 91.0546875 C-114.17055004 92.4847757 -114.17055004 92.4847757 -115.0625 94.5625 C-117.0425 94.5625 -119.0225 94.5625 -121.0625 94.5625 C-121.3925 93.9025 -121.7225 93.2425 -122.0625 92.5625 C-121.093125 92.02625 -120.12375 91.49 -119.125 90.9375 C-115.77917187 88.85679381 -115.77917187 88.85679381 -115.3125 85.375 C-115.18875 83.9828125 -115.18875 83.9828125 -115.0625 82.5625 C-114.0725 82.0675 -114.0725 82.0675 -113.0625 81.5625 C-112.65520772 79.24093403 -112.31811323 76.9056213 -112.0625 74.5625 C-112.67738281 74.45292969 -113.29226562 74.34335938 -113.92578125 74.23046875 C-115.13814453 73.99263672 -115.13814453 73.99263672 -116.375 73.75 C-117.57576172 73.52376953 -117.57576172 73.52376953 -118.80078125 73.29296875 C-121.32570524 72.47749244 -122.44319734 71.64296329 -124.0625 69.5625 C-124.0625 68.9025 -124.0625 68.2425 -124.0625 67.5625 C-123.0725 67.8925 -122.0825 68.2225 -121.0625 68.5625 C-114.6738771 69.08562465 -114.6738771 69.08562465 -109.0625 66.5625 C-108.815 65.840625 -108.5675 65.11875 -108.3125 64.375 C-106.39246296 60.05491665 -102.85803549 57.30635586 -99.0625 54.5625 C-98.4025 54.5625 -97.7425 54.5625 -97.0625 54.5625 C-97.18625 53.1084375 -97.18625 53.1084375 -97.3125 51.625 C-97.27851275 46.02843358 -95.22710259 40.93150816 -91.44921875 36.796875 C-88.78380013 34.45650743 -86.15950769 32.61706683 -83.0625 30.875 C-78.47001197 27.33495714 -75.95450428 22.5251109 -73.0625 17.5625 C-73.71089844 16.8096875 -74.35929687 16.056875 -75.02734375 15.28125 C-77.0625 12.5625 -77.0625 12.5625 -77.625 9.0625 C-76.92784577 4.72465145 -75.39348122 3.31055951 -72.0625 0.5625 C-72.7225 3.8625 -73.3825 7.1625 -74.0625 10.5625 C-73.0725 10.5625 -72.0825 10.5625 -71.0625 10.5625 C-71.0625 11.2225 -71.0625 11.8825 -71.0625 12.5625 C-64.29170629 13.1780267 -58.26379365 11.24255435 -52.0625 8.5625 C-51.7325 7.9025 -51.4025 7.2425 -51.0625 6.5625 C-49.6084375 6.5934375 -49.6084375 6.5934375 -48.125 6.625 C-43.72905485 6.63400808 -39.41813051 6.11559594 -35.0625 5.5625 C-35.0625 4.5725 -35.0625 3.5825 -35.0625 2.5625 C-33.7425 2.5625 -32.4225 2.5625 -31.0625 2.5625 C-31.0625 3.2225 -31.0625 3.8825 -31.0625 4.5625 C-30.44761719 4.21316406 -29.83273438 3.86382812 -29.19921875 3.50390625 C-28.39097656 3.04886719 -27.58273438 2.59382813 -26.75 2.125 C-25.54923828 1.44630859 -25.54923828 1.44630859 -24.32421875 0.75390625 C-17.8067168 -2.67932016 -6.81506221 -3.15369696 0 0 Z M-19.0625 1.5625 C-19.0625 2.2225 -19.0625 2.8825 -19.0625 3.5625 C-16.4225 3.5625 -13.7825 3.5625 -11.0625 3.5625 C-11.0625 2.9025 -11.0625 2.2425 -11.0625 1.5625 C-13.7025 1.5625 -16.3425 1.5625 -19.0625 1.5625 Z M-67.0625 20.5625 C-67.3925 21.2225 -67.7225 21.8825 -68.0625 22.5625 C-66.7425 21.9025 -65.4225 21.2425 -64.0625 20.5625 C-65.0525 20.5625 -66.0425 20.5625 -67.0625 20.5625 Z M41.9375 54.5625 C41.9375 56.2125 41.9375 57.8625 41.9375 59.5625 C42.5975 58.9025 43.2575 58.2425 43.9375 57.5625 C43.9375 56.5725 43.9375 55.5825 43.9375 54.5625 C43.2775 54.5625 42.6175 54.5625 41.9375 54.5625 Z M-105.0625 74.5625 C-104.0625 76.5625 -104.0625 76.5625 -104.0625 76.5625 Z M-106.0625 76.5625 C-105.0625 79.5625 -105.0625 79.5625 -105.0625 79.5625 Z M-107.0625 79.5625 C-106.0625 82.5625 -106.0625 82.5625 -106.0625 82.5625 Z " fill="#FBFBFB" transform="translate(147.0625,33.4375)"/>
<path d="M0 0 C21.12 0 42.24 0 64 0 C64 3.96 64 7.92 64 12 C63.01 12.33 62.02 12.66 61 13 C59.87635644 14.82444098 59.87635644 14.82444098 59 17 C58.48759766 17.98033203 58.48759766 17.98033203 57.96484375 18.98046875 C54.20408363 27.05966824 54.20316474 35.24359957 54 44 C54.66 44 55.32 44 56 44 C56.06058594 44.86882812 56.12117188 45.73765625 56.18359375 46.6328125 C56.26738281 47.78523438 56.35117188 48.93765625 56.4375 50.125 C56.51871094 51.26195312 56.59992188 52.39890625 56.68359375 53.5703125 C56.97883935 56.77062899 57.29716853 59.86285823 58 63 C58.66 63.33 59.32 63.66 60 64 C60.89453125 65.96875 60.89453125 65.96875 61.8125 68.5 C63.7514231 73.52817744 65.81512478 78.6170526 69 83 C70.485 83.495 70.485 83.495 72 84 C72 85.32 72 86.64 72 88 C64.98639276 92.32003784 59.07364898 92.67094099 50.9375 92.625 C49.79216797 92.65722656 48.64683594 92.68945312 47.46679688 92.72265625 C41.90654183 92.72908801 38.03320817 92.67062895 33.69140625 88.9609375 C32.7643196 88.00203699 31.85432506 87.02425999 31 86 C30.195625 86.804375 29.39125 87.60875 28.5625 88.4375 C27.375 89.625 26.1875 90.8125 25 92 C36.55 92.33 48.1 92.66 60 93 C60 93.66 60 94.32 60 95 C59.34 95 58.68 95 58 95 C57.71125 95.61875 57.4225 96.2375 57.125 96.875 C56 99 56 99 54 101 C51.177948 101.24050903 51.177948 101.24050903 47.53076172 101.22705078 C46.86722687 101.22734283 46.20369202 101.22763489 45.52005005 101.22793579 C43.32313028 101.22654056 41.12654814 101.21097067 38.9296875 101.1953125 C37.40797104 101.19158305 35.88625219 101.18873576 34.36453247 101.18673706 C30.35643908 101.17909523 26.3484903 101.15944213 22.3404541 101.1373291 C18.25172888 101.11688244 14.16298034 101.10773788 10.07421875 101.09765625 C2.04941276 101.07619667 -5.97527564 101.04205421 -14 101 C-14.13232422 93.24853516 -14.13232422 93.24853516 -12.94140625 91.01171875 C-12.48636719 90.57472656 -12.03132813 90.13773437 -11.5625 89.6875 C-8.83200976 87.20569102 -8.83200976 87.20569102 -8 84 C-7.2575 83.319375 -7.2575 83.319375 -6.5 82.625 C-4.56690264 80.53081119 -4.37547204 78.77849308 -4 76 C-2.515 75.505 -2.515 75.505 -1 75 C0.21489235 72.84998214 0.21489235 72.84998214 1.125 70.25 C1.45757812 69.38890625 1.79015625 68.5278125 2.1328125 67.640625 C2.96617277 65.10300543 3.53680766 62.62790754 4 60 C4.66 60 5.32 60 6 60 C9.5813233 37.89323465 9.5813233 37.89323465 4 17 C2.68 15.68 1.36 14.36 0 13 C0 8.71 0 4.42 0 0 Z M20 13 C15.12177412 21.1931593 20.0989827 34.14054203 22 43 C22.598125 42.195625 23.19625 41.39125 23.8125 40.5625 C26 38 26 38 29 37 C30.15521615 35.43622583 30.15521615 35.43622583 31.0625 33.5625 C32.26019398 31.25850235 33.13152817 29.86847183 35 28 C33.35 28 31.7 28 30 28 C29 25 29 25 28 22 C27.62875 20.9275 27.2575 19.855 26.875 18.75 C26 16 26 16 26 14 C26.66 13.67 27.32 13.34 28 13 C25.36 13 22.72 13 20 13 Z M35 13 C35.185625 14.0725 35.37125 15.145 35.5625 16.25 C35.951202 19.58173143 35.816644 20.937585 35 24 C35.31088368 25.67099977 35.64080332 27.33871537 36 29 C35.67 29.33 35.34 29.66 35 30 C34.95907063 32.33297433 34.95758277 34.66705225 35 37 C35.66 37 36.32 37 37 37 C37 35.68 37 34.36 37 33 C37.66 33 38.32 33 39 33 C39 35.97 39 38.94 39 42 C44.67441195 36.32558805 44.11957182 27.51385735 44.1875 19.8125 C44.48207972 16.09235896 44.48207972 16.09235896 43 13 C40.32941149 12.85884839 37.67567762 12.95752893 35 13 Z M46 13 C47 16 47 16 47 16 Z M13 36 C12.67 41.28 12.34 46.56 12 52 C13.32 51.34 14.64 50.68 16 50 C15.855625 48.989375 15.71125 47.97875 15.5625 46.9375 C15.04166667 43.29166667 14.52083333 39.64583333 14 36 C13.67 36 13.34 36 13 36 Z M49 36 C48.63495397 37.58086048 48.28339494 39.16483907 47.9375 40.75 C47.74027344 41.63171875 47.54304688 42.5134375 47.33984375 43.421875 C47.00174128 45.98679028 47.18841365 47.57091639 48 50 C48.33 49.67 48.66 49.34 49 49 C49.99 50.485 49.99 50.485 51 52 C50.67 46.72 50.34 41.44 50 36 C49.67 36 49.34 36 49 36 Z M27 38 C26.67 39.98 26.34 41.96 26 44 C26.66 44 27.32 44 28 44 C28 42.02 28 40.04 28 38 C27.67 38 27.34 38 27 38 Z M33 48 C32.67 48.66 32.34 49.32 32 50 C29.6859378 50.73075648 27.35171131 51.40138258 25 52 C25.66 53.32 26.32 54.64 27 56 C27.66 56 28.32 56 29 56 C29 56.66 29 57.32 29 58 C28.01 57.67 27.02 57.34 26 57 C26.65271556 60.51705958 27.51393024 63.89325077 28.5625 67.3125 C28.83191406 68.19550781 29.10132813 69.07851562 29.37890625 69.98828125 C29.58386719 70.65214844 29.78882813 71.31601563 30 72 C33.12268403 69.91821065 33.50418575 69.44328863 34.6875 66.125 C34.93886719 65.44695312 35.19023437 64.76890625 35.44921875 64.0703125 C36.17139678 61.71279667 36.17139678 61.71279667 36 58 C35.34 58 34.68 58 34 58 C34 57.34 34 56.68 34 56 C34.99 55.67 35.98 55.34 37 55 C37.92393164 53.13803054 37.92393164 53.13803054 38 51 C37.34 50.01 36.68 49.02 36 48 C35.01 48 34.02 48 33 48 Z M46 50 C45.79697266 51.25490234 45.79697266 51.25490234 45.58984375 52.53515625 C43.79546784 62.23767987 40.46708081 70.26165562 36 79 C37.28627711 80.17260611 38.57919783 81.3379283 39.875 82.5 C40.59429687 83.1496875 41.31359375 83.799375 42.0546875 84.46875 C43.84931098 86.20617272 43.84931098 86.20617272 46 86 C49.32739994 78.89146377 51.40665997 71.92986948 51 64 C50.34 64 49.68 64 49 64 C47.66416101 59.15758367 46.74671881 55.06562383 47 50 C46.67 50 46.34 50 46 50 Z M16 52 C17 55 17 55 17 55 Z M17 55 C16.67 57.97 16.34 60.94 16 64 C14.68 64 13.36 64 12 64 C12.39094133 71.09086685 12.8734523 78.50640094 16 85 C16.99 85.33 17.98 85.66 19 86 C23.39231845 83.39786925 26.67667408 79.99923125 28 75 C27.01 75.33 26.02 75.66 25 76 C24.5978125 74.7315625 24.5978125 74.7315625 24.1875 73.4375 C23.04518565 69.97208159 23.04518565 69.97208159 21.5 66.625 C19.89706378 62.75123747 18.9304531 59.07967898 18 55 C17.67 55 17.34 55 17 55 Z M5 64 C5 66.31 5 68.62 5 71 C5.33 71 5.66 71 6 71 C6 68.69 6 66.38 6 64 C5.67 64 5.34 64 5 64 Z M57 68 C58 72 58 72 58 72 Z M5 74 C3.36631327 75.87113112 3.36631327 75.87113112 1.8125 78.25 C1.26207031 79.03890625 0.71164063 79.8278125 0.14453125 80.640625 C-1.22982474 82.91507619 -1.22982474 82.91507619 -0.67578125 85.296875 C-0.45277344 85.85890625 -0.22976562 86.4209375 0 87 C1.32 86.67 2.64 86.34 4 86 C4 85.34 4 84.68 4 84 C5.32 84 6.64 84 8 84 C7.67 80.7 7.34 77.4 7 74 C6.34 74 5.68 74 5 74 Z M56 76 C56 78.64 56 81.28 56 84 C55.01 84.495 55.01 84.495 54 85 C58.95 85.99 58.95 85.99 64 87 C63.67 85.02 63.34 83.04 63 81 C62.01 80.67 61.02 80.34 60 80 C60 78.68 60 77.36 60 76 C58.68 76 57.36 76 56 76 Z " fill="#F9F9F9" transform="translate(96,84)"/>
<path d="M0 0 C7.10669437 0.16320175 13.41967954 1.2840572 19 6 C20.30368542 9.18986859 20.16597924 12.52430807 20.1875 15.9375 C20.20167969 16.95714844 20.21585938 17.97679687 20.23046875 19.02734375 C19.99444914 22.07159667 19.28252995 24.24737643 18 27 C17.34 27 16.68 27 16 27 C15.76796875 27.5878125 15.5359375 28.175625 15.296875 28.78125 C10.83053988 36.42244985 0.25355721 39.17751635 -7.73828125 41.2734375 C-18.02477091 43.56479927 -26.21303159 43.47435019 -36.375 40.75 C-37.16036133 40.54552246 -37.94572266 40.34104492 -38.75488281 40.13037109 C-43.33803007 38.82526911 -45.69250641 37.51682862 -49 34 C-52.0137392 32.67502081 -52.0137392 32.67502081 -55.25 31.75 C-56.32765625 31.41484375 -57.4053125 31.0796875 -58.515625 30.734375 C-59.33546875 30.49203125 -60.1553125 30.2496875 -61 30 C-59.64593672 32.70812656 -58.37499944 32.78139646 -55.5625 33.8125 C-51.93253857 35.19240023 -48.54357004 36.72301013 -45.125 38.5625 C-31.02154241 45.69123675 -16.73159021 45.48153652 -1.90380859 40.66796875 C3.53260101 38.76055446 8.75406772 36.3721916 14 34 C15.66261854 33.32330081 17.32781835 32.65271031 19 32 C19 31.34 19 30.68 19 30 C24.91575549 28.06832474 29.75594111 27.59449264 36 28.375 C40.11038622 30.6014592 41.80031079 33.74247919 44.19140625 37.6875 C46.34343866 40.43912675 47.62705839 41.16413983 51 42 C54.13388899 42.02920459 54.13388899 42.02920459 57.3125 41.625 C58.38113281 41.51414063 59.44976562 41.40328125 60.55078125 41.2890625 C61.35902344 41.19367188 62.16726562 41.09828125 63 41 C63 40.01 63 39.02 63 38 C64.32 38 65.64 38 67 38 C67 37.34 67 36.68 67 36 C67.66 36 68.32 36 69 36 C67.72472262 41.48369275 65.56426545 43.77816556 61 47 C52.50290524 51.16866016 42.15019327 49.52039795 33.40234375 46.8515625 C31 46 31 46 28.71875 44.9375 C16.50697082 40.72654166 2.98223569 44.51352334 -8.875 48 C-28.29427492 53.69850407 -44.86913886 53.70636864 -63.875 47 C-76.93198803 42.55737893 -87.35035741 41.41763519 -101 44 C-101 44.66 -101 45.32 -101 46 C-109.60200734 47.20806533 -116.69959397 47.66336914 -124.07421875 42.56640625 C-127.07854495 40.1227251 -128.75320342 38.74038975 -130 35 C-127.03 35.99 -124.06 36.98 -121 38 C-121 38.66 -121 39.32 -121 40 C-107.15520258 39.80955331 -107.15520258 39.80955331 -94 36 C-93.505 35.01 -93.505 35.01 -93 34 C-93.99 33.67 -94.98 33.34 -96 33 C-92.79282822 31.70543613 -89.58406097 30.41487291 -86.375 29.125 C-85.47136719 28.76019531 -84.56773438 28.39539063 -83.63671875 28.01953125 C-79.12815356 26.20952333 -74.636363 24.46330394 -70 23 C-71.918125 23.0309375 -71.918125 23.0309375 -73.875 23.0625 C-77.75 23.125 -77.75 23.125 -80 22 C-80 21.34 -80 20.68 -80 20 C-80.66 20 -81.32 20 -82 20 C-82 19.34 -82 18.68 -82 18 C-82.99 18 -83.98 18 -85 18 C-85 16.02 -85 14.04 -85 12 C-63.55 12 -42.1 12 -20 12 C-20 14.31 -20 16.62 -20 19 C-20.70640625 18.9278125 -21.4128125 18.855625 -22.140625 18.78125 C-32.43404693 17.85018671 -42.67294167 17.90733447 -53 18 C-53 18.66 -53 19.32 -53 20 C-51.9790625 19.83951172 -51.9790625 19.83951172 -50.9375 19.67578125 C-38.22025151 18.10303642 -26.79040005 21.29158866 -14.796875 25.21484375 C-11.33345066 26.1871179 -8.56107637 26.33126292 -5 26 C-6.16593462 24.6258337 -6.16593462 24.6258337 -9.375 24.625 C-13 24 -13 24 -14.875 22.875 C-17.21759545 18.97067425 -17 14.43471194 -17 10 C-15.26925528 9.00149343 -13.53727287 8.0050219 -11.796875 7.0234375 C-10.51505294 6.29335624 -9.25093013 5.53183133 -8 4.75 C-4.8370389 3.56388959 -2.3465069 3.65380963 1 4 C4.91415855 6.10762383 7.59353839 8.25661528 10 12 C10 10.02 10 8.04 10 6 C9.34 6 8.68 6 8 6 C8 5.34 8 4.68 8 4 C5.36 3.34 2.72 2.68 0 2 C0 1.34 0 0.68 0 0 Z M11 14 C12 18 12 18 12 18 Z M-65 20 C-65 20.66 -65 21.32 -65 22 C-62.36 21.67 -59.72 21.34 -57 21 C-57 20.34 -57 19.68 -57 19 C-60.11257569 19 -62.10765685 19.17361624 -65 20 Z M-92 34 C-90.7625 33.855625 -89.525 33.71125 -88.25 33.5625 C-87.55390625 33.48128906 -86.8578125 33.40007812 -86.140625 33.31640625 C-84.04219186 33.0523799 -84.04219186 33.0523799 -82.21875 32.5 C-78.92969322 31.75880411 -75.60636027 31.63101416 -72.25 31.4375 C-71.20392578 31.37272461 -71.20392578 31.37272461 -70.13671875 31.30664062 C-68.42468078 31.20110404 -66.71236439 31.1001009 -65 31 C-65 30.34 -65 29.68 -65 29 C-74.44720405 28.59447614 -83.88126252 28.58750835 -92 34 Z " fill="#FBFBFB" transform="translate(169,174)"/>
<path d="M0 0 C1.76966246 2.91473817 1.4227064 5.448108 1.0625 8.75 C-1.9375 10.75 -1.9375 10.75 -4.9375 10.75 C-4.9375 10.09 -4.9375 9.43 -4.9375 8.75 C-4.2775 8.42 -3.6175 8.09 -2.9375 7.75 C-3.4325 5.77 -3.4325 5.77 -3.9375 3.75 C-9.92294228 3.00181972 -13.32858333 5.29091701 -17.9375 8.75 C-24.44302147 14.32616126 -29.15270332 21.3614556 -30.9375 29.75 C-31.5975 29.75 -32.2575 29.75 -32.9375 29.75 C-33.11925781 30.3790625 -33.30101562 31.008125 -33.48828125 31.65625 C-35.35839061 38.02421212 -37.45509136 44.20510977 -40.015625 50.328125 C-40.38171875 51.20984375 -40.7478125 52.0915625 -41.125 53 C-41.46917969 53.80953125 -41.81335938 54.6190625 -42.16796875 55.453125 C-43.14928581 57.97840612 -43.14928581 57.97840612 -42.9375 61.75 C-44.2575 61.75 -45.5775 61.75 -46.9375 61.75 C-47.205625 62.306875 -47.47375 62.86375 -47.75 63.4375 C-49.04649496 65.96225334 -50.36226323 68.38714484 -51.9375 70.75 C-52.5975 70.75 -53.2575 70.75 -53.9375 70.75 C-54.185 71.3275 -54.4325 71.905 -54.6875 72.5 C-56.12049988 75.07939979 -57.72174676 76.81121592 -59.9375 78.75 C-60.5975 78.75 -61.2575 78.75 -61.9375 78.75 C-61.6075 77.1 -61.2775 75.45 -60.9375 73.75 C-61.5975 73.75 -62.2575 73.75 -62.9375 73.75 C-63.42578125 71.76432292 -63.9140625 69.77864583 -64.40234375 67.79296875 C-65.13263423 64.17898654 -65.13263423 64.17898654 -67.625 61.75 C-68.388125 61.42 -69.15125 61.09 -69.9375 60.75 C-70.88625 60.234375 -71.835 59.71875 -72.8125 59.1875 C-75.92217949 57.75704743 -78.55522053 57.15265232 -81.9375 56.75 C-81.6075 56.09 -81.2775 55.43 -80.9375 54.75 C-79.52094207 54.7227585 -78.10422955 54.70349533 -76.6875 54.6875 C-75.89859375 54.67589844 -75.1096875 54.66429687 -74.296875 54.65234375 C-72.03058998 54.74614694 -70.1086105 55.11758937 -67.9375 55.75 C-68.11667969 54.79480469 -68.29585937 53.83960938 -68.48046875 52.85546875 C-69.8232359 44.69307206 -70.74129655 37.47729298 -66.9375 29.75 C-63.58227009 25.80861546 -63.58227009 25.80861546 -60.1875 25.5 C-59.445 25.5825 -58.7025 25.665 -57.9375 25.75 C-58.2675 27.07 -58.5975 28.39 -58.9375 29.75 C-59.9275 29.75 -60.9175 29.75 -61.9375 29.75 C-63.55996255 34.82019548 -63.57011453 39.30025838 -61.4375 44.1875 C-60.9425 45.033125 -60.4475 45.87875 -59.9375 46.75 C-58.4525 46.255 -58.4525 46.255 -56.9375 45.75 C-56.96070313 44.73421875 -56.98390625 43.7184375 -57.0078125 42.671875 C-57.19710654 30.91269954 -56.95895972 20.18719685 -50.9375 9.75 C-50.2775 9.75 -49.6175 9.75 -48.9375 9.75 C-48.68871094 9.16605469 -48.43992188 8.58210938 -48.18359375 7.98046875 C-46.76254563 5.43683716 -45.20557085 3.95592302 -43 2.0625 C-42.31035156 1.46050781 -41.62070313 0.85851562 -40.91015625 0.23828125 C-38.9375 -1.25 -38.9375 -1.25 -35.9375 -2.25 C-37.30800815 0.70845268 -38.91572843 3.13501339 -40.9375 5.6875 C-44.46313415 10.33101815 -46.27709659 13.80705959 -45.9375 19.75 C-44.49840655 17.25557135 -43.92191118 15.59722957 -43.625 12.6875 C-42.9375 9.75 -42.9375 9.75 -40.9375 8.3125 C-39.9475 7.796875 -38.9575 7.28125 -37.9375 6.75 C-35.56629536 4.93166691 -33.24567705 3.05899078 -30.92578125 1.17578125 C-28.9375 -0.25 -28.9375 -0.25 -26.9375 -0.25 C-26.9375 -0.91 -26.9375 -1.57 -26.9375 -2.25 C-17.13548458 -5.15430086 -8.82684061 -5.69473588 0 0 Z M-47.9375 21.75 C-49.22362676 22.80978933 -49.22362676 22.80978933 -49.03515625 25.25390625 C-49.02355469 26.26324219 -49.01195312 27.27257812 -49 28.3125 C-48.99097656 29.32441406 -48.98195312 30.33632812 -48.97265625 31.37890625 C-48.96105469 32.16136719 -48.94945312 32.94382812 -48.9375 33.75 C-48.6075 33.75 -48.2775 33.75 -47.9375 33.75 C-47.6075 29.79 -47.2775 25.83 -46.9375 21.75 C-47.2675 21.75 -47.5975 21.75 -47.9375 21.75 Z " fill="#F9F9F9" transform="translate(254.9375,114.25)"/>
<path d="M0 0 C0 0.66 0 1.32 0 2 C0.66 2 1.32 2 2 2 C6.58792225 7.79372233 9 13.59177745 9 21 C-8.49 21 -25.98 21 -44 21 C-45.60725635 17.78548731 -45.05748185 14.56387464 -45 11 C-44.01 11 -43.02 11 -42 11 C-41.7525 9.7315625 -41.7525 9.7315625 -41.5 8.4375 C-39.69390745 4.2985379 -37.42303923 2.41873283 -33.97265625 -0.38671875 C-31.9966314 -1.92674341 -31.9966314 -1.92674341 -30.46484375 -3.66015625 C-22.86811602 -10.60862988 -7.26930837 -4.27328106 0 0 Z M-7 5 C-7.33 6.32 -7.66 7.64 -8 9 C-5.525 9.495 -5.525 9.495 -3 10 C-2.67 9.01 -2.34 8.02 -2 7 C-2.33 6.34 -2.66 5.68 -3 5 C-4.32 5 -5.64 5 -7 5 Z " fill="#FBFBFB" transform="translate(145,61)"/>
<path d="M0 0 C21.45 0 42.9 0 65 0 C65 2.31 65 4.62 65 7 C63.94039062 6.89171875 63.94039062 6.89171875 62.859375 6.78125 C52.56595307 5.85018671 42.32705833 5.90733447 32 6 C32 6.66 32 7.32 32 8 C30.68 8.33 29.36 8.66 28 9 C28 8.34 28 7.68 28 7 C25.36 7.33 22.72 7.66 20 8 C20 8.66 20 9.32 20 10 C17.87562788 10.19448477 15.75046809 10.38038289 13.625 10.5625 C12.44164063 10.66691406 11.25828125 10.77132812 10.0390625 10.87890625 C7 11 7 11 5 10 C5 9.34 5 8.68 5 8 C4.34 8 3.68 8 3 8 C3 7.34 3 6.68 3 6 C2.01 6 1.02 6 0 6 C0 4.02 0 2.04 0 0 Z " fill="#F6F6F6" transform="translate(84,186)"/>
<path d="M0 0 C1.051875 0.268125 2.10375 0.53625 3.1875 0.8125 C4.375 3.5625 4.375 3.5625 5.1875 6.8125 C4.08984375 8.9375 4.08984375 8.9375 2.1875 10.8125 C-4.54369168 12.95516162 -11.80588771 13.04605374 -18.8125 12.8125 C-18.8125 12.1525 -18.8125 11.4925 -18.8125 10.8125 C-16.1725 10.4825 -13.5325 10.1525 -10.8125 9.8125 C-10.585625 9.090625 -10.35875 8.36875 -10.125 7.625 C-7.77372642 2.58655661 -5.80096731 -0.28529347 0 0 Z " fill="#F8F8F8" transform="translate(213.8125,185.1875)"/>
<path d="M0 0 C-0.56589844 0.25394531 -1.13179687 0.50789063 -1.71484375 0.76953125 C-2.81505859 1.28580078 -2.81505859 1.28580078 -3.9375 1.8125 C-4.66839844 2.14894531 -5.39929688 2.48539062 -6.15234375 2.83203125 C-8.33029489 3.93600134 -8.33029489 3.93600134 -9 7 C-9.82371094 6.91878906 -10.64742187 6.83757812 -11.49609375 6.75390625 C-16.05724827 7.0742549 -19.10081239 8.77355299 -23.0625 10.9375 C-31.43691093 15.43962064 -31.43691093 15.43962064 -36 16 C-35.42944336 13.18920898 -35.42944336 13.18920898 -34 10 C-31.60363208 8.64796964 -29.69906431 7.80333558 -27.12890625 6.97265625 C-26.45077377 6.73461777 -25.7726413 6.49657928 -25.07395935 6.25132751 C-23.64287498 5.75403447 -22.20781726 5.26804961 -20.76928711 4.79272461 C-18.56522104 4.06340039 -16.37552971 3.29975992 -14.18554688 2.52929688 C-12.79237107 2.05003079 -11.39851101 1.57274821 -10.00390625 1.09765625 C-9.01941246 0.75723045 -9.01941246 0.75723045 -8.01502991 0.40992737 C-3.35027231 -1.11675744 -3.35027231 -1.11675744 0 0 Z " fill="#EEEEEE" transform="translate(233,85)"/>
<path d="M0 0 C0.33 0 0.66 0 1 0 C1.99 8.91 2.98 17.82 4 27 C0 29 0 29 -3 29 C-3.02685412 26.68756208 -3.04632841 24.3750373 -3.0625 22.0625 C-3.07410156 20.77472656 -3.08570312 19.48695312 -3.09765625 18.16015625 C-3 15 -3 15 -2 14 C-1.79068103 11.83703727 -1.63202931 9.6690529 -1.5 7.5 C-1.11111111 1.11111111 -1.11111111 1.11111111 0 0 Z " fill="#F5F5F5" transform="translate(127,1)"/>
<path d="M0 0 C2.97 0.495 2.97 0.495 6 1 C5.42754306 9.34325541 4.79850617 17.67514847 4 26 C3.34 25.67 2.68 25.34 2 25 C1.62109375 22.234375 1.62109375 22.234375 1.4375 18.75 C1.21421584 14.72177142 0.81197774 10.94674426 0 7 C-0.03824623 4.66698014 -0.04574284 2.33288492 0 0 Z " fill="#F3F3F3" transform="translate(124,229)"/>
<path d="M0 0 C0.66 1.65 1.32 3.3 2 5 C-0.31 5.33 -2.62 5.66 -5 6 C-5 5.34 -5 4.68 -5 4 C-5.85271484 4.01740234 -5.85271484 4.01740234 -6.72265625 4.03515625 C-11.60670484 4.09223194 -16.18503965 3.81956772 -21 3 C-21 2.34 -21 1.68 -21 1 C-18.81274749 0.83011631 -16.62518299 0.66424731 -14.4375 0.5 C-12.61025391 0.36078125 -12.61025391 0.36078125 -10.74609375 0.21875 C-7.15365784 0.00897272 -3.59752457 -0.03704015 0 0 Z " fill="#EEEEEE" transform="translate(21,126)"/>
<path d="M0 0 C0.99 0.33 1.98 0.66 3 1 C3 1.66 3 2.32 3 3 C2.34 3 1.68 3 1 3 C1 3.66 1 4.32 1 5 C0.360625 5.45375 -0.27875 5.9075 -0.9375 6.375 C-3.2676157 8.21084873 -3.60401298 9.12909413 -4 12 C-5.32 12 -6.64 12 -8 12 C-8 13.32 -8 14.64 -8 16 C-9.98 16.33 -11.96 16.66 -14 17 C-12.69386058 13.08158173 -11.16870152 10.67359191 -8 8 C-7.34 8 -6.68 8 -6 8 C-5.7525 7.4225 -5.505 6.845 -5.25 6.25 C-3.83316683 3.6997003 -2.12372463 1.98214299 0 0 Z " fill="#CDCDCD" transform="translate(60,192)"/>
<path d="M0 0 C0.33 0.99 0.66 1.98 1 3 C-2.12305373 4.17192435 -5.24874739 5.33663876 -8.375 6.5 C-9.26445313 6.83386719 -10.15390625 7.16773438 -11.0703125 7.51171875 C-12.34648437 7.98544922 -12.34648437 7.98544922 -13.6484375 8.46875 C-14.43395996 8.76201172 -15.21948242 9.05527344 -16.02880859 9.35742188 C-18 10 -18 10 -20 10 C-20 9.34 -20 8.68 -20 8 C-19.36191406 7.73445312 -18.72382813 7.46890625 -18.06640625 7.1953125 C-17.24011719 6.84210938 -16.41382813 6.48890625 -15.5625 6.125 C-14.73878906 5.77695313 -13.91507813 5.42890625 -13.06640625 5.0703125 C-10.84253285 4.1755063 -10.84253285 4.1755063 -10 2 C-6.54956883 0.84985628 -3.64717645 0 0 0 Z " fill="#E9E9E9" transform="translate(42,162)"/>
<path d="M0 0 C1.0828125 0.9590625 1.0828125 0.9590625 2.1875 1.9375 C4.79222588 4.17497039 4.79222588 4.17497039 7.6875 4.4375 C8.450625 4.623125 9.21375 4.80875 10 5 C11.0625 7.3125 11.0625 7.3125 12 10 C13.31387169 11.35251497 14.64426252 12.68945377 16 14 C16 14.66 16 15.32 16 16 C12.71245489 15.42110619 11.06327505 14.45171589 8.75 12.0625 C8.22921875 11.53785156 7.7084375 11.01320313 7.171875 10.47265625 C6 9 6 9 6 7 C5.01 6.67 4.02 6.34 3 6 C3 5.34 3 4.68 3 4 C2.34 4 1.68 4 1 4 C0.67 2.68 0.34 1.36 0 0 Z " fill="#DCDCDC" transform="translate(46,47)"/>
<path d="M0 0 C2.68428929 0.0382629 5.32352593 0.14464553 8 0.3125 C9.12535156 0.36567383 9.12535156 0.36567383 10.2734375 0.41992188 C12.18856178 0.53572813 14.09645139 0.7599692 16 1 C16.33 1.66 16.66 2.32 17 3 C12.94691667 4.10789535 8.92888626 4.33731267 4.75 4.5625 C3.63238281 4.62727539 3.63238281 4.62727539 2.4921875 4.69335938 C0.661651 4.79896725 -1.16915176 4.89994201 -3 5 C-1.125 1.125 -1.125 1.125 0 0 Z " fill="#FFFFFF" transform="translate(237,126)"/>
<path d="M0 0 C1.125 3.75 1.125 3.75 0 6 C-0.2275015 7.87056791 -0.40962811 9.74685958 -0.5625 11.625 C-0.68818359 13.12933594 -0.68818359 13.12933594 -0.81640625 14.6640625 C-0.87699219 15.43492188 -0.93757812 16.20578125 -1 17 C-2.98 17 -4.96 17 -7 17 C-6.34 14.36 -5.68 11.72 -5 9 C-4.34 9 -3.68 9 -3 9 C-2.814375 8.1646875 -2.814375 8.1646875 -2.625 7.3125 C-1.94023145 4.77885636 -1.00866237 2.42078968 0 0 Z " fill="#B8B8B8" transform="translate(169,23)"/>
<path d="M0 0 C3.41899351 0.64220808 6.72911203 1.44315088 10.0625 2.4375 C10.89910156 2.68371094 11.73570313 2.92992188 12.59765625 3.18359375 C14.86043418 3.95257032 16.89430807 4.8766401 19 6 C18.67 6.99 18.34 7.98 18 9 C15.69 8.67 13.38 8.34 11 8 C11 7.34 11 6.68 11 6 C10.113125 5.731875 9.22625 5.46375 8.3125 5.1875 C5.22203785 4.07959847 2.71209548 2.83465282 0 1 C0 0.67 0 0.34 0 0 Z " fill="#EBEBEB" transform="translate(21,84)"/>
<path d="M0 0 C0.66 0 1.32 0 2 0 C2.433125 0.9590625 2.433125 0.9590625 2.875 1.9375 C3.82823451 4.15206079 3.82823451 4.15206079 6 5 C6.59355614 7.64860427 6.74209269 10.29197322 7 13 C7.99 13 8.98 13 10 13 C10 14.32 10 15.64 10 17 C8.68 17 7.36 17 6 17 C5.34 14.36 4.68 11.72 4 9 C3.34 9 2.68 9 2 9 C1.34 6.03 0.68 3.06 0 0 Z " fill="#CDCDCD" transform="translate(82,23)"/>
<path d="M0 0 C0 3.58371915 -0.74478337 4.27587204 -2.9375 7 C-4.90175833 9.45184019 -5.99335342 10.98006027 -7 14 C-8.65 13.67 -10.3 13.34 -12 13 C-11.67 12.01 -11.34 11.02 -11 10 C-10.34 10 -9.68 10 -9 10 C-9 9.34 -9 8.68 -9 8 C-7.28515625 6.30859375 -7.28515625 6.30859375 -5.0625 4.4375 C-4.33160156 3.81746094 -3.60070312 3.19742188 -2.84765625 2.55859375 C-1.93306641 1.78708984 -1.93306641 1.78708984 -1 1 C-0.67 0.67 -0.34 0.34 0 0 Z " fill="#E2E2E2" transform="translate(207,46)"/>
<path d="M0 0 C0.99 0 1.98 0 3 0 C2.71872579 1.48117801 2.42466268 2.95993249 2.125 4.4375 C1.96257812 5.26121094 1.80015625 6.08492187 1.6328125 6.93359375 C1.42398438 7.61550781 1.21515625 8.29742187 1 9 C0.01 9.495 0.01 9.495 -1 10 C-2.13350534 12.01669827 -2.13350534 12.01669827 -3 14 C-4.15941038 10.52176885 -3.70820884 8.54104422 -3 5 C-2.34 5 -1.68 5 -1 5 C-0.67 3.35 -0.34 1.7 0 0 Z " fill="#DCDCDC" transform="translate(87,219)"/>
<path d="M0 0 C5.01508715 1.54058233 9.6147081 3.02931839 14 6 C13.67 6.66 13.34 7.32 13 8 C8.38 6.02 3.76 4.04 -1 2 C-0.67 1.34 -0.34 0.68 0 0 Z " fill="#FFFFFF" transform="translate(218,165)"/>
<path d="M0 0 C0.66 0 1.32 0 2 0 C4.42857143 6.28571429 4.42857143 6.28571429 3 10 C0.96564469 6.27034861 0 4.33094958 0 0 Z " fill="#FFFFFF" transform="translate(166,223)"/>
<path d="M0 0 C0.99 0.495 0.99 0.495 2 1 C1.01 1.495 1.01 1.495 0 2 C0 1.34 0 0.68 0 0 Z " fill="#FFFFFF" transform="translate(180,44)"/>
<path d="" fill="#FFFFFF" transform="translate(0,0)"/>
</svg>
