<?xml version="1.0" encoding="UTF-8"?>
<svg version="1.1" xmlns="http://www.w3.org/2000/svg" width="256" height="256">
<path d="M0 0 C0.33 0.66 0.66 1.32 1 2 C1.99 2 2.98 2 4 2 C4 3.32 4 4.64 4 6 C3.01 6 2.02 6 1 6 C1.30591728 9.62558736 1.62084718 13.25033575 1.9375 16.875 C2.02451172 17.90753906 2.11152344 18.94007812 2.20117188 20.00390625 C2.28818359 20.99003906 2.37519531 21.97617187 2.46484375 22.9921875 C2.543396 23.90339355 2.62194824 24.81459961 2.70288086 25.75341797 C2.87995419 28.031644 2.87995419 28.031644 4 30 C4.08543895 32.10528933 4.10714725 34.21331157 4.09765625 36.3203125 C4.09443359 37.57714844 4.09121094 38.83398438 4.08789062 40.12890625 C4.07951172 41.44761719 4.07113281 42.76632813 4.0625 44.125 C4.05748489 45.46484211 4.05292201 46.804686 4.04882812 48.14453125 C4.03701086 51.42973206 4.02053617 54.71484397 4 58 C5.32 58 6.64 58 8 58 C8 59.32 8 60.64 8 62 C7.01 62 6.02 62 5 62 C5 63.65 5 65.3 5 67 C5.99 66.67 6.98 66.34 8 66 C10.06145107 65.931009 12.12501401 65.91532273 14.1875 65.9375 C15.27417969 65.94652344 16.36085937 65.95554687 17.48046875 65.96484375 C18.72763672 65.98224609 18.72763672 65.98224609 20 66 C20 64.68 20 63.36 20 62 C21.32 62 22.64 62 24 62 C24 59.36 24 56.72 24 54 C24.99 54 25.98 54 27 54 C27.33 48.72 27.66 43.44 28 38 C29.32 38 30.64 38 32 38 C32 36.68 32 35.36 32 34 C33.32 34 34.64 34 36 34 C36 32.68 36 31.36 36 30 C37.32 30 38.64 30 40 30 C40 28.68 40 27.36 40 26 C41.32 26 42.64 26 44 26 C44.48979592 33.34693878 44.48979592 33.34693878 42.125 36.5 C40 38 40 38 38 38 C37.05533244 41.24078125 36.80901172 44.27225655 36.68359375 47.640625 C36.64169922 48.71054687 36.59980469 49.78046875 36.55664062 50.8828125 C36.51732422 51.99398437 36.47800781 53.10515625 36.4375 54.25 C36.37272461 55.93996094 36.37272461 55.93996094 36.30664062 57.6640625 C36.20067985 60.44258954 36.09860858 63.22120391 36 66 C35.01 66 34.02 66 33 66 C31.92474806 68.65228812 30.90543849 71.28368454 30 74 C30.928125 73.896875 31.85625 73.79375 32.8125 73.6875 C33.864375 73.790625 34.91625 73.89375 36 74 C37.875 76.5 37.875 76.5 39 79 C41.475 78.505 41.475 78.505 44 78 C44 76.68 44 75.36 44 74 C45.32 74 46.64 74 48 74 C48 72.68 48 71.36 48 70 C49.32 70 50.64 70 52 70 C52 68.68 52 67.36 52 66 C55.465 65.505 55.465 65.505 59 65 C59.33 64.01 59.66 63.02 60 62 C62.97 61.505 62.97 61.505 66 61 C64.34460213 66.38252121 60.73505225 69.72407642 56.90039062 73.62695312 C54.26173316 76.38507045 52.76615262 78.27253837 52 82 C51.01 82.33 50.02 82.66 49 83 C48.67 83.99 48.34 84.98 48 86 C53.94 85.505 53.94 85.505 60 85 C60 84.01 60 83.02 60 82 C63.465 81.505 63.465 81.505 67 81 C67.33 80.01 67.66 79.02 68 78 C71.465 77.505 71.465 77.505 75 77 C75.33 76.01 75.66 75.02 76 74 C78.64 74 81.28 74 84 74 C84 72.68 84 71.36 84 70 C87.63 69.67 91.26 69.34 95 69 C95 71 95 71 93.9375 72.4375 C92 74 92 74 89.125 75.16796875 C83.48543626 77.52744501 78.31606711 80.77252513 73.0625 83.875 C72.01642578 84.48730469 70.97035156 85.09960938 69.89257812 85.73046875 C66.92101846 87.4749293 63.95803936 89.2327253 61 91 C60.17483887 91.49145508 59.34967773 91.98291016 58.49951172 92.48925781 C54.63089183 94.62092321 54.63089183 94.62092321 52 98 C53.32 98 54.64 98 56 98 C56 98.66 56 99.32 56 100 C56.5775 99.67 57.155 99.34 57.75 99 C60 98 60 98 64 98 C64 96.68 64 95.36 64 94 C67.465 93.505 67.465 93.505 71 93 C71.33 92.01 71.66 91.02 72 90 C73.32 90 74.64 90 76 90 C76 88.68 76 87.36 76 86 C84.25 86 92.5 86 101 86 C100.67 86.99 100.34 87.98 100 89 C97.33034076 90.13460518 94.75343918 90.88601105 91.8828125 91.3203125 C84.46740354 92.52627866 80.40642664 96.33601427 75.3984375 101.72265625 C74 103 74 103 72 103 C72 103.99 72 104.98 72 106 C70.865625 106.28875 69.73125 106.5775 68.5625 106.875 C67.386875 107.24625 66.21125 107.6175 65 108 C64.67 108.66 64.34 109.32 64 110 C62.33524314 110.34274406 60.66804677 110.67364302 59 111 C57.42412109 111.70769531 57.42412109 111.70769531 55.81640625 112.4296875 C51.97766244 114.11266617 48.17353684 114.94920781 44.0625 115.6875 C43.03672852 115.88182617 43.03672852 115.88182617 41.99023438 116.08007812 C40.32816202 116.39389598 38.66425873 116.69799166 37 117 C39.22843488 117.19600577 41.45779893 117.38146569 43.6875 117.5625 C44.92886719 117.66691406 46.17023438 117.77132812 47.44921875 117.87890625 C50.55835533 117.98493841 53.00810972 117.77228525 56 117 C56 116.01 56 115.02 56 114 C59.465 113.01 59.465 113.01 63 112 C61.58707905 116.8274799 59.57025846 120.7162359 57 125 C57.32943604 124.51104248 57.65887207 124.02208496 57.99829102 123.51831055 C61.07832239 121.18208477 64.31965493 121.63143537 68.02734375 121.70703125 C68.81266983 121.71127609 69.59799591 121.71552094 70.40711975 121.71989441 C72.91759579 121.73667819 75.42726756 121.77428775 77.9375 121.8125 C79.62433722 121.82755093 81.31118719 121.84123863 82.99804688 121.85351562 C86.09513614 121.87801776 89.19192003 121.91020194 92.28881836 121.95239258 C94.85904976 121.98536377 97.42955713 122 100 122 C109.33333333 122 118.66666667 122 128 122 C127.125 126.875 127.125 126.875 126 128 C122.48198354 128.525922 118.92038272 128.72727825 115.375 129 C113.70074951 129.13027588 113.70074951 129.13027588 111.99267578 129.26318359 C95.02561033 130.47333292 78.00253205 130.67761501 61 131 C61.01546875 132.62615234 61.01546875 132.62615234 61.03125 134.28515625 C61.00286278 137.65968714 60.64461187 140.69636417 60 144 C60.61875 144.2475 61.2375 144.495 61.875 144.75 C64 146 64 146 66 150 C69.3 150 72.6 150 76 150 C76.33 150.99 76.66 151.98 77 153 C77.75925781 153.01417969 78.51851562 153.02835938 79.30078125 153.04296875 C82.27325969 153.18561687 85.08263268 153.40612285 88 154 C89.875 156.25 89.875 156.25 91 159 C91.886875 159.886875 92.77375 160.77375 93.6875 161.6875 C96 164 96 164 96 166 C97.32 166 98.64 166 100 166 C100 167.32 100 168.64 100 170 C96.26893102 169.65292382 94.36665363 169.30405423 91.4375 166.875 C89.13751776 164.66769119 89.13751776 164.66769119 86.1875 165.25 C85.465625 165.4975 84.74375 165.745 84 166 C84 164.68 84 163.36 84 162 C82.97261719 162.04640625 81.94523438 162.0928125 80.88671875 162.140625 C70.31260839 162.47058635 62.50478726 160.83959351 53 156 C52.62875 156.7734375 52.62875 156.7734375 52.25 157.5625 C51.52215482 158.9817981 50.76562498 160.38831876 49.94140625 161.75390625 C48.90572701 163.47048188 47.94852904 165.23377351 47 167 C47.33 167.66 47.66 168.32 48 169 C50.02463255 169.65213292 50.02463255 169.65213292 52 170 C52 171.32 52 172.64 52 174 C53.32 174 54.64 174 56 174 C56 175.32 56 176.64 56 178 C57.32 178 58.64 178 60 178 C60 179.32 60 180.64 60 182 C61.32 182 62.64 182 64 182 C64 183.32 64 184.64 64 186 C65.32 186 66.64 186 68 186 C68 187.32 68 188.64 68 190 C67.34 190 66.68 190 66 190 C66 190.66 66 191.32 66 192 C65.0925 191.67 64.185 191.34 63.25 191 C59.92954193 189.80394277 59.92954193 189.80394277 56 190 C56 188.68 56 187.36 56 186 C54.68 186 53.36 186 52 186 C52 184.68 52 183.36 52 182 C50.68 182 49.36 182 48 182 C48 180.35 48 178.7 48 177 C47.13375 176.566875 47.13375 176.566875 46.25 176.125 C44.16666667 175.08333333 42.08333333 174.04166667 40 173 C33.37874895 176.41605024 33.37874895 176.41605024 29.1953125 182.1875 C28.92884945 190.71431766 34.03360337 197.32347394 38.828125 203.921875 C40 206 40 206 40 210 C41.32 210 42.64 210 44 210 C44 211.32 44 212.64 44 214 C43.01 214 42.02 214 41 214 C41.02320313 214.68707031 41.04640625 215.37414062 41.0703125 216.08203125 C41.08835938 216.98308594 41.10640625 217.88414062 41.125 218.8125 C41.14820313 219.70582031 41.17140625 220.59914062 41.1953125 221.51953125 C41 224 41 224 39 227 C38.01 226.67 37.02 226.34 36 226 C36 222.04 36 218.08 36 214 C34.68 214 33.36 214 32 214 C32.26296875 213.28328125 32.5259375 212.5665625 32.796875 211.828125 C33.32333715 208.82867967 33.32333715 208.82867967 31.015625 206.359375 C30.10296875 205.49828125 29.1903125 204.6371875 28.25 203.75 C26.89648438 202.44289062 26.89648438 202.44289062 25.515625 201.109375 C23.11522345 198.83438833 23.11522345 198.83438833 20 198 C19.67 195.69 19.34 193.38 19 191 C18.01 190.67 17.02 190.34 16 190 C16 188.68 16 187.36 16 186 C16.66 186 17.32 186 18 186 C18 185.34 18 184.68 18 184 C11.565 184.99 11.565 184.99 5 186 C4.98018066 187.07556152 4.96036133 188.15112305 4.93994141 189.25927734 C4.54130295 210.23481171 4.00037977 231.10520344 2 252 C1.34 252 0.68 252 0 252 C0 251.34 0 250.68 0 250 C-1.32 250 -2.64 250 -4 250 C-4.33 228.88 -4.66 207.76 -5 186 C-10.445 185.01 -10.445 185.01 -16 184 C-16 184.66 -16 185.32 -16 186 C-17.32 186 -18.64 186 -20 186 C-20 187.32 -20 188.64 -20 190 C-20.99 190.33 -21.98 190.66 -23 191 C-25.35171756 195.49439356 -26.15621003 200.66312334 -26.9375 205.625 C-27.78908189 210.6088481 -29.01273107 213.90317404 -32 218 C-33.64142963 219.0409066 -35.30712215 220.04504326 -37 221 C-37.515625 221.886875 -38.03125 222.77375 -38.5625 223.6875 C-39.036875 224.450625 -39.51125 225.21375 -40 226 C-41.32 226 -42.64 226 -44 226 C-44 223.36 -44 220.72 -44 218 C-42.68 218 -41.36 218 -40 218 C-40 216.68 -40 215.36 -40 214 C-40 212.68 -40 211.36 -40 210 C-38.68 210 -37.36 210 -36 210 C-36 202.08 -36 194.16 -36 186 C-35.01 185.67 -34.02 185.34 -33 185 C-32.9175 183.88625 -32.835 182.7725 -32.75 181.625 C-32.5025 180.42875 -32.255 179.2325 -32 178 C-30.1875 176.9375 -30.1875 176.9375 -28 176 C-25.75592746 172.96798075 -25.75592746 172.96798075 -24 170 C-24.94875 169.855625 -25.8975 169.71125 -26.875 169.5625 C-30 169 -30 169 -32 168 C-31.319375 168.5775 -30.63875 169.155 -29.9375 169.75 C-28.9784375 170.86375 -28.9784375 170.86375 -28 172 C-28.25 174.25 -28.25 174.25 -29 176 C-31.91517292 174.92598892 -33.77810176 174.22189824 -36 172 C-36.625 169.375 -36.625 169.375 -37 167 C-37.33 168.32 -37.66 169.64 -38 171 C-38.66 171 -39.32 171 -40 171 C-40 171.99 -40 172.98 -40 174 C-41.30904297 174.5878125 -41.30904297 174.5878125 -42.64453125 175.1875 C-46.19447821 177.10504993 -48.74927501 179.24618243 -51.6875 182 C-52.61949219 182.86625 -53.55148438 183.7325 -54.51171875 184.625 C-55.91969799 185.96887972 -57.31163375 187.33161976 -58.64453125 188.75 C-60 190 -60 190 -63 191 C-63.33 191.99 -63.66 192.98 -64 194 C-65.32 194 -66.64 194 -68 194 C-68 192.68 -68 191.36 -68 190 C-67.01 189.67 -66.02 189.34 -65 189 C-64.67 188.01 -64.34 187.02 -64 186 C-63.01 185.67 -62.02 185.34 -61 185 C-60.67 182.69 -60.34 180.38 -60 178 C-58.68 178 -57.36 178 -56 178 C-56 176.68 -56 175.36 -56 174 C-54.68 174 -53.36 174 -52 174 C-52 172.68 -52 171.36 -52 170 C-50.68 170 -49.36 170 -48 170 C-48 168.68 -48 167.36 -48 166 C-46.68 166 -45.36 166 -44 166 C-45.94726453 162.49492385 -47.78872686 159.45567946 -51 157 C-53.70705512 157.14025199 -53.70705512 157.14025199 -56 158 C-56 157.01 -56 156.02 -56 155 C-63.9850496 156.21368662 -63.9850496 156.21368662 -71 160 C-71.33 160.66 -71.66 161.32 -72 162 C-80.75117138 167.65624491 -89.92526493 167.1363498 -100 167 C-100 165.35 -100 163.7 -100 162 C-96.04 161.67 -92.08 161.34 -88 161 C-88 160.01 -88 159.02 -88 158 C-85.36 158 -82.72 158 -80 158 C-80 156.68 -80 155.36 -80 154 C-79.01 153.67 -78.02 153.34 -77 153 C-76.67 152.01 -76.34 151.02 -76 150 C-74.68 150 -73.36 150 -72 150 C-72 148.68 -72 147.36 -72 146 C-69.69 145.67 -67.38 145.34 -65 145 C-64.67 144.01 -64.34 143.02 -64 142 C-61.36 142 -58.72 142 -56 142 C-56.33 138.37 -56.66 134.74 -57 131 C-57.89267578 130.98018066 -58.78535156 130.96036133 -59.70507812 130.93994141 C-81.1790535 130.44392436 -102.5726683 129.50871957 -124 128 C-124 128.66 -124 129.32 -124 130 C-125.32 130 -126.64 130 -128 130 C-128 127.36 -128 124.72 -128 122 C-104.57 122 -81.14 122 -57 122 C-57 122.66 -57 123.32 -57 124 C-57.99 124.495 -57.99 124.495 -59 125 C-57.515 125.495 -57.515 125.495 -56 126 C-56 120.72 -56 115.44 -56 110 C-57.32 110 -58.64 110 -60 110 C-60 108.68 -60 107.36 -60 106 C-61.32 106 -62.64 106 -64 106 C-64.22429687 105.37609375 -64.44859375 104.7521875 -64.6796875 104.109375 C-66.45273948 101.27668841 -67.93696227 101.06744557 -71.125 100.25 C-72.49011719 99.88648437 -72.49011719 99.88648437 -73.8828125 99.515625 C-74.58148438 99.34546875 -75.28015625 99.1753125 -76 99 C-76 99.99 -76 100.98 -76 102 C-77.32 102 -78.64 102 -80 102 C-80 100.68 -80 99.36 -80 98 C-82.64 98 -85.28 98 -88 98 C-88.020625 97.4225 -88.04125 96.845 -88.0625 96.25 C-89.5766255 92.61609879 -92.55956175 91.75149584 -96 90 C-96 88.68 -96 87.36 -96 86 C-97.32 86 -98.64 86 -100 86 C-100 84.68 -100 83.36 -100 82 C-97.36 82 -94.72 82 -92 82 C-91.67 82.99 -91.34 83.98 -91 85 C-88.69 85.33 -86.38 85.66 -84 86 C-83.67 87.32 -83.34 88.64 -83 90 C-75.41 90 -67.82 90 -60 90 C-59.67 90.99 -59.34 91.98 -59 93 C-55.7 93 -52.4 93 -49 93 C-48.67 89.37 -48.34 85.74 -48 82 C-49.32 82 -50.64 82 -52 82 C-52 80.68 -52 79.36 -52 78 C-53.32 78 -54.64 78 -56 78 C-56 76.68 -56 75.36 -56 74 C-57.32 74 -58.64 74 -60 74 C-60 72.68 -60 71.36 -60 70 C-61.32 70 -62.64 70 -64 70 C-63.79375 69.2575 -63.5875 68.515 -63.375 67.75 C-62.94588306 64.60314245 -63.55366459 63.71187889 -65 61 C-64.67 60.01 -64.34 59.02 -64 58 C-62.68 58 -61.36 58 -60 58 C-60 59.32 -60 60.64 -60 62 C-58.68 62 -57.36 62 -56 62 C-56 63.32 -56 64.64 -56 66 C-54.68 66 -53.36 66 -52 66 C-52 67.32 -52 68.64 -52 70 C-50.68 70 -49.36 70 -48 70 C-48 71.32 -48 72.64 -48 74 C-46.68 74 -45.36 74 -44 74 C-42.25 76.5 -42.25 76.5 -41 79 C-35.13126428 77.99393102 -30.27917159 75.70097151 -25 73 C-24.34 74.32 -23.68 75.64 -23 77 C-22.34 77 -21.68 77 -21 77 C-20.505 75.515 -20.505 75.515 -20 74 C-18.68 74 -17.36 74 -16 74 C-16.33 73.34 -16.66 72.68 -17 72 C-18.98 72.33 -20.96 72.66 -23 73 C-25 70 -25 70 -25 66 C-25.66 66 -26.32 66 -27 66 C-27.495 67.98 -27.495 67.98 -28 70 C-29.32 70 -30.64 70 -32 70 C-32 66.04 -32 62.08 -32 58 C-33.32 58 -34.64 58 -36 58 C-35.731875 57.319375 -35.46375 56.63875 -35.1875 55.9375 C-34.64869678 52.73014661 -34.64869678 52.73014661 -37.46875 49.96875 C-40.90180817 45.37867099 -40.57169454 41.10128795 -40.3125 35.5625 C-40.28994141 34.64017578 -40.26738281 33.71785156 -40.24414062 32.76757812 C-40.18565394 30.50999198 -40.10377373 28.25588129 -40 26 C-39.01 25.505 -39.01 25.505 -38 25 C-37.34 25.33 -36.68 25.66 -36 26 C-36 27.32 -36 28.64 -36 30 C-34.68 30 -33.36 30 -32 30 C-32 31.32 -32 32.64 -32 34 C-32.99 34 -33.98 34 -35 34 C-33.45087165 41.46532327 -31.38700251 45.6953353 -25 50 C-24.67 48.68 -24.34 47.36 -24 46 C-22.68 46 -21.36 46 -20 46 C-19.67 46.99 -19.34 47.98 -19 49 C-17.515 49.495 -17.515 49.495 -16 50 C-16 51.32 -16 52.64 -16 54 C-16.66 54 -17.32 54 -18 54 C-17.85892253 55.45880109 -17.71197585 56.91703551 -17.5625 58.375 C-17.48128906 59.18710937 -17.40007812 59.99921875 -17.31640625 60.8359375 C-17.10909886 63.04272805 -17.10909886 63.04272805 -16 65 C-10.06 65.99 -10.06 65.99 -4 67 C-4 45.55 -4 24.1 -4 2 C-2.68 1.34 -1.36 0.68 0 0 Z M-36 44 C-35 46 -35 46 -35 46 Z M31 46 C30.01 51.28 29.02 56.56 28 62 C29.32 62 30.64 62 32 62 C32 56.72 32 51.44 32 46 C31.67 46 31.34 46 31 46 Z M-29 54 C-28 56 -28 56 -28 56 Z M-27 58 C-26.67 59.32 -26.34 60.64 -26 62 C-25.34 62 -24.68 62 -24 62 C-24 60.68 -24 59.36 -24 58 C-24.99 58 -25.98 58 -27 58 Z M-1 58 C0 62 0 62 0 62 Z M27 62 C26.34 63.65 25.68 65.3 25 67 C25.99 66.34 26.98 65.68 28 65 C27.67 64.01 27.34 63.02 27 62 Z M27 68 C27 71 27 71 27 71 Z M-7 71 C-7 71.33 -7 71.66 -7 72 C-4.69 72 -2.38 72 0 72 C0 71.67 0 71.34 0 71 C-2.31 71 -4.62 71 -7 71 Z M4 71 C4 71.66 4 72.32 4 73 C5.2375 73.350625 6.475 73.70125 7.75 74.0625 C8.44609375 74.25972656 9.1421875 74.45695312 9.859375 74.66015625 C12.21958796 75.03486159 13.74419051 74.72653324 16 74 C16 74.99 16 75.98 16 77 C18.70879335 78.35439668 21.00933268 78.06501451 24 78 C24 79.32 24 80.64 24 82 C25.74074534 83.78994069 25.74074534 83.78994069 28 85.25 C28.7425 85.77078125 29.485 86.2915625 30.25 86.828125 C30.8275 87.21484375 31.405 87.6015625 32 88 C32 87.34 32 86.68 32 86 C33.32 86 34.64 86 36 86 C36 84.68 36 83.36 36 82 C33.36 82 30.72 82 28 82 C28 80.35 28 78.7 28 77 C26.10667466 76.18167278 24.21022267 75.37057732 22.3125 74.5625 C21.25675781 74.11003906 20.20101562 73.65757813 19.11328125 73.19140625 C13.93928322 71.21139446 9.52946618 70.89157909 4 71 Z M-16 75 C-16 75.66 -16 76.32 -16 77 C-9.30386804 77.797837 -2.74233419 78.12910853 4 78 C-1.79068029 74.13954647 -9.2384375 74.85913411 -16 75 Z M-25 78 C-26.65 79.32 -28.3 80.64 -30 82 C-28.02 82 -26.04 82 -24 82 C-24.33 80.68 -24.66 79.36 -25 78 Z M12 80 C12 80.66 12 81.32 12 82 C13.32 82.33 14.64 82.66 16 83 C16.33 82.34 16.66 81.68 17 81 C15.35 80.67 13.7 80.34 12 80 Z M-16 81 C-12 82 -12 82 -12 82 Z M-22 82 C-22.33895656 83.72807318 -22.67091525 85.45751974 -23 87.1875 C-23.185625 88.15042969 -23.37125 89.11335938 -23.5625 90.10546875 C-23.96877612 92.7934206 -24.07933572 95.28771019 -24 98 C-17.12631267 98.74464946 -10.83079148 99.18225237 -4 98 C-4 96.35 -4 94.7 -4 93 C-9.01624348 89.99025391 -12.30937216 89.62062481 -18 90 C-18.99 90.495 -18.99 90.495 -20 91 C-20 88.03 -20 85.06 -20 82 C-20.66 82 -21.32 82 -22 82 Z M2 82 C2.66 82.66 3.32 83.32 4 84 C4 83.34 4 82.68 4 82 C3.34 82 2.68 82 2 82 Z M-39.125 87.5 C-40.49011719 88.75296875 -40.49011719 88.75296875 -41.8828125 90.03125 C-42.93082031 91.00578125 -42.93082031 91.00578125 -44 92 C-43.67 92.66 -43.34 93.32 -43 94 C-41.16086305 92.5489926 -39.3288247 91.08898341 -37.5 89.625 C-36.4790625 88.81289062 -35.458125 88.00078125 -34.40625 87.1640625 C-33.21515625 86.09285156 -33.21515625 86.09285156 -32 85 C-32 84.34 -32 83.68 -32 83 C-35.26696117 83 -36.7920404 85.34649883 -39.125 87.5 Z M20 83 C20 83.99 20 84.98 20 86 C21.32 85.67 22.64 85.34 24 85 C22.68 84.34 21.36 83.68 20 83 Z M36 86 C36 87.32 36 88.64 36 90 C35.01 90.495 35.01 90.495 34 91 C34.99 92.485 34.99 92.485 36 94 C37.32 94 38.64 94 40 94 C40 92.68 40 91.36 40 90 C41.32 89.67 42.64 89.34 44 89 C40.93882432 86.37613513 40.26826873 86 36 86 Z M12 88 C12 88.33 12 88.66 12 89 C14.64 88.67 17.28 88.34 20 88 C20 87.34 20 86.68 20 86 C17.11604263 86 14.70522185 87.05905327 12 88 Z M47 88 C46.34 88.66 45.68 89.32 45 90 C45.99 90 46.98 90 48 90 C47.67 89.34 47.34 88.68 47 88 Z M79 91 C75.535 93.97 75.535 93.97 72 97 C75.90838866 97 77.11594107 95.49432124 80 93 C79.67 92.34 79.34 91.68 79 91 Z M19.01953125 93.77734375 C18.29121094 94.16019531 17.56289062 94.54304688 16.8125 94.9375 C11.1923872 97.59195067 6.01814791 98.0060493 0 96 C0 96.66 0 97.32 0 98 C-1.32 98 -2.64 98 -4 98 C-4 99.32 -4 100.64 -4 102 C-0.45049966 103.16306443 2.55823948 102.92365049 6.25 102.5625 C7.86648437 102.40974609 7.86648437 102.40974609 9.515625 102.25390625 C10.33546875 102.17011719 11.1553125 102.08632812 12 102 C12 104.64 12 107.28 12 110 C12.99 110 13.98 110 15 110 C15.33 111.32 15.66 112.64 16 114 C12 115.33333333 8 116.66666667 4 118 C3.87625 119.134375 3.7525 120.26875 3.625 121.4375 C3.41875 122.613125 3.2125 123.78875 3 125 C2.01 125.495 2.01 125.495 1 126 C4.465 125.505 4.465 125.505 8 125 C8 124.01 8 123.02 8 122 C9.17369141 122.01740234 9.17369141 122.01740234 10.37109375 122.03515625 C11.38300781 122.04417969 12.39492187 122.05320312 13.4375 122.0625 C14.44683594 122.07410156 15.45617187 122.08570312 16.49609375 122.09765625 C18.94021067 122.28612676 18.94021067 122.28612676 20 121 C20.04092937 118.66702567 20.04241723 116.33294775 20 114 C21.32 114 22.64 114 24 114 C24.03738281 113.09636719 24.07476562 112.19273438 24.11328125 111.26171875 C24.17902344 110.08222656 24.24476563 108.90273437 24.3125 107.6875 C24.37050781 106.51574219 24.42851562 105.34398438 24.48828125 104.13671875 C25.01604768 100.9016314 25.42380724 99.91315119 28 98 C26.700625 98.433125 26.700625 98.433125 25.375 98.875 C22.25 99.91666667 19.125 100.95833333 16 102 C16 100.68 16 99.36 16 98 C18.66666667 96.66666667 21.33333333 95.33333333 24 94 C21.15421082 92.69530162 21.15421082 92.69530162 19.01953125 93.77734375 Z M-76 94 C-76 94.66 -76 95.32 -76 96 C-74.68 96.33 -73.36 96.66 -72 97 C-72 96.01 -72 95.02 -72 94 C-73.32 94 -74.64 94 -76 94 Z M-46 94 C-48.96235695 97.63323689 -48.96235695 97.63323689 -50 102 C-49.34 102 -48.68 102 -48 102 C-45.03764305 98.36676311 -45.03764305 98.36676311 -44 94 C-44.66 94 -45.32 94 -46 94 Z M-31.1875 96 C-39.74110341 104.82553878 -45.28837153 115.05168683 -45.16796875 127.59765625 C-44.82873877 132.44943383 -43.89152372 137.22398009 -43 142 C-42.01 142 -41.02 142 -40 142 C-40 140.68 -40 139.36 -40 138 C-38.68 138 -37.36 138 -36 138 C-36 131.4 -36 124.8 -36 118 C-34.68 118 -33.36 118 -32 118 C-32 112.72 -32 107.44 -32 102 C-30.68 102 -29.36 102 -28 102 C-28 99.36 -28 96.72 -28 94 C-29.37099127 93.88753847 -29.37099127 93.88753847 -31.1875 96 Z M-64 95 C-64 95.99 -64 96.98 -64 98 C-62.68 98 -61.36 98 -60 98 C-60 97.34 -60 96.68 -60 96 C-61.32 95.67 -62.64 95.34 -64 95 Z M41.75 101.4375 C40.67234375 102.07558594 39.5946875 102.71367188 38.484375 103.37109375 C37.66453125 103.90863281 36.8446875 104.44617188 36 105 C36 105.33 36 105.66 36 106 C38.31 106 40.62 106 43 106 C43.33 104.68 43.66 103.36 44 102 C46.64 102 49.28 102 52 102 C52 100.68 52 99.36 52 98 C47.36566865 98 45.67107332 99.08390889 41.75 101.4375 Z M68 99 C68 99.99 68 100.98 68 102 C69.32 101.34 70.64 100.68 72 100 C72 99.34 72 98.68 72 98 C69.9254644 97.8509288 69.9254644 97.8509288 68 99 Z M-56 99 C-55.67 99.99 -55.34 100.98 -55 102 C-55 101.01 -55 100.02 -55 99 C-55.33 99 -55.66 99 -56 99 Z M62 102 C61.67 103.32 61.34 104.64 61 106 C61.99 105.67 62.98 105.34 64 105 C64 104.01 64 103.02 64 102 C63.34 102 62.68 102 62 102 Z M-27 105 C-26.01 105.33 -25.02 105.66 -24 106 C-24 107.32 -24 108.64 -24 110 C-24.99 110 -25.98 110 -27 110 C-27.98248524 114.0527516 -28.08159574 117.83861737 -28 122 C-26.68 121.67 -25.36 121.34 -24 121 C-24 118.69 -24 116.38 -24 114 C-22.68 114 -21.36 114 -20 114 C-20 111.36 -20 108.72 -20 106 C-22.31 105.67 -24.62 105.34 -27 105 Z M35 106 C32.8480563 109.22791555 32.79913557 110.28400809 33 114 C33.66 114 34.32 114 35 114 C36.35439668 111.29120665 36.06501451 108.99066732 36 106 C35.67 106 35.34 106 35 106 Z M31 118 C29.96076196 119.60019039 28.96863662 121.23111189 28 122.875 C27.46375 123.77992187 26.9275 124.68484375 26.375 125.6171875 C25.54450096 127.05640459 24.74311163 128.51377674 24 130 C25.32 130 26.64 130 28 130 C28 128.68 28 127.36 28 126 C29.32 125.67 30.64 125.34 32 125 C32 122.69 32 120.38 32 118 C31.67 118 31.34 118 31 118 Z M-29 122 C-29.66 125.96 -30.32 129.92 -31 134 C-30.01 133.67 -29.02 133.34 -28 133 C-28 129.37 -28 125.74 -28 122 C-28.33 122 -28.66 122 -29 122 Z M-21 123 C-21.99 123.99 -22.98 124.98 -24 126 C-22.68 125.67 -21.36 125.34 -20 125 C-20.33 124.34 -20.66 123.68 -21 123 Z M62 126 C62 126.66 62 127.32 62 128 C62.66 128 63.32 128 64 128 C64 127.34 64 126.68 64 126 C63.34 126 62.68 126 62 126 Z M-20 129 C-16.94736336 129.98120464 -15.05263664 129.98120464 -12 129 C-12 128.34 -12 127.68 -12 127 C-15.20395416 127 -17.09399739 127.74335022 -20 129 Z M52 128 C50.34450469 128.38499891 48.6777567 128.72793135 47 129 C47.33 130.65 47.66 132.3 48 134 C47.360625 134.28875 46.72125 134.5775 46.0625 134.875 C43.84793921 135.82823451 43.84793921 135.82823451 43 138 C44.65 138 46.3 138 48 138 C48 139.32 48 140.64 48 142 C47.01 142 46.02 142 45 142 C44.74605469 142.69867188 44.49210938 143.39734375 44.23046875 144.1171875 C43.71419922 145.48230469 43.71419922 145.48230469 43.1875 146.875 C42.85105469 147.77992188 42.51460937 148.68484375 42.16796875 149.6171875 C41 152 41 152 38 154 C38.66 156.64 39.32 159.28 40 162 C41.98 161.505 41.98 161.505 44 161 C44 160.01 44 159.02 44 158 C44.99 158 45.98 158 47 158 C48.35439668 155.29120665 48.06501451 152.99066732 48 150 C48.639375 149.896875 49.27875 149.79375 49.9375 149.6875 C50.618125 149.460625 51.29875 149.23375 52 149 C53.04449911 145.86650268 52.93423645 145.01031744 52 142 C52.99 142 53.98 142 55 142 C56.14077657 138.57767028 56.09815117 135.91326783 56.0625 132.3125 C56.05347656 131.13300781 56.04445312 129.95351562 56.03515625 128.73828125 C56.02355469 127.83464844 56.01195312 126.93101562 56 126 C54.53774984 125.90754997 54.53774984 125.90754997 52 128 Z M36 128 C36 128.66 36 129.32 36 130 C39.57644848 131.2380014 42.33694766 130.74926071 46 130 C46 129.67 46 129.34 46 129 C42.7 128.67 39.4 128.34 36 128 Z M-21 130 C-22.485 131.98 -22.485 131.98 -24 134 C-22.68 133.34 -21.36 132.68 -20 132 C-20.33 131.34 -20.66 130.68 -21 130 Z M23 130 C22.33613281 130.33773437 21.67226562 130.67546875 20.98828125 131.0234375 C20.10527344 131.46945313 19.22226563 131.91546875 18.3125 132.375 C17.44238281 132.81585938 16.57226562 133.25671875 15.67578125 133.7109375 C13.15227201 134.92664268 10.61262468 135.99260958 8 137 C8 137.33 8 137.66 8 138 C11.63 138 15.26 138 19 138 C19.33 136.68 19.66 135.36 20 134 C21.32 134 22.64 134 24 134 C23.67 132.68 23.34 131.36 23 130 Z M-18 135 C-18.99 136.485 -18.99 136.485 -20 138 C-19.01 137.67 -18.02 137.34 -17 137 C-17.33 136.34 -17.66 135.68 -18 135 Z M32 136 C32 136.66 32 137.32 32 138 C32.99 137.67 33.98 137.34 35 137 C34.01 136.67 33.02 136.34 32 136 Z M-29 138 C-29.12375 139.134375 -29.2475 140.26875 -29.375 141.4375 C-29.58125 142.613125 -29.7875 143.78875 -30 145 C-30.99 145.495 -30.99 145.495 -32 146 C-31.979375 146.94875 -31.95875 147.8975 -31.9375 148.875 C-32 152 -32 152 -33 154 C-31.35 154 -29.7 154 -28 154 C-28 148.72 -28 143.44 -28 138 C-28.33 138 -28.66 138 -29 138 Z M30 138 C30.33 138.99 30.66 139.98 31 141 C27.37 140.67 23.74 140.34 20 140 C20 141.65 20 143.3 20 145 C21.32 145.33 22.64 145.66 24 146 C24 144.68 24 143.36 24 142 C26.64 142 29.28 142 32 142 C32 140.68 32 139.36 32 138 C31.34 138 30.68 138 30 138 Z M39 142 C38.34 143.32 37.68 144.64 37 146 C37.99 146 38.98 146 40 146 C39.67 144.68 39.34 143.36 39 142 Z M-22 146 C-22 149.3 -22 152.6 -22 156 C-21.34 156 -20.68 156 -20 156 C-20 152.7 -20 149.4 -20 146 C-20.66 146 -21.32 146 -22 146 Z M32 148 C32 148.66 32 149.32 32 150 C33.32 150 34.64 150 36 150 C35.67 149.34 35.34 148.68 35 148 C34.01 148 33.02 148 32 148 Z M-56 150 C-56 150.66 -56 151.32 -56 152 C-54.68 152 -53.36 152 -52 152 C-52 151.34 -52 150.68 -52 150 C-53.32 150 -54.64 150 -56 150 Z M-69 151 C-69.99 151.99 -70.98 152.98 -72 154 C-70.68 154 -69.36 154 -68 154 C-68.33 153.01 -68.66 152.02 -69 151 Z M-40 151 C-40.33 152.65 -40.66 154.3 -41 156 C-42.65 155.01 -44.3 154.02 -46 153 C-46.66 154.32 -47.32 155.64 -48 157 C-46.68 157.99 -45.36 158.98 -44 160 C-44 159.34 -44 158.68 -44 158 C-42.68 158 -41.36 158 -40 158 C-39.67 156.02 -39.34 154.04 -39 152 C-36.525 152.99 -36.525 152.99 -34 154 C-34.33 153.01 -34.66 152.02 -35 151 C-36.65 151 -38.3 151 -40 151 Z M-16 153 C-15.34 154.32 -14.68 155.64 -14 157 C-13.01 157 -12.02 157 -11 157 C-12.65 155.68 -14.3 154.36 -16 153 Z M64 153 C64.33 154.65 64.66 156.3 65 158 C65.99 158 66.98 158 68 158 C67.73323796 156.01508358 67.73323796 156.01508358 67 154 C66.01 153.67 65.02 153.34 64 153 Z M-73 154 C-74.485 155.98 -74.485 155.98 -76 158 C-74.68 157.67 -73.36 157.34 -72 157 C-72.33 156.01 -72.66 155.02 -73 154 Z M18 154 C15.18236593 156.81763407 14.05391197 158.28566635 13.75 162.3125 C13.8325 163.199375 13.915 164.08625 14 165 C14.99 165.495 14.99 165.495 16 166 C16.103125 164.7625 16.20625 163.525 16.3125 162.25 C16.73801682 158.7207134 17.48112592 156.62839034 20 154 C19.34 154 18.68 154 18 154 Z M72 156 C72 156.66 72 157.32 72 158 C75.3 158 78.6 158 82 158 C82 157.67 82 157.34 82 157 C78.7 156.67 75.4 156.34 72 156 Z M-77 158 C-77.99 159.485 -77.99 159.485 -79 161 C-78.01 160.67 -77.02 160.34 -76 160 C-76.33 159.34 -76.66 158.68 -77 158 Z M-16 160 C-16 160.66 -16 161.32 -16 162 C-15.34 161.67 -14.68 161.34 -14 161 C-14.66 160.67 -15.32 160.34 -16 160 Z M-11 162 C-11 163.32 -11 164.64 -11 166 C-10.01 165.67 -9.02 165.34 -8 165 C-8.33 164.01 -8.66 163.02 -9 162 C-9.66 162 -10.32 162 -11 162 Z M38 162 C37.67 163.32 37.34 164.64 37 166 C37.99 166 38.98 166 40 166 C40 164.68 40 163.36 40 162 C39.34 162 38.68 162 38 162 Z M4 164 C4 164.66 4 165.32 4 166 C5.98 166 7.96 166 10 166 C7.1575146 164.42726432 7.1575146 164.42726432 4 164 Z M-17 165 C-18.32 166.32 -19.64 167.64 -21 169 C-19.35 168.34 -17.7 167.68 -16 167 C-16.33 166.34 -16.66 165.68 -17 165 Z M-1 166 C-0.34 167.98 0.32 169.96 1 172 C-1.97 172 -4.94 172 -8 172 C-8 172.66 -8 173.32 -8 174 C-4.04 174 -0.08 174 4 174 C4 171.36 4 168.72 4 166 C2.35 166 0.7 166 -1 166 Z M-20 172 C-20 172.66 -20 173.32 -20 174 C-17.36 174 -14.72 174 -12 174 C-12 172.68 -12 171.36 -12 170 C-15.20395416 170 -17.09399739 170.74335022 -20 172 Z M8 172 C8 172.66 8 173.32 8 174 C10.64 174.33 13.28 174.66 16 175 C14.68 175.99 13.36 176.98 12 178 C13.62490954 178.02698189 15.24994633 178.04638757 16.875 178.0625 C17.77992188 178.07410156 18.68484375 178.08570313 19.6171875 178.09765625 C22.0168585 178.16249257 22.0168585 178.16249257 24 177 C24 176.01 24 175.02 24 174 C25.98 174 27.96 174 30 174 C30.33 173.34 30.66 172.68 31 172 C23.41 172 15.82 172 8 172 Z M-22 174 C-23.7143618 175.95927063 -25.38405168 177.95880212 -27 180 C-26.67 180.66 -26.34 181.32 -26 182 C-24.02 179.36 -22.04 176.72 -20 174 C-20.66 174 -21.32 174 -22 174 Z M4 174 C8 175 8 175 8 175 Z M0.3125 180 C-0.49574219 180.185625 -1.30398437 180.37125 -2.13671875 180.5625 C-2.75160156 180.706875 -3.36648437 180.85125 -4 181 C-4 181.33 -4 181.66 -4 182 C-0.37 182 3.26 182 7 182 C7.33 181.01 7.66 180.02 8 179 C5.20215289 179 3.0209322 179.37195775 0.3125 180 Z M-23 182 C-23.33 183.32 -23.66 184.64 -24 186 C-22.68 184.68 -21.36 183.36 -20 182 C-20.99 182 -21.98 182 -23 182 Z M-30 186 C-31.3271261 189.9813783 -31.06915913 193.85045227 -31 198 C-30.34 198 -29.68 198 -29 198 C-27.73762269 195.47524538 -27.90143596 193.68799534 -27.9375 190.875 C-27.94652344 189.96492187 -27.95554687 189.05484375 -27.96484375 188.1171875 C-27.97644531 187.41851562 -27.98804687 186.71984375 -28 186 C-28.66 186 -29.32 186 -30 186 Z M-1 186 C0 190 0 190 0 190 Z M21 186 C21.66 188.31 22.32 190.62 23 193 C24.04449911 189.86650268 23.93423645 189.01031744 23 186 C22.34 186 21.68 186 21 186 Z M25 190 C25.33 190.99 25.66 191.98 26 193 C25.01 193.495 25.01 193.495 24 194 C25.32 193.67 26.64 193.34 28 193 C27.67 192.01 27.34 191.02 27 190 C26.34 190 25.68 190 25 190 Z " fill="#FEFEFE" transform="translate(128,2)"/>
</svg>
