<?xml version="1.0" encoding="UTF-8"?>
<svg version="1.1" xmlns="http://www.w3.org/2000/svg" width="128" height="128">
<path d="M0 0 C1.71653011 3.43306023 2.29167224 4.94053515 2.6328125 8.546875 C2.71660156 9.39121094 2.80039063 10.23554688 2.88671875 11.10546875 C2.96535156 11.97816406 3.04398438 12.85085937 3.125 13.75 C3.21136719 14.63816406 3.29773438 15.52632812 3.38671875 16.44140625 C3.59823066 18.62702936 3.80240227 20.81308238 4 23 C6.64 23 9.28 23 12 23 C12 21.68 12 20.36 12 19 C14.64 19 17.28 19 20 19 C20 20.32 20 21.64 20 23 C19.01 23 18.02 23 17 23 C17.495 26.96 17.495 26.96 18 31 C20.72529889 31 23.40967841 30.7310912 26.125 30.5 C27.22070312 30.4071875 28.31640625 30.314375 29.4453125 30.21875 C30.28835937 30.1465625 31.13140625 30.074375 32 30 C32 29.01 32 28.02 32 27 C34.31 26.67 36.62 26.34 39 26 C39.495 24.515 39.495 24.515 40 23 C41.32 23 42.64 23 44 23 C44 24.32 44 25.64 44 27 C42.515 27.495 42.515 27.495 41 28 C40.505 29.485 40.505 29.485 40 31 C39.175 31.2475 38.35 31.495 37.5 31.75 C32.56083389 33.5139879 29.00114715 36.67460215 25 40 C25.495 42.475 25.495 42.475 26 45 C29.61973402 46.31626692 32.09567131 47 36 47 C36 48.32 36 49.64 36 51 C33.98177083 51.45572917 31.96354167 51.91145833 29.9453125 52.3671875 C27.79280036 52.90474428 27.79280036 52.90474428 26 55 C25.3574765 57.06874034 25.3574765 57.06874034 25 59 C25.99 59 26.98 59 28 59 C28.020625 59.5775 28.04125 60.155 28.0625 60.75 C29.35380544 63.84913305 31.26146967 64.65722802 34.11328125 66.265625 C36.28383029 67.24181704 36.28383029 67.24181704 40 67 C40 65.68 40 64.36 40 63 C41.32 63 42.64 63 44 63 C44 61.68 44 60.36 44 59 C45.32 59 46.64 59 48 59 C48 57.68 48 56.36 48 55 C48.99 54.67 49.98 54.34 51 54 C51.33 53.01 51.66 52.02 52 51 C54.5625 49.8125 54.5625 49.8125 57 49 C56.52556152 53.2699463 56.02190962 55.06596054 53 58 C52.12716273 59.38214756 51.30301378 60.79577996 50.51953125 62.23046875 C50.07802734 63.03291016 49.63652344 63.83535156 49.18164062 64.66210938 C48.50391602 65.91217773 48.50391602 65.91217773 47.8125 67.1875 C47.34908203 68.03248047 46.88566406 68.87746094 46.40820312 69.74804688 C45.26749219 71.82955034 44.13162891 73.91354928 43 76 C43.66 76.33 44.32 76.66 45 77 C43.80100302 80.0831351 42.52299523 83.06279492 41 86 C41.33 85.525625 41.66 85.05125 42 84.5625 C45.09813267 82.14208385 48.12026792 82.31801083 52 82 C52 81.01 52 80.02 52 79 C53.32 79 54.64 79 56 79 C56 80.32 56 81.64 56 83 C54.68 83.33 53.36 83.66 52 84 C52 84.99 52 85.98 52 87 C50.37275025 88.06293745 48.69545337 89.04962342 47 90 C45.00806741 91.5672427 43.02999467 93.15218591 41.0625 94.75 C28.05498991 104.95178568 12.82036949 111.62703847 -4 110 C-13.32203672 108.77689589 -20.86777232 105.95500677 -29.0390625 101.5234375 C-31.79986996 99.93339809 -31.79986996 99.93339809 -34.2734375 99.5390625 C-34.84320313 99.36117187 -35.41296875 99.18328125 -36 99 C-36.68170862 97.67429431 -37.34564554 96.3394187 -38 95 C-39.71488966 93.45632316 -41.49385517 91.98247032 -43.3125 90.5625 C-47.12391619 87.57264419 -50.72120017 84.57741548 -54 81 C-54 80.34 -54 79.68 -54 79 C-54.99 78.67 -55.98 78.34 -57 78 C-57 77.34 -57 76.68 -57 76 C-54.0280615 77.12451727 -51.66559313 78.22293791 -49 80 C-46.35367713 79.6878236 -46.35367713 79.6878236 -44 79 C-44 80.32 -44 81.64 -44 83 C-42.68 83 -41.36 83 -40 83 C-39.77963136 79.14354879 -40.39644899 76.50776784 -42 73 C-40.02 73.33 -38.04 73.66 -36 74 C-37.91436085 70.31129858 -39.83190342 66.62426006 -41.75 62.9375 C-42.28882813 61.89916016 -42.82765625 60.86082031 -43.3828125 59.79101562 C-45.65418164 55.4283249 -47.91419928 51.09260527 -50.453125 46.87890625 C-50.96359375 45.92886719 -51.4740625 44.97882812 -52 44 C-51.67 43.34 -51.34 42.68 -51 42 C-50.54109375 42.56589844 -50.0821875 43.13179687 -49.609375 43.71484375 C-48.68898438 44.81505859 -48.68898438 44.81505859 -47.75 45.9375 C-47.14671875 46.66839844 -46.5434375 47.39929687 -45.921875 48.15234375 C-43.89258866 50.10326334 -42.745593 50.61731779 -40 51 C-39.773125 52.03125 -39.54625 53.0625 -39.3125 54.125 C-38.13528144 58.34408258 -35.95161029 60.81536784 -33 64 C-30.525 63.505 -30.525 63.505 -28 63 C-28 61.68 -28 60.36 -28 59 C-26.68 59 -25.36 59 -24 59 C-25.11854586 55.27385847 -25.11854586 55.27385847 -28 53 C-28 53.66 -28 54.32 -28 55 C-29.32 55 -30.64 55 -32 55 C-32 53.68 -32 52.36 -32 51 C-32.66 50.67 -33.32 50.34 -34 50 C-33.34 50 -32.68 50 -32 50 C-32 49.01 -32 48.02 -32 47 C-28.535 46.505 -28.535 46.505 -25 46 C-24.67 44.02 -24.34 42.04 -24 40 C-26.68841859 37.74754119 -28.64641875 36.11786042 -32 35 C-32.598125 34.236875 -33.19625 33.47375 -33.8125 32.6875 C-36.22886881 29.71881832 -38.79003437 28.0427054 -42 26 C-42 25.67 -42 25.34 -42 25 C-39.1875 24.8125 -39.1875 24.8125 -36 25 C-35 26 -34 27 -33 28 C-30.34533951 27.76956136 -30.34533951 27.76956136 -28 27 C-28 28.32 -28 29.64 -28 31 C-24.04 31 -20.08 31 -16 31 C-16.495 25.555 -16.495 25.555 -17 20 C-16.34 20.495 -15.68 20.99 -15 21.5 C-11.03366759 23.48316621 -8.39696738 23.22357461 -4 23 C-4 22.01 -4 21.02 -4 20 C-3.34 20 -2.68 20 -2 20 C-1.34 13.4 -0.68 6.8 0 0 Z M-4 23 C-3 25 -3 25 -3 25 Z M5 35 C3.515 38.96 3.515 38.96 2 43 C4.475 43.495 4.475 43.495 7 44 C7.99 42.35 8.98 40.7 10 39 C9.34 39 8.68 39 8 39 C8 38.01 8 37.02 8 36 C7.01 35.67 6.02 35.34 5 35 Z M-5 35 C-6.98 35.99 -6.98 35.99 -9 37 C-7.8141763 40.37503669 -6.72426311 42.64722731 -4 45 C-3.79375 43.72125 -3.5875 42.4425 -3.375 41.125 C-3.25898437 40.40570313 -3.14296875 39.68640625 -3.0234375 38.9453125 C-3.01570313 38.30335937 -3.00796875 37.66140625 -3 37 C-3.66 36.34 -4.32 35.68 -5 35 Z M-15 47 C-15 48.32 -15 49.64 -15 51 C-12.03 51.33 -9.06 51.66 -6 52 C-6 50.35 -6 48.7 -6 47 C-8.97 47 -11.94 47 -15 47 Z M8 47 C8 48.65 8 50.3 8 52 C9.32 52.33 10.64 52.66 12 53 C12 52.34 12 51.68 12 51 C13.32 51 14.64 51 16 51 C16 49.68 16 48.36 16 47 C13.36 47 10.72 47 8 47 Z M-5 54 C-5.89270954 55.09466678 -6.73993574 56.22669092 -7.5625 57.375 C-8.01753906 58.00148438 -8.47257812 58.62796875 -8.94140625 59.2734375 C-10.17423258 60.94663098 -10.17423258 60.94663098 -10 63 C-8.02 63 -6.04 63 -4 63 C-4 60.03 -4 57.06 -4 54 C-4.33 54 -4.66 54 -5 54 Z M2 56 C3.05875074 59.40312738 4.00902154 62.01353231 6 65 C6.66 65 7.32 65 8 65 C9.19988045 59.71800407 9.19988045 59.71800407 7 55 C4.78918149 54.89459074 4.78918149 54.89459074 2 56 Z M-28 68 C-28 68.99 -28 69.98 -28 71 C-26.68 71 -25.36 71 -24 71 C-24.185625 71.78375 -24.37125 72.5675 -24.5625 73.375 C-25.25962266 75.97089775 -25.25962266 75.97089775 -24 78 C-24.99 78 -25.98 78 -27 78 C-26.36020151 80.03241727 -26.36020151 80.03241727 -25 82 C-22.44480079 82.81171228 -22.44480079 82.81171228 -20 83 C-20 84.32 -20 85.64 -20 87 C-18.68 87 -17.36 87 -16 87 C-16 88.32 -16 89.64 -16 91 C-14.68 91 -13.36 91 -12 91 C-12 89.68 -12 88.36 -12 87 C-10.68 87 -9.36 87 -8 87 C-8 88.32 -8 89.64 -8 91 C-6.68 91 -5.36 91 -4 91 C-4 85.72 -4 80.44 -4 75 C-9.47825081 74.5527864 -9.47825081 74.5527864 -12 76 C-12 76.99 -12 77.98 -12 79 C-12.99 79 -13.98 79 -15 79 C-15.33 76.36 -15.66 73.72 -16 71 C-17.32 71 -18.64 71 -20 71 C-19.67 69.35 -19.34 67.7 -19 66 C-22.79557881 66 -24.62902617 66.50178941 -28 68 Z M18.23828125 67.2109375 C16.60204377 69.57496515 16.79780611 70.81003475 17.1875 73.625 C17.28417969 74.42164062 17.38085938 75.21828125 17.48046875 76.0390625 C17.65191406 76.68617187 17.82335937 77.33328125 18 78 C18.66 78.33 19.32 78.66 20 79 C20 77.68 20 76.36 20 75 C21.98 74.67 23.96 74.34 26 74 C24.02 77.96 22.04 81.92 20 86 C21.32 86 22.64 86 24 86 C24 85.01 24 84.02 24 83 C25.32 83 26.64 83 28 83 C28 81.68 28 80.36 28 79 C29.32 79 30.64 79 32 79 C32.33 76.03 32.66 73.06 33 70 C31.58774074 69.32404685 30.16997095 68.65959941 28.75 68 C27.96109375 67.62875 27.1721875 67.2575 26.359375 66.875 C23.32185329 65.74850188 21.01473345 65.30251137 18.23828125 67.2109375 Z M4 75 C2.11150323 82.95735532 1.44651878 90.84515697 1 99 C2.83700789 99.77242269 2.83700789 99.77242269 5 100 C6.86558946 98.96868277 6.86558946 98.96868277 8 97 C8.36213568 94.48710325 8.36213568 94.48710325 8.1875 91.8125 C8.16042969 90.91144531 8.13335937 90.01039062 8.10546875 89.08203125 C8.07066406 88.39496094 8.03585938 87.70789063 8 87 C9.32 87 10.64 87 12 87 C12 85.68 12 84.36 12 83 C13.32 83 14.64 83 16 83 C16 81.68 16 80.36 16 79 C14.68 79 13.36 79 12 79 C11.67 77.35 11.34 75.7 11 74 C8.57202689 74 6.37092995 74.50085685 4 75 Z M-40 83 C-40 84.32 -40 85.64 -40 87 C-38.68 87.33 -37.36 87.66 -36 88 C-35.67 87.01 -35.34 86.02 -35 85 C-35.33 84.34 -35.66 83.68 -36 83 C-37.32 83 -38.64 83 -40 83 Z M23 88 C23 91 23 91 23 91 Z M-4 91 C-4.94607807 93.74961511 -4.94607807 93.74961511 -5 97 C-2.68726558 99.8971941 -2.68726558 99.8971941 0 102 C0 98.7 0 95.4 0 92 C-1.32 91.67 -2.64 91.34 -4 91 Z M-13 95 C-12.34 95.66 -11.68 96.32 -11 97 C-11 96.34 -11 95.68 -11 95 C-11.66 95 -12.32 95 -13 95 Z " fill="#FEFEFE" transform="translate(64,9)"/>
</svg>
